{"glyphs":{"0":{"ha":963,"x_min":0,"x_max":0,"o":"m 482 -12 b 56 489 97 -12 56 296 b 479 983 56 675 94 983 b 904 489 863 983 904 674 b 482 -12 904 293 858 -12 m 482 179 b 671 483 638 179 671 321 b 479 790 671 649 639 790 b 292 483 317 790 292 647 b 482 179 292 325 317 179 "},"1":{"ha":617,"x_min":0,"x_max":0,"o":"m 313 968 l 542 968 l 542 0 l 313 0 l 313 660 l 38 660 l 38 819 l 188 819 b 313 921 224 819 313 819 "},"2":{"ha":961,"x_min":0,"x_max":0,"o":"m 907 190 l 907 0 l 63 0 l 63 193 b 628 646 261 261 628 438 b 469 785 628 738 574 785 b 281 603 365 785 290 714 l 57 618 b 475 979 57 818 244 979 b 857 675 713 979 857 858 b 392 190 857 478 686 281 "},"3":{"ha":999,"x_min":0,"x_max":0,"o":"m 496 -12 b 44 314 261 -12 44 92 l 271 325 b 503 167 271 231 374 167 b 718 299 629 167 718 221 b 443 425 718 400 638 425 l 443 583 b 656 699 569 583 656 619 b 496 801 656 768 585 801 b 329 674 399 801 331 746 l 103 686 b 501 981 103 874 290 981 b 885 713 706 981 885 882 b 740 531 885 631 826 564 b 947 301 896 497 947 399 b 496 -12 947 89 728 -12 "},"4":{"ha":974,"x_min":0,"x_max":0,"o":"m 817 372 l 924 372 l 924 192 l 817 192 l 817 0 l 589 0 l 589 192 l 43 192 l 43 383 l 590 968 l 817 968 m 265 372 l 589 372 l 589 714 "},"5":{"ha":986,"x_min":0,"x_max":0,"o":"m 533 665 b 931 342 772 665 931 532 b 486 -14 931 157 774 -14 b 44 285 226 -14 72 119 l 267 318 b 483 165 282 226 369 165 b 689 342 603 165 689 239 b 486 500 689 436 608 500 b 292 408 413 500 356 474 l 79 454 l 197 968 l 878 968 l 878 785 l 383 785 l 344 628 b 533 665 407 653 472 665 "},"6":{"ha":978,"x_min":0,"x_max":0,"o":"m 521 660 b 933 329 763 660 933 524 b 490 -14 933 128 750 -14 b 43 328 224 -14 43 125 b 139 547 43 404 68 457 l 468 968 l 731 968 l 481 658 b 521 660 496 660 510 660 m 490 165 b 701 329 618 165 701 231 b 490 496 701 429 618 496 b 275 329 361 496 275 429 b 490 165 275 231 358 165 "},"7":{"ha":903,"x_min":0,"x_max":0,"o":"m 38 968 l 865 968 l 865 799 l 388 0 l 121 0 l 606 785 l 38 785 "},"8":{"ha":1013,"x_min":0,"x_max":0,"o":"m 508 -14 b 53 288 231 -14 53 104 b 215 526 53 396 111 485 b 108 704 149 558 108 619 b 508 982 108 869 265 982 b 904 704 750 982 904 867 b 797 526 904 622 867 558 b 958 289 897 488 958 396 b 508 -14 958 114 797 -14 m 508 579 b 675 689 608 579 675 622 b 508 804 675 760 608 804 b 339 692 406 804 339 761 b 508 579 339 621 406 579 m 507 168 b 731 317 640 168 731 225 b 507 454 731 401 642 454 b 281 317 371 454 281 401 b 507 168 281 226 372 168 "},"9":{"ha":978,"x_min":0,"x_max":0,"o":"m 486 982 b 933 640 753 982 933 843 b 838 421 933 564 908 511 l 508 0 l 246 0 l 496 310 b 456 308 481 308 467 308 b 43 639 214 308 43 444 b 486 982 43 840 226 982 m 486 472 b 701 639 615 472 701 539 b 486 803 701 738 618 803 b 275 639 358 803 275 738 b 486 472 275 539 358 472 "}," ":{"ha":435,"x_min":0,"x_max":0,"o":""},"A":{"ha":1100,"x_min":0,"x_max":0,"o":"m 822 0 l 756 175 l 342 175 l 274 0 l 0 0 l 417 968 l 682 968 l 1099 0 m 414 360 l 685 360 l 550 711 "},"Á":{"ha":1100,"x_min":0,"x_max":0,"o":"m 853 1251 l 622 1053 l 471 1053 l 628 1251 m 822 0 l 756 175 l 342 175 l 274 0 l 0 0 l 417 968 l 682 968 l 1099 0 m 414 360 l 685 360 l 550 711 "},"Ă":{"ha":1100,"x_min":0,"x_max":0,"o":"m 547 1038 b 293 1251 368 1038 293 1114 l 463 1251 b 547 1157 463 1172 506 1157 b 632 1251 592 1157 632 1172 l 801 1251 b 547 1038 801 1104 717 1038 m 822 0 l 756 175 l 342 175 l 274 0 l 0 0 l 417 968 l 682 968 l 1099 0 m 414 360 l 685 360 l 550 711 "},"Ắ":{"ha":1100,"x_min":0,"x_max":0,"o":"m 853 1535 l 622 1336 l 471 1336 l 628 1535 m 547 1038 b 293 1251 368 1038 293 1114 l 463 1251 b 547 1157 463 1172 506 1157 b 632 1251 592 1157 632 1172 l 801 1251 b 547 1038 801 1104 717 1038 m 822 0 l 756 175 l 342 175 l 274 0 l 0 0 l 417 968 l 682 968 l 1099 0 m 414 360 l 685 360 l 550 711 "},"Ặ":{"ha":1100,"x_min":0,"x_max":0,"o":"m 547 1038 b 293 1251 368 1038 293 1114 l 463 1251 b 547 1157 463 1172 506 1157 b 632 1251 592 1157 632 1172 l 801 1251 b 547 1038 801 1104 717 1038 m 1099 0 l 822 0 l 756 175 l 342 175 l 274 0 l 0 0 l 417 968 l 682 968 m 414 360 l 685 360 l 550 711 m 407 -267 l 407 -78 l 688 -78 l 688 -267 "},"Ằ":{"ha":1100,"x_min":0,"x_max":0,"o":"m 624 1336 l 469 1336 l 257 1535 l 479 1535 m 547 1157 b 632 1251 592 1157 632 1172 l 801 1251 b 547 1038 801 1104 717 1038 b 293 1251 368 1038 293 1114 l 463 1251 b 547 1157 463 1172 506 1157 m 822 0 l 756 175 l 342 175 l 274 0 l 0 0 l 417 968 l 682 968 l 1099 0 m 414 360 l 685 360 l 550 711 "},"Ẳ":{"ha":1100,"x_min":0,"x_max":0,"o":"m 563 1400 b 464 1436 563 1436 515 1436 l 442 1436 l 442 1564 l 464 1564 b 708 1415 611 1564 708 1511 b 510 1275 708 1306 590 1286 l 486 1360 b 563 1400 525 1365 563 1367 m 547 1038 b 293 1251 368 1038 293 1114 l 463 1251 b 547 1157 463 1172 506 1157 b 632 1251 592 1157 632 1172 l 801 1251 b 547 1038 801 1104 717 1038 m 822 0 l 756 175 l 342 175 l 274 0 l 0 0 l 417 968 l 682 968 l 1099 0 m 414 360 l 685 360 l 550 711 "},"Ẵ":{"ha":1100,"x_min":0,"x_max":0,"o":"m 457 1410 b 428 1340 439 1410 428 1382 l 308 1340 b 467 1538 308 1461 369 1538 b 632 1454 557 1538 599 1454 b 660 1535 647 1454 660 1481 l 785 1535 b 629 1328 785 1399 725 1328 b 457 1410 525 1328 494 1410 m 547 1038 b 293 1251 368 1038 293 1114 l 463 1251 b 547 1157 463 1172 506 1157 b 632 1251 592 1157 632 1172 l 801 1251 b 547 1038 801 1104 717 1038 m 822 0 l 756 175 l 342 175 l 274 0 l 0 0 l 417 968 l 682 968 l 1099 0 m 414 360 l 685 360 l 550 711 "},"Ǎ":{"ha":1100,"x_min":0,"x_max":0,"o":"m 769 1251 l 547 1014 l 325 1251 l 485 1251 l 547 1182 l 611 1251 m 822 0 l 756 175 l 342 175 l 274 0 l 0 0 l 417 968 l 682 968 l 1099 0 m 414 360 l 685 360 l 550 711 "},"Â":{"ha":1100,"x_min":0,"x_max":0,"o":"m 547 1107 l 483 1029 l 325 1029 l 547 1283 l 769 1029 l 611 1029 m 822 0 l 756 175 l 342 175 l 274 0 l 0 0 l 417 968 l 682 968 l 1099 0 m 414 360 l 685 360 l 550 711 "},"Ấ":{"ha":1100,"x_min":0,"x_max":0,"o":"m 853 1511 l 622 1313 l 471 1313 l 628 1511 m 547 1107 l 483 1029 l 325 1029 l 547 1283 l 769 1029 l 611 1029 m 822 0 l 756 175 l 342 175 l 274 0 l 0 0 l 417 968 l 682 968 l 1099 0 m 414 360 l 685 360 l 550 711 "},"Ậ":{"ha":1100,"x_min":0,"x_max":0,"o":"m 547 1107 l 483 1029 l 325 1029 l 547 1283 l 769 1029 l 611 1029 m 1099 0 l 822 0 l 756 175 l 342 175 l 274 0 l 0 0 l 417 968 l 682 968 m 414 360 l 685 360 l 550 711 m 407 -267 l 407 -78 l 688 -78 l 688 -267 "},"Ầ":{"ha":1100,"x_min":0,"x_max":0,"o":"m 624 1313 l 469 1313 l 257 1511 l 479 1511 m 325 1029 l 547 1283 l 769 1029 l 611 1029 l 547 1107 l 483 1029 m 822 0 l 756 175 l 342 175 l 274 0 l 0 0 l 417 968 l 682 968 l 1099 0 m 414 360 l 685 360 l 550 711 "},"Ẩ":{"ha":1100,"x_min":0,"x_max":0,"o":"m 483 1029 l 325 1029 l 521 1253 b 510 1251 517 1253 514 1251 l 486 1336 b 563 1376 525 1342 563 1343 b 464 1413 563 1413 515 1413 l 442 1413 l 442 1540 l 464 1540 b 708 1392 611 1540 708 1488 b 567 1261 708 1306 636 1275 l 769 1029 l 611 1029 l 547 1107 m 822 0 l 756 175 l 342 175 l 274 0 l 0 0 l 417 968 l 682 968 l 1099 0 m 414 360 l 685 360 l 550 711 "},"Ẫ":{"ha":1100,"x_min":0,"x_max":0,"o":"m 457 1386 b 428 1317 439 1386 428 1358 l 308 1317 b 467 1514 308 1438 369 1514 b 632 1431 557 1514 599 1431 b 660 1511 647 1431 660 1457 l 785 1511 b 629 1304 785 1375 725 1304 b 457 1386 525 1304 494 1386 m 325 1029 l 547 1283 l 769 1029 l 611 1029 l 547 1107 l 483 1029 m 822 0 l 756 175 l 342 175 l 274 0 l 0 0 l 417 968 l 682 968 l 1099 0 m 414 360 l 685 360 l 550 711 "},"Ä":{"ha":1100,"x_min":0,"x_max":0,"o":"m 513 1251 l 513 1063 l 285 1063 l 285 1251 m 810 1251 l 810 1063 l 582 1063 l 582 1251 m 822 0 l 756 175 l 342 175 l 274 0 l 0 0 l 417 968 l 682 968 l 1099 0 m 414 360 l 685 360 l 550 711 "},"Ạ":{"ha":1100,"x_min":0,"x_max":0,"o":"m 1099 0 l 822 0 l 756 175 l 342 175 l 274 0 l 0 0 l 417 968 l 682 968 m 414 360 l 685 360 l 550 711 m 407 -267 l 407 -78 l 688 -78 l 688 -267 "},"À":{"ha":1100,"x_min":0,"x_max":0,"o":"m 624 1053 l 469 1053 l 257 1251 l 479 1251 m 822 0 l 756 175 l 342 175 l 274 0 l 0 0 l 417 968 l 682 968 l 1099 0 m 414 360 l 685 360 l 550 711 "},"Ả":{"ha":1100,"x_min":0,"x_max":0,"o":"m 563 1117 b 464 1153 563 1153 515 1153 l 442 1153 l 442 1281 l 464 1281 b 708 1132 611 1281 708 1228 b 510 992 708 1022 590 1003 l 486 1076 b 563 1117 525 1082 563 1083 m 822 0 l 756 175 l 342 175 l 274 0 l 0 0 l 417 968 l 682 968 l 1099 0 m 414 360 l 685 360 l 550 711 "},"Ā":{"ha":1100,"x_min":0,"x_max":0,"o":"m 740 1163 l 740 1042 l 354 1042 l 354 1163 m 822 0 l 756 175 l 342 175 l 274 0 l 0 0 l 417 968 l 682 968 l 1099 0 m 414 360 l 685 360 l 550 711 "},"Ą":{"ha":1100,"x_min":0,"x_max":0,"o":"m 1165 -219 b 1003 -315 1133 -271 1086 -315 b 829 -161 903 -315 829 -253 b 935 0 829 -68 899 -19 l 822 0 l 756 175 l 342 175 l 274 0 l 0 0 l 417 968 l 682 968 l 1099 0 b 953 -139 1072 -7 953 -64 b 997 -187 953 -178 974 -187 b 1057 -149 1026 -187 1044 -172 m 414 360 l 685 360 l 550 711 "},"Å":{"ha":1100,"x_min":0,"x_max":0,"o":"m 822 0 l 756 175 l 342 175 l 274 0 l 0 0 l 407 944 b 363 1064 379 978 363 1019 b 547 1249 363 1165 444 1249 b 732 1064 646 1249 732 1168 b 690 947 732 1019 717 979 l 1099 0 m 547 1125 b 488 1067 508 1125 488 1100 b 547 1003 488 1029 513 1003 b 608 1067 585 1003 608 1029 b 547 1125 608 1101 588 1125 m 414 360 l 685 360 l 550 711 "},"Ã":{"ha":1100,"x_min":0,"x_max":0,"o":"m 457 1126 b 428 1057 439 1126 428 1099 l 308 1057 b 467 1254 308 1178 369 1254 b 632 1171 557 1254 599 1171 b 660 1251 647 1171 660 1197 l 785 1251 b 629 1044 785 1115 725 1044 b 457 1126 525 1044 494 1126 m 822 0 l 756 175 l 342 175 l 274 0 l 0 0 l 417 968 l 682 968 l 1099 0 m 414 360 l 685 360 l 550 711 "},"Æ":{"ha":1517,"x_min":0,"x_max":0,"o":"m 0 0 l 443 968 l 1458 968 l 1458 785 l 913 785 l 913 581 l 1421 581 l 1421 394 l 913 394 l 913 183 l 1458 183 l 1458 0 l 661 0 l 661 171 l 338 171 l 272 0 m 418 350 l 661 350 l 661 803 l 592 803 "},"B":{"ha":1083,"x_min":0,"x_max":0,"o":"m 75 0 l 75 968 l 661 968 b 990 724 864 968 990 875 b 893 525 990 640 957 567 b 1044 288 993 485 1044 403 b 714 0 1044 110 917 0 m 329 588 l 635 588 b 735 688 700 588 735 622 b 635 785 735 750 700 785 l 329 785 m 329 183 l 668 183 b 789 301 746 183 789 226 b 668 408 789 372 747 408 l 329 408 "},"C":{"ha":1188,"x_min":0,"x_max":0,"o":"m 622 -24 b 35 483 256 -24 35 176 b 621 992 35 793 256 992 b 1160 704 888 992 1069 890 l 922 626 b 621 792 869 739 771 792 b 286 486 403 792 286 676 b 622 176 286 296 406 176 b 922 347 767 176 868 226 l 1161 272 b 622 -24 1075 78 889 -24 "},"Ć":{"ha":1188,"x_min":0,"x_max":0,"o":"m 556 1053 l 713 1251 l 938 1251 l 707 1053 m 622 -24 b 35 483 256 -24 35 176 b 621 992 35 793 256 992 b 1160 704 888 992 1069 890 l 922 626 b 621 792 869 739 771 792 b 286 486 403 792 286 676 b 622 176 286 296 406 176 b 922 347 767 176 868 226 l 1161 272 b 622 -24 1075 78 889 -24 "},"Č":{"ha":1188,"x_min":0,"x_max":0,"o":"m 632 1014 l 410 1251 l 569 1251 l 632 1182 l 696 1251 l 854 1251 m 622 -24 b 35 483 256 -24 35 176 b 621 992 35 793 256 992 b 1160 704 888 992 1069 890 l 922 626 b 621 792 869 739 771 792 b 286 486 403 792 286 676 b 622 176 286 296 406 176 b 922 347 767 176 868 226 l 1161 272 b 622 -24 1075 78 889 -24 "},"Ç":{"ha":1188,"x_min":0,"x_max":0,"o":"m 1161 272 b 671 -22 1081 90 911 -11 l 640 -56 b 706 -85 667 -61 689 -72 b 753 -192 739 -111 753 -150 b 581 -361 753 -286 683 -361 b 471 -329 561 -361 517 -358 l 535 -228 b 586 -243 553 -237 571 -243 b 632 -200 613 -243 632 -229 b 581 -143 632 -168 611 -151 b 482 -135 551 -135 519 -135 l 556 -21 b 35 483 229 1 35 196 b 621 992 35 793 256 992 b 1160 704 888 992 1069 890 l 922 626 b 621 792 869 739 771 792 b 286 486 403 792 286 676 b 622 176 286 296 406 176 b 922 347 767 176 868 226 "},"Ċ":{"ha":1188,"x_min":0,"x_max":0,"o":"m 492 1063 l 492 1251 l 772 1251 l 772 1063 m 622 -24 b 35 483 256 -24 35 176 b 621 992 35 793 256 992 b 1160 704 888 992 1069 890 l 922 626 b 621 792 869 739 771 792 b 286 486 403 792 286 676 b 622 176 286 296 406 176 b 922 347 767 176 868 226 l 1161 272 b 622 -24 1075 78 889 -24 "},"D":{"ha":1142,"x_min":0,"x_max":0,"o":"m 74 0 l 74 968 l 578 968 b 1104 476 910 968 1104 790 b 575 0 1104 168 915 0 m 328 207 l 525 207 b 849 483 603 207 849 207 b 546 761 849 713 688 761 l 328 761 "},"Ð":{"ha":1142,"x_min":0,"x_max":0,"o":"m 578 968 b 1104 476 910 968 1104 790 b 575 0 1104 168 915 0 l 74 0 l 74 415 l -47 415 l -47 554 l 74 554 l 74 968 m 525 207 b 849 483 603 207 849 207 b 546 761 849 713 688 761 l 328 761 l 328 554 l 531 554 l 531 415 l 328 415 l 328 207 "},"Ď":{"ha":1142,"x_min":0,"x_max":0,"o":"m 551 1014 l 329 1251 l 489 1251 l 551 1182 l 615 1251 l 774 1251 m 74 0 l 74 968 l 578 968 b 1104 476 910 968 1104 790 b 575 0 1104 168 915 0 m 328 207 l 525 207 b 849 483 603 207 849 207 b 546 761 849 713 688 761 l 328 761 "},"Đ":{"ha":1142,"x_min":0,"x_max":0,"o":"m 578 968 b 1104 476 910 968 1104 790 b 575 0 1104 168 915 0 l 74 0 l 74 415 l -47 415 l -47 554 l 74 554 l 74 968 m 525 207 b 849 483 603 207 849 207 b 546 761 849 713 688 761 l 328 761 l 328 554 l 531 554 l 531 415 l 328 415 l 328 207 "},"E":{"ha":932,"x_min":0,"x_max":0,"o":"m 74 0 l 74 968 l 874 968 l 874 785 l 325 785 l 325 581 l 836 581 l 836 394 l 325 394 l 325 183 l 874 183 l 874 0 "},"É":{"ha":932,"x_min":0,"x_max":0,"o":"m 397 1053 l 554 1251 l 779 1251 l 549 1053 m 74 0 l 74 968 l 874 968 l 874 785 l 325 785 l 325 581 l 836 581 l 836 394 l 325 394 l 325 183 l 874 183 l 874 0 "},"Ě":{"ha":932,"x_min":0,"x_max":0,"o":"m 474 1014 l 251 1251 l 411 1251 l 474 1182 l 538 1251 l 696 1251 m 74 0 l 74 968 l 874 968 l 874 785 l 325 785 l 325 581 l 836 581 l 836 394 l 325 394 l 325 183 l 874 183 l 874 0 "},"Ê":{"ha":932,"x_min":0,"x_max":0,"o":"m 251 1029 l 474 1283 l 696 1029 l 538 1029 l 474 1107 l 410 1029 m 74 0 l 74 968 l 874 968 l 874 785 l 325 785 l 325 581 l 836 581 l 836 394 l 325 394 l 325 183 l 874 183 l 874 0 "},"Ế":{"ha":932,"x_min":0,"x_max":0,"o":"m 397 1313 l 554 1511 l 779 1511 l 549 1313 m 251 1029 l 474 1283 l 696 1029 l 538 1029 l 474 1107 l 410 1029 m 74 0 l 74 968 l 874 968 l 874 785 l 325 785 l 325 581 l 836 581 l 836 394 l 325 394 l 325 183 l 874 183 l 874 0 "},"Ệ":{"ha":932,"x_min":0,"x_max":0,"o":"m 251 1029 l 474 1283 l 696 1029 l 538 1029 l 474 1107 l 410 1029 m 74 0 l 74 968 l 874 968 l 874 785 l 325 785 l 325 581 l 836 581 l 836 394 l 325 394 l 325 183 l 874 183 l 874 0 m 333 -267 l 333 -78 l 614 -78 l 614 -267 "},"Ề":{"ha":932,"x_min":0,"x_max":0,"o":"m 396 1313 l 183 1511 l 406 1511 l 550 1313 m 251 1029 l 474 1283 l 696 1029 l 538 1029 l 474 1107 l 410 1029 m 74 0 l 74 968 l 874 968 l 874 785 l 325 785 l 325 581 l 836 581 l 836 394 l 325 394 l 325 183 l 874 183 l 874 0 "},"Ể":{"ha":932,"x_min":0,"x_max":0,"o":"m 410 1029 l 251 1029 l 447 1253 b 436 1251 443 1253 440 1251 l 413 1336 b 489 1376 451 1342 489 1343 b 390 1413 489 1413 442 1413 l 368 1413 l 368 1540 l 390 1540 b 635 1392 538 1540 635 1488 b 493 1261 635 1306 563 1275 l 696 1029 l 538 1029 l 474 1107 m 874 785 l 325 785 l 325 581 l 836 581 l 836 394 l 325 394 l 325 183 l 874 183 l 874 0 l 74 0 l 74 968 l 874 968 "},"Ễ":{"ha":932,"x_min":0,"x_max":0,"o":"m 556 1304 b 383 1386 451 1304 421 1386 b 354 1317 365 1386 354 1358 l 235 1317 b 393 1514 235 1438 296 1514 b 558 1431 483 1514 525 1431 b 586 1511 574 1431 586 1457 l 711 1511 b 556 1304 711 1375 651 1304 m 251 1029 l 474 1283 l 696 1029 l 538 1029 l 474 1107 l 410 1029 m 74 0 l 74 968 l 874 968 l 874 785 l 325 785 l 325 581 l 836 581 l 836 394 l 325 394 l 325 183 l 874 183 l 874 0 "},"Ë":{"ha":932,"x_min":0,"x_max":0,"o":"m 211 1063 l 211 1251 l 439 1251 l 439 1063 m 508 1063 l 508 1251 l 736 1251 l 736 1063 m 74 0 l 74 968 l 874 968 l 874 785 l 325 785 l 325 581 l 836 581 l 836 394 l 325 394 l 325 183 l 874 183 l 874 0 "},"Ė":{"ha":932,"x_min":0,"x_max":0,"o":"m 333 1063 l 333 1251 l 614 1251 l 614 1063 m 74 0 l 74 968 l 874 968 l 874 785 l 325 785 l 325 581 l 836 581 l 836 394 l 325 394 l 325 183 l 874 183 l 874 0 "},"Ẹ":{"ha":932,"x_min":0,"x_max":0,"o":"m 74 0 l 74 968 l 874 968 l 874 785 l 325 785 l 325 581 l 836 581 l 836 394 l 325 394 l 325 183 l 874 183 l 874 0 m 333 -267 l 333 -78 l 614 -78 l 614 -267 "},"È":{"ha":932,"x_min":0,"x_max":0,"o":"m 396 1053 l 183 1251 l 406 1251 l 550 1053 m 74 0 l 74 968 l 874 968 l 874 785 l 325 785 l 325 581 l 836 581 l 836 394 l 325 394 l 325 183 l 874 183 l 874 0 "},"Ẻ":{"ha":932,"x_min":0,"x_max":0,"o":"m 413 1076 b 489 1117 451 1082 489 1083 b 390 1153 489 1153 442 1153 l 368 1153 l 368 1281 l 390 1281 b 635 1132 538 1281 635 1228 b 436 992 635 1022 517 1003 m 74 0 l 74 968 l 874 968 l 874 785 l 325 785 l 325 581 l 836 581 l 836 394 l 325 394 l 325 183 l 874 183 l 874 0 "},"Ē":{"ha":932,"x_min":0,"x_max":0,"o":"m 281 1042 l 281 1163 l 667 1163 l 667 1042 m 74 0 l 74 968 l 874 968 l 874 785 l 325 785 l 325 581 l 836 581 l 836 394 l 325 394 l 325 183 l 874 183 l 874 0 "},"Ę":{"ha":932,"x_min":0,"x_max":0,"o":"m 940 -219 b 778 -315 908 -271 861 -315 b 604 -161 678 -315 604 -253 b 710 0 604 -68 674 -19 l 74 0 l 74 968 l 874 968 l 874 785 l 325 785 l 325 581 l 836 581 l 836 394 l 325 394 l 325 183 l 874 183 l 874 0 b 728 -139 847 -7 728 -64 b 772 -187 728 -178 749 -187 b 832 -149 801 -187 819 -172 "},"Ẽ":{"ha":932,"x_min":0,"x_max":0,"o":"m 556 1044 b 383 1126 451 1044 421 1126 b 354 1057 365 1126 354 1099 l 235 1057 b 393 1254 235 1178 296 1254 b 558 1171 483 1254 525 1171 b 586 1251 574 1171 586 1197 l 711 1251 b 556 1044 711 1115 651 1044 m 74 0 l 74 968 l 874 968 l 874 785 l 325 785 l 325 581 l 836 581 l 836 394 l 325 394 l 325 183 l 874 183 l 874 0 "},"F":{"ha":957,"x_min":0,"x_max":0,"o":"m 74 0 l 74 968 l 929 968 l 929 785 l 325 785 l 325 544 l 856 544 l 856 360 l 325 360 l 325 0 "},"G":{"ha":1217,"x_min":0,"x_max":0,"o":"m 664 353 l 664 532 l 1158 532 l 1158 0 l 974 0 l 961 90 b 614 -24 885 8 761 -24 b 33 475 246 -24 33 186 b 624 992 33 790 264 992 b 1158 704 871 992 1067 894 l 921 631 b 621 801 868 746 782 801 b 285 482 389 801 285 678 b 632 167 285 292 396 167 b 903 353 844 167 897 257 "},"Ğ":{"ha":1217,"x_min":0,"x_max":0,"o":"m 621 1038 b 367 1251 442 1038 367 1114 l 536 1251 b 621 1157 536 1172 579 1157 b 706 1251 665 1157 706 1172 l 875 1251 b 621 1038 875 1104 790 1038 m 664 353 l 664 532 l 1158 532 l 1158 0 l 974 0 l 961 90 b 614 -24 885 8 761 -24 b 33 475 246 -24 33 186 b 624 992 33 790 264 992 b 1158 704 871 992 1067 894 l 921 631 b 621 801 868 746 782 801 b 285 482 389 801 285 678 b 632 167 285 292 396 167 b 903 353 844 167 897 257 "},"Ģ":{"ha":1217,"x_min":0,"x_max":0,"o":"m 664 353 l 664 532 l 1158 532 l 1158 0 l 974 0 l 961 90 b 614 -24 885 8 761 -24 b 33 475 246 -24 33 186 b 624 992 33 790 264 992 b 1158 704 871 992 1067 894 l 921 631 b 621 801 868 746 782 801 b 285 482 389 801 285 678 b 632 167 285 292 396 167 b 903 353 844 167 897 257 m 433 -318 l 508 -71 l 726 -71 l 553 -318 "},"Ġ":{"ha":1217,"x_min":0,"x_max":0,"o":"m 761 1251 l 761 1063 l 481 1063 l 481 1251 m 664 353 l 664 532 l 1158 532 l 1158 0 l 974 0 l 961 90 b 614 -24 885 8 761 -24 b 33 475 246 -24 33 186 b 624 992 33 790 264 992 b 1158 704 871 992 1067 894 l 921 631 b 621 801 868 746 782 801 b 285 482 389 801 285 678 b 632 167 285 292 396 167 b 903 353 844 167 897 257 "},"H":{"ha":1114,"x_min":0,"x_max":0,"o":"m 74 0 l 74 968 l 325 968 l 325 599 l 789 599 l 789 968 l 1040 968 l 1040 0 l 789 0 l 789 376 l 325 376 l 325 0 "},"Ħ":{"ha":1114,"x_min":0,"x_max":0,"o":"m 1114 831 l 1114 708 l 1040 708 l 1040 0 l 789 0 l 789 376 l 325 376 l 325 0 l 74 0 l 74 708 l 1 708 l 1 831 l 74 831 l 74 968 l 325 968 l 325 831 l 789 831 l 789 968 l 1040 968 l 1040 831 m 789 599 l 789 708 l 325 708 l 325 599 "},"I":{"ha":403,"x_min":0,"x_max":0,"o":"m 74 0 l 74 968 l 328 968 l 328 0 "},"Í":{"ha":403,"x_min":0,"x_max":0,"o":"m 125 1053 l 282 1251 l 507 1251 l 276 1053 m 74 0 l 74 968 l 328 968 l 328 0 "},"Ǐ":{"ha":403,"x_min":0,"x_max":0,"o":"m 201 1014 l -21 1251 l 139 1251 l 201 1182 l 265 1251 l 424 1251 m 74 0 l 74 968 l 328 968 l 328 0 "},"Î":{"ha":403,"x_min":0,"x_max":0,"o":"m -21 1029 l 201 1283 l 424 1029 l 265 1029 l 201 1107 l 138 1029 m 74 0 l 74 968 l 328 968 l 328 0 "},"Ï":{"ha":403,"x_min":0,"x_max":0,"o":"m -61 1063 l -61 1251 l 167 1251 l 167 1063 m 236 1063 l 236 1251 l 464 1251 l 464 1063 m 74 0 l 74 968 l 328 968 l 328 0 "},"İ":{"ha":403,"x_min":0,"x_max":0,"o":"m 61 1063 l 61 1251 l 342 1251 l 342 1063 m 74 0 l 74 968 l 328 968 l 328 0 "},"Ị":{"ha":403,"x_min":0,"x_max":0,"o":"m 74 0 l 74 968 l 328 968 l 328 0 m 61 -267 l 61 -78 l 342 -78 l 342 -267 "},"Ì":{"ha":403,"x_min":0,"x_max":0,"o":"m 124 1053 l -89 1251 l 133 1251 l 278 1053 m 74 0 l 74 968 l 328 968 l 328 0 "},"Ỉ":{"ha":403,"x_min":0,"x_max":0,"o":"m 140 1076 b 217 1117 179 1082 217 1083 b 118 1153 217 1153 169 1153 l 96 1153 l 96 1281 l 118 1281 b 363 1132 265 1281 363 1228 b 164 992 363 1022 244 1003 m 74 0 l 74 968 l 328 968 l 328 0 "},"Ī":{"ha":403,"x_min":0,"x_max":0,"o":"m 8 1042 l 8 1163 l 394 1163 l 394 1042 m 74 0 l 74 968 l 328 968 l 328 0 "},"Į":{"ha":403,"x_min":0,"x_max":0,"o":"m 394 -219 b 232 -315 363 -271 315 -315 b 58 -161 132 -315 58 -253 b 164 0 58 -68 128 -19 l 74 0 l 74 968 l 328 968 l 328 0 b 182 -139 301 -7 182 -64 b 226 -187 182 -178 203 -187 b 286 -149 256 -187 274 -172 "},"Ĩ":{"ha":403,"x_min":0,"x_max":0,"o":"m 283 1044 b 111 1126 179 1044 149 1126 b 82 1057 93 1126 82 1099 l -37 1057 b 121 1254 -37 1178 24 1254 b 286 1171 211 1254 253 1171 b 314 1251 301 1171 314 1197 l 439 1251 b 283 1044 439 1115 379 1044 m 74 0 l 74 968 l 328 968 l 328 0 "},"J":{"ha":950,"x_min":0,"x_max":0,"o":"m 449 -24 b 13 308 186 -24 31 101 l 261 354 b 449 186 269 242 325 186 b 632 368 588 186 632 265 l 632 761 l 263 761 l 263 968 l 885 968 l 885 333 b 449 -24 885 114 725 -24 "},"K":{"ha":1135,"x_min":0,"x_max":0,"o":"m 1132 0 l 825 0 l 486 446 l 325 315 l 325 0 l 74 0 l 74 968 l 325 968 l 325 579 l 774 968 l 1125 968 l 664 592 "},"Ķ":{"ha":1135,"x_min":0,"x_max":0,"o":"m 664 592 l 1132 0 l 825 0 l 486 446 l 325 315 l 325 0 l 74 0 l 74 968 l 325 968 l 325 579 l 774 968 l 1125 968 m 347 -318 l 422 -71 l 640 -71 l 467 -318 "},"L":{"ha":824,"x_min":0,"x_max":0,"o":"m 74 0 l 74 968 l 325 968 l 325 207 l 810 207 l 810 0 "},"Ĺ":{"ha":824,"x_min":0,"x_max":0,"o":"m 111 1053 l 268 1251 l 493 1251 l 263 1053 m 74 0 l 74 968 l 325 968 l 325 207 l 810 207 l 810 0 "},"Ľ":{"ha":824,"x_min":0,"x_max":0,"o":"m 74 0 l 74 968 l 325 968 l 325 207 l 810 207 l 810 0 m 542 643 l 618 968 l 838 968 l 663 643 "},"Ļ":{"ha":824,"x_min":0,"x_max":0,"o":"m 74 0 l 74 968 l 325 968 l 325 207 l 810 207 l 810 0 m 257 -318 l 332 -71 l 550 -71 l 376 -318 "},"Ł":{"ha":824,"x_min":0,"x_max":0,"o":"m 325 207 l 810 207 l 810 0 l 74 0 l 74 186 l 6 144 l 6 360 l 74 401 l 74 968 l 325 968 l 325 556 l 578 711 l 578 499 l 325 342 "},"M":{"ha":1396,"x_min":0,"x_max":0,"o":"m 986 968 l 1322 968 l 1322 0 l 1071 0 l 1071 642 l 808 88 l 589 88 l 326 638 l 326 0 l 75 0 l 75 968 l 408 968 l 696 361 "},"N":{"ha":1114,"x_min":0,"x_max":0,"o":"m 788 968 l 1040 968 l 1040 0 l 807 0 l 325 600 l 325 0 l 74 0 l 74 968 l 306 968 l 788 371 "},"Ń":{"ha":1114,"x_min":0,"x_max":0,"o":"m 857 1251 l 626 1053 l 475 1053 l 632 1251 m 788 968 l 1040 968 l 1040 0 l 807 0 l 325 600 l 325 0 l 74 0 l 74 968 l 306 968 l 788 371 "},"Ň":{"ha":1114,"x_min":0,"x_max":0,"o":"m 774 1251 l 551 1014 l 329 1251 l 489 1251 l 551 1182 l 615 1251 m 788 968 l 1040 968 l 1040 0 l 807 0 l 325 600 l 325 0 l 74 0 l 74 968 l 306 968 l 788 371 "},"Ņ":{"ha":1114,"x_min":0,"x_max":0,"o":"m 788 968 l 1040 968 l 1040 0 l 807 0 l 325 600 l 325 0 l 74 0 l 74 968 l 306 968 l 788 371 m 367 -318 l 442 -71 l 660 -71 l 486 -318 "},"Ŋ":{"ha":1089,"x_min":0,"x_max":0,"o":"m 803 968 l 1015 968 l 1015 4 b 721 -257 1015 -126 938 -257 b 601 -250 690 -257 650 -256 l 600 -131 b 664 -133 624 -132 647 -133 b 811 -53 761 -133 811 -96 b 792 -1 811 -44 808 -22 l 288 643 l 288 0 l 74 0 l 74 968 l 294 968 l 803 328 "},"Ñ":{"ha":1114,"x_min":0,"x_max":0,"o":"m 461 1126 b 432 1057 443 1126 432 1099 l 313 1057 b 471 1254 313 1178 374 1254 b 636 1171 561 1254 603 1171 b 664 1251 651 1171 664 1197 l 789 1251 b 633 1044 789 1115 729 1044 b 461 1126 529 1044 499 1126 m 788 968 l 1040 968 l 1040 0 l 807 0 l 325 600 l 325 0 l 74 0 l 74 968 l 306 968 l 788 371 "},"O":{"ha":1225,"x_min":0,"x_max":0,"o":"m 611 -24 b 35 483 250 -24 35 176 b 611 992 35 790 250 992 b 1188 483 976 992 1188 793 b 611 -24 1188 175 972 -24 m 611 183 b 933 483 822 183 933 300 b 611 785 933 668 822 785 b 286 483 399 785 286 668 b 611 183 286 299 400 183 "},"Ó":{"ha":1225,"x_min":0,"x_max":0,"o":"m 536 1053 l 693 1251 l 918 1251 l 688 1053 m 611 -24 b 35 483 250 -24 35 176 b 611 992 35 790 250 992 b 1188 483 976 992 1188 793 b 611 -24 1188 175 972 -24 m 611 183 b 933 483 822 183 933 300 b 611 785 933 668 822 785 b 286 483 399 785 286 668 b 611 183 286 299 400 183 "},"Ǒ":{"ha":1225,"x_min":0,"x_max":0,"o":"m 613 1014 l 390 1251 l 550 1251 l 613 1182 l 676 1251 l 835 1251 m 611 -24 b 35 483 250 -24 35 176 b 611 992 35 790 250 992 b 1188 483 976 992 1188 793 b 611 -24 1188 175 972 -24 m 611 183 b 933 483 822 183 933 300 b 611 785 933 668 822 785 b 286 483 399 785 286 668 b 611 183 286 299 400 183 "},"Ô":{"ha":1225,"x_min":0,"x_max":0,"o":"m 390 1029 l 613 1283 l 835 1029 l 676 1029 l 613 1107 l 549 1029 m 611 -24 b 35 483 250 -24 35 176 b 611 992 35 790 250 992 b 1188 483 976 992 1188 793 b 611 -24 1188 175 972 -24 m 611 183 b 933 483 822 183 933 300 b 611 785 933 668 822 785 b 286 483 399 785 286 668 b 611 183 286 299 400 183 "},"Ố":{"ha":1225,"x_min":0,"x_max":0,"o":"m 536 1313 l 693 1511 l 918 1511 l 688 1313 m 390 1029 l 613 1283 l 835 1029 l 676 1029 l 613 1107 l 549 1029 m 611 -24 b 35 483 250 -24 35 176 b 611 992 35 790 250 992 b 1188 483 976 992 1188 793 b 611 -24 1188 175 972 -24 m 611 183 b 933 483 822 183 933 300 b 611 785 933 668 822 785 b 286 483 399 785 286 668 b 611 183 286 299 400 183 "},"Ộ":{"ha":1225,"x_min":0,"x_max":0,"o":"m 390 1029 l 613 1283 l 835 1029 l 676 1029 l 613 1107 l 549 1029 m 611 -24 b 35 483 250 -24 35 176 b 611 992 35 790 250 992 b 1188 483 976 992 1188 793 b 611 -24 1188 175 972 -24 m 611 183 b 933 483 822 183 933 300 b 611 785 933 668 822 785 b 286 483 399 785 286 668 b 611 183 286 299 400 183 m 472 -267 l 472 -78 l 753 -78 l 753 -267 "},"Ồ":{"ha":1225,"x_min":0,"x_max":0,"o":"m 535 1313 l 322 1511 l 544 1511 l 689 1313 m 390 1029 l 613 1283 l 835 1029 l 676 1029 l 613 1107 l 549 1029 m 611 -24 b 35 483 250 -24 35 176 b 611 992 35 790 250 992 b 1188 483 976 992 1188 793 b 611 -24 1188 175 972 -24 m 611 183 b 933 483 822 183 933 300 b 611 785 933 668 822 785 b 286 483 399 785 286 668 b 611 183 286 299 400 183 "},"Ổ":{"ha":1225,"x_min":0,"x_max":0,"o":"m 549 1029 l 390 1029 l 586 1253 b 575 1251 582 1253 579 1251 l 551 1336 b 628 1376 590 1342 628 1343 b 529 1413 628 1413 581 1413 l 507 1413 l 507 1540 l 529 1540 b 774 1392 676 1540 774 1488 b 632 1261 774 1306 701 1275 l 835 1029 l 676 1029 l 613 1107 m 611 992 b 1188 483 976 992 1188 793 b 611 -24 1188 175 972 -24 b 35 483 250 -24 35 176 b 611 992 35 790 250 992 m 611 183 b 933 483 822 183 933 300 b 611 785 933 668 822 785 b 286 483 399 785 286 668 b 611 183 286 299 400 183 "},"Ỗ":{"ha":1225,"x_min":0,"x_max":0,"o":"m 694 1304 b 522 1386 590 1304 560 1386 b 493 1317 504 1386 493 1358 l 374 1317 b 532 1514 374 1438 435 1514 b 697 1431 622 1514 664 1431 b 725 1511 713 1431 725 1457 l 850 1511 b 694 1304 850 1375 790 1304 m 390 1029 l 613 1283 l 835 1029 l 676 1029 l 613 1107 l 549 1029 m 611 -24 b 35 483 250 -24 35 176 b 611 992 35 790 250 992 b 1188 483 976 992 1188 793 b 611 -24 1188 175 972 -24 m 611 183 b 933 483 822 183 933 300 b 611 785 933 668 822 785 b 286 483 399 785 286 668 b 611 183 286 299 400 183 "},"Ö":{"ha":1225,"x_min":0,"x_max":0,"o":"m 350 1063 l 350 1251 l 578 1251 l 578 1063 m 647 1063 l 647 1251 l 875 1251 l 875 1063 m 611 -24 b 35 483 250 -24 35 176 b 611 992 35 790 250 992 b 1188 483 976 992 1188 793 b 611 -24 1188 175 972 -24 m 611 183 b 933 483 822 183 933 300 b 611 785 933 668 822 785 b 286 483 399 785 286 668 b 611 183 286 299 400 183 "},"Ọ":{"ha":1225,"x_min":0,"x_max":0,"o":"m 611 -24 b 35 483 250 -24 35 176 b 611 992 35 790 250 992 b 1188 483 976 992 1188 793 b 611 -24 1188 175 972 -24 m 611 183 b 933 483 822 183 933 300 b 611 785 933 668 822 785 b 286 483 399 785 286 668 b 611 183 286 299 400 183 m 472 -267 l 472 -78 l 753 -78 l 753 -267 "},"Ò":{"ha":1225,"x_min":0,"x_max":0,"o":"m 535 1053 l 322 1251 l 544 1251 l 689 1053 m 611 -24 b 35 483 250 -24 35 176 b 611 992 35 790 250 992 b 1188 483 976 992 1188 793 b 611 -24 1188 175 972 -24 m 611 183 b 933 483 822 183 933 300 b 611 785 933 668 822 785 b 286 483 399 785 286 668 b 611 183 286 299 400 183 "},"Ỏ":{"ha":1225,"x_min":0,"x_max":0,"o":"m 551 1076 b 628 1117 590 1082 628 1083 b 529 1153 628 1153 581 1153 l 507 1153 l 507 1281 l 529 1281 b 774 1132 676 1281 774 1228 b 575 992 774 1022 656 1003 m 611 -24 b 35 483 250 -24 35 176 b 611 992 35 790 250 992 b 1188 483 976 992 1188 793 b 611 -24 1188 175 972 -24 m 611 183 b 933 483 822 183 933 300 b 611 785 933 668 822 785 b 286 483 399 785 286 668 b 611 183 286 299 400 183 "},"Ơ":{"ha":1225,"x_min":0,"x_max":0,"o":"m 1229 990 b 1107 772 1229 899 1194 811 b 1188 483 1160 693 1188 596 b 611 -24 1188 175 972 -24 b 35 483 250 -24 35 176 b 611 992 35 790 250 992 b 997 885 771 992 901 954 l 997 888 b 1085 1003 1065 888 1085 931 l 1085 1038 l 1229 1038 m 611 183 b 933 483 822 183 933 300 b 611 785 933 668 822 785 b 286 483 399 785 286 668 b 611 183 286 299 400 183 "},"Ớ":{"ha":1225,"x_min":0,"x_max":0,"o":"m 918 1251 l 688 1053 l 536 1053 l 693 1251 m 1229 990 b 1107 772 1229 899 1194 811 b 1188 483 1160 693 1188 596 b 611 -24 1188 175 972 -24 b 35 483 250 -24 35 176 b 611 992 35 790 250 992 b 997 885 771 992 901 954 l 997 888 b 1085 1003 1065 888 1085 931 l 1085 1038 l 1229 1038 m 611 183 b 933 483 822 183 933 300 b 611 785 933 668 822 785 b 286 483 399 785 286 668 b 611 183 286 299 400 183 "},"Ợ":{"ha":1225,"x_min":0,"x_max":0,"o":"m 1229 990 b 1107 772 1229 899 1194 811 b 1188 483 1160 693 1188 596 b 611 -24 1188 175 972 -24 b 35 483 250 -24 35 176 b 611 992 35 790 250 992 b 997 885 771 992 901 954 l 997 888 b 1085 1003 1065 888 1085 931 l 1085 1038 l 1229 1038 m 611 183 b 933 483 822 183 933 300 b 611 785 933 668 822 785 b 286 483 399 785 286 668 b 611 183 286 299 400 183 m 472 -267 l 472 -78 l 753 -78 l 753 -267 "},"Ờ":{"ha":1225,"x_min":0,"x_max":0,"o":"m 689 1053 l 535 1053 l 322 1251 l 544 1251 m 1229 990 b 1107 772 1229 899 1194 811 b 1188 483 1160 693 1188 596 b 611 -24 1188 175 972 -24 b 35 483 250 -24 35 176 b 611 992 35 790 250 992 b 997 885 771 992 901 954 l 997 888 b 1085 1003 1065 888 1085 931 l 1085 1038 l 1229 1038 m 611 183 b 933 483 822 183 933 300 b 611 785 933 668 822 785 b 286 483 399 785 286 668 b 611 183 286 299 400 183 "},"Ở":{"ha":1225,"x_min":0,"x_max":0,"o":"m 628 1117 b 529 1153 628 1153 581 1153 l 507 1153 l 507 1281 l 529 1281 b 774 1132 676 1281 774 1228 b 575 992 774 1022 656 1003 l 551 1076 b 628 1117 590 1082 628 1083 m 1229 990 b 1107 772 1229 899 1194 811 b 1188 483 1160 693 1188 596 b 611 -24 1188 175 972 -24 b 35 483 250 -24 35 176 b 611 992 35 790 250 992 b 997 885 771 992 901 954 l 997 888 b 1085 1003 1065 888 1085 931 l 1085 1038 l 1229 1038 m 611 183 b 933 483 822 183 933 300 b 611 785 933 668 822 785 b 286 483 399 785 286 668 b 611 183 286 299 400 183 "},"Ỡ":{"ha":1225,"x_min":0,"x_max":0,"o":"m 522 1126 b 493 1057 504 1126 493 1099 l 374 1057 b 532 1254 374 1178 435 1254 b 697 1171 622 1254 664 1171 b 725 1251 713 1171 725 1197 l 850 1251 b 694 1044 850 1115 790 1044 b 522 1126 590 1044 560 1126 m 1229 990 b 1107 772 1229 899 1194 811 b 1188 483 1160 693 1188 596 b 611 -24 1188 175 972 -24 b 35 483 250 -24 35 176 b 611 992 35 790 250 992 b 997 885 771 992 901 954 l 997 888 b 1085 1003 1065 888 1085 931 l 1085 1038 l 1229 1038 m 611 183 b 933 483 822 183 933 300 b 611 785 933 668 822 785 b 286 483 399 785 286 668 b 611 183 286 299 400 183 "},"Ő":{"ha":1225,"x_min":0,"x_max":0,"o":"m 394 1015 l 551 1251 l 739 1251 l 546 1015 m 679 1015 l 836 1251 l 1058 1251 l 831 1015 m 611 -24 b 35 483 250 -24 35 176 b 611 992 35 790 250 992 b 1188 483 976 992 1188 793 b 611 -24 1188 175 972 -24 m 611 183 b 933 483 822 183 933 300 b 611 785 933 668 822 785 b 286 483 399 785 286 668 b 611 183 286 299 400 183 "},"Ō":{"ha":1225,"x_min":0,"x_max":0,"o":"m 419 1042 l 419 1163 l 806 1163 l 806 1042 m 611 -24 b 35 483 250 -24 35 176 b 611 992 35 790 250 992 b 1188 483 976 992 1188 793 b 611 -24 1188 175 972 -24 m 611 183 b 933 483 822 183 933 300 b 611 785 933 668 822 785 b 286 483 399 785 286 668 b 611 183 286 299 400 183 "},"Ø":{"ha":1225,"x_min":0,"x_max":0,"o":"m 997 885 b 1188 483 1121 796 1188 657 b 611 -24 1188 175 972 -24 b 328 28 503 -24 407 -6 l 306 0 l 163 0 l 228 83 b 35 483 103 171 35 310 b 611 992 35 790 250 992 b 899 940 722 992 818 974 l 921 968 l 1063 968 m 286 483 b 369 264 286 392 314 317 l 758 761 b 611 785 717 776 668 785 b 286 483 399 785 286 668 m 611 183 b 933 483 822 183 933 300 b 854 701 933 575 907 649 l 467 206 b 611 183 508 192 557 183 "},"Õ":{"ha":1225,"x_min":0,"x_max":0,"o":"m 694 1044 b 522 1126 590 1044 560 1126 b 493 1057 504 1126 493 1099 l 374 1057 b 532 1254 374 1178 435 1254 b 697 1171 622 1254 664 1171 b 725 1251 713 1171 725 1197 l 850 1251 b 694 1044 850 1115 790 1044 m 611 -24 b 35 483 250 -24 35 176 b 611 992 35 790 250 992 b 1188 483 976 992 1188 793 b 611 -24 1188 175 972 -24 m 611 183 b 933 483 822 183 933 300 b 611 785 933 668 822 785 b 286 483 399 785 286 668 b 611 183 286 299 400 183 "},"Œ":{"ha":1797,"x_min":0,"x_max":0,"o":"m 1739 785 l 1190 785 l 1190 581 l 1701 581 l 1701 394 l 1190 394 l 1190 183 l 1739 183 l 1739 0 l 939 0 l 939 49 b 611 -24 850 1 740 -24 b 35 483 250 -24 35 176 b 611 992 35 790 250 992 b 939 921 740 992 850 967 l 939 968 l 1739 968 m 611 183 b 933 483 822 183 933 300 b 611 785 933 668 822 785 b 286 483 399 785 286 668 b 611 183 286 299 400 183 "},"P":{"ha":1025,"x_min":0,"x_max":0,"o":"m 74 0 l 74 968 l 589 968 b 996 664 814 968 996 915 b 589 350 996 401 803 350 l 324 350 l 324 0 m 324 535 l 579 535 b 743 661 651 535 743 544 b 579 785 743 776 650 785 l 324 785 "},"Þ":{"ha":1025,"x_min":0,"x_max":0,"o":"m 589 815 b 996 511 789 815 996 778 b 589 197 996 249 803 197 l 324 197 l 324 0 l 74 0 l 74 968 l 324 968 l 324 815 m 579 383 b 743 510 651 383 743 392 b 579 632 743 624 650 632 l 324 632 l 324 383 "},"Q":{"ha":1233,"x_min":0,"x_max":0,"o":"m 1068 -40 l 949 56 b 611 -24 858 4 744 -24 b 36 483 251 -24 36 175 b 611 992 36 792 251 992 b 1188 483 975 992 1188 793 b 1090 168 1188 363 1156 250 l 1188 86 m 611 167 b 753 197 660 167 710 176 l 564 358 l 696 483 l 900 310 b 935 483 924 357 935 415 b 611 801 935 679 821 801 b 288 483 400 801 288 679 b 611 167 288 288 400 167 "},"R":{"ha":1053,"x_min":0,"x_max":0,"o":"m 1028 0 l 740 0 l 538 350 l 324 350 l 324 0 l 74 0 l 74 968 l 589 968 b 996 664 814 968 996 915 b 790 374 996 489 910 408 m 324 785 l 324 535 l 579 535 b 743 661 651 535 743 544 b 579 785 743 776 650 785 "},"Ŕ":{"ha":1053,"x_min":0,"x_max":0,"o":"m 815 1251 l 585 1053 l 433 1053 l 590 1251 m 1028 0 l 740 0 l 538 350 l 324 350 l 324 0 l 74 0 l 74 968 l 589 968 b 996 664 814 968 996 915 b 790 374 996 489 910 408 m 324 785 l 324 535 l 579 535 b 743 661 651 535 743 544 b 579 785 743 776 650 785 "},"Ř":{"ha":1053,"x_min":0,"x_max":0,"o":"m 732 1251 l 510 1014 l 288 1251 l 447 1251 l 510 1182 l 574 1251 m 1028 0 l 740 0 l 538 350 l 324 350 l 324 0 l 74 0 l 74 968 l 589 968 b 996 664 814 968 996 915 b 790 374 996 489 910 408 m 324 785 l 324 535 l 579 535 b 743 661 651 535 743 544 b 579 785 743 776 650 785 "},"Ŗ":{"ha":1053,"x_min":0,"x_max":0,"o":"m 1028 0 l 740 0 l 538 350 l 324 350 l 324 0 l 74 0 l 74 968 l 589 968 b 996 664 814 968 996 915 b 790 374 996 489 910 408 m 324 785 l 324 535 l 579 535 b 743 661 651 535 743 544 b 579 785 743 776 650 785 m 325 -318 l 400 -71 l 618 -71 l 444 -318 "},"S":{"ha":1046,"x_min":0,"x_max":0,"o":"m 574 -24 b 19 281 218 -24 88 103 l 267 331 b 575 167 318 218 432 167 b 758 271 692 167 758 197 b 515 386 758 333 703 357 b 96 693 300 419 96 461 b 510 992 96 883 256 992 b 963 824 701 992 839 942 l 797 688 b 492 801 722 760 608 801 b 347 717 396 801 347 774 b 579 611 347 665 399 643 b 1010 296 753 581 1010 535 b 574 -24 1010 108 872 -24 "},"Ś":{"ha":1046,"x_min":0,"x_max":0,"o":"m 446 1053 l 603 1251 l 828 1251 l 597 1053 m 574 -24 b 19 281 218 -24 88 103 l 267 331 b 575 167 318 218 432 167 b 758 271 692 167 758 197 b 515 386 758 333 703 357 b 96 693 300 419 96 461 b 510 992 96 883 256 992 b 963 824 701 992 839 942 l 797 688 b 492 801 722 760 608 801 b 347 717 396 801 347 774 b 579 611 347 665 399 643 b 1010 296 753 581 1010 535 b 574 -24 1010 108 872 -24 "},"Š":{"ha":1046,"x_min":0,"x_max":0,"o":"m 522 1014 l 300 1251 l 460 1251 l 522 1182 l 586 1251 l 744 1251 m 574 -24 b 19 281 218 -24 88 103 l 267 331 b 575 167 318 218 432 167 b 758 271 692 167 758 197 b 515 386 758 333 703 357 b 96 693 300 419 96 461 b 510 992 96 883 256 992 b 963 824 701 992 839 942 l 797 688 b 492 801 722 760 608 801 b 347 717 396 801 347 774 b 579 611 347 665 399 643 b 1010 296 753 581 1010 535 b 574 -24 1010 108 872 -24 "},"Ş":{"ha":1046,"x_min":0,"x_max":0,"o":"m 560 -24 l 531 -56 b 596 -85 557 -61 579 -72 b 643 -192 629 -111 643 -150 b 471 -361 643 -286 574 -361 b 361 -329 451 -361 407 -358 l 425 -228 b 476 -243 443 -237 461 -243 b 522 -200 503 -243 522 -229 b 471 -143 522 -168 501 -151 b 372 -135 442 -135 410 -135 l 449 -18 b 19 281 186 10 79 125 l 267 331 b 575 167 318 218 432 167 b 758 271 692 167 758 197 b 515 386 758 333 703 357 b 96 693 300 419 96 461 b 510 992 96 883 256 992 b 963 824 701 992 839 942 l 797 688 b 492 801 722 760 608 801 b 347 717 396 801 347 774 b 579 611 347 665 399 643 b 1010 296 753 581 1010 535 b 574 -24 1010 108 872 -24 "},"Ș":{"ha":1046,"x_min":0,"x_max":0,"o":"m 574 -24 b 19 281 218 -24 88 103 l 267 331 b 575 167 318 218 432 167 b 758 271 692 167 758 197 b 515 386 758 333 703 357 b 96 693 300 419 96 461 b 510 992 96 883 256 992 b 963 824 701 992 839 942 l 797 688 b 492 801 722 760 608 801 b 347 717 396 801 347 774 b 579 611 347 665 399 643 b 1010 296 753 581 1010 535 b 574 -24 1010 108 872 -24 m 338 -318 l 413 -71 l 631 -71 l 457 -318 "},"ẞ":{"ha":1361,"x_min":0,"x_max":0,"o":"m 913 597 b 1325 296 1081 568 1325 532 b 869 -24 1325 107 1138 -24 b 394 210 650 -24 467 67 l 628 301 b 889 154 660 201 769 154 b 1075 268 1011 154 1075 197 b 847 381 1075 340 982 357 b 458 693 660 413 458 478 b 475 786 458 728 464 758 l 325 786 l 325 0 l 74 0 l 74 968 l 1176 968 l 1176 786 l 807 786 b 710 706 760 786 710 761 b 913 597 710 640 779 621 "},"T":{"ha":999,"x_min":0,"x_max":0,"o":"m 372 0 l 372 761 l 14 761 l 14 968 l 985 968 l 985 761 l 626 761 l 626 0 "},"Ŧ":{"ha":999,"x_min":0,"x_max":0,"o":"m 985 761 l 626 761 l 626 554 l 786 554 l 786 415 l 626 415 l 626 0 l 372 0 l 372 415 l 208 415 l 208 554 l 372 554 l 372 761 l 14 761 l 14 968 l 985 968 "},"Ť":{"ha":999,"x_min":0,"x_max":0,"o":"m 497 1014 l 275 1251 l 435 1251 l 497 1182 l 561 1251 l 719 1251 m 372 0 l 372 761 l 14 761 l 14 968 l 985 968 l 985 761 l 626 761 l 626 0 "},"Ţ":{"ha":999,"x_min":0,"x_max":0,"o":"m 14 968 l 985 968 l 985 761 l 626 761 l 626 0 l 557 0 l 506 -56 b 571 -85 532 -61 554 -72 b 618 -192 604 -111 618 -150 b 446 -361 618 -286 549 -361 b 336 -329 426 -361 382 -358 l 400 -228 b 451 -243 418 -237 436 -243 b 497 -200 478 -243 497 -229 b 446 -143 497 -168 476 -151 b 347 -135 417 -135 385 -135 l 435 0 l 372 0 l 372 761 l 14 761 "},"Ț":{"ha":999,"x_min":0,"x_max":0,"o":"m 372 0 l 372 761 l 14 761 l 14 968 l 985 968 l 985 761 l 626 761 l 626 0 m 313 -318 l 388 -71 l 606 -71 l 432 -318 "},"U":{"ha":1099,"x_min":0,"x_max":0,"o":"m 549 -24 b 64 350 228 -24 64 103 l 64 968 l 315 968 l 315 408 b 549 197 315 294 361 197 b 782 407 735 197 782 292 l 782 968 l 1035 968 l 1035 357 b 549 -24 1035 106 869 -24 "},"Ú":{"ha":1099,"x_min":0,"x_max":0,"o":"m 472 1053 l 629 1251 l 854 1251 l 624 1053 m 549 -24 b 64 350 228 -24 64 103 l 64 968 l 315 968 l 315 408 b 549 197 315 294 361 197 b 782 407 735 197 782 292 l 782 968 l 1035 968 l 1035 357 b 549 -24 1035 106 869 -24 "},"Ǔ":{"ha":1099,"x_min":0,"x_max":0,"o":"m 549 1014 l 326 1251 l 486 1251 l 549 1182 l 613 1251 l 771 1251 m 549 -24 b 64 350 228 -24 64 103 l 64 968 l 315 968 l 315 408 b 549 197 315 294 361 197 b 782 407 735 197 782 292 l 782 968 l 1035 968 l 1035 357 b 549 -24 1035 106 869 -24 "},"Û":{"ha":1099,"x_min":0,"x_max":0,"o":"m 326 1029 l 549 1283 l 771 1029 l 613 1029 l 549 1107 l 485 1029 m 549 -24 b 64 350 228 -24 64 103 l 64 968 l 315 968 l 315 408 b 549 197 315 294 361 197 b 782 407 735 197 782 292 l 782 968 l 1035 968 l 1035 357 b 549 -24 1035 106 869 -24 "},"Ü":{"ha":1099,"x_min":0,"x_max":0,"o":"m 286 1063 l 286 1251 l 514 1251 l 514 1063 m 583 1063 l 583 1251 l 811 1251 l 811 1063 m 549 -24 b 64 350 228 -24 64 103 l 64 968 l 315 968 l 315 408 b 549 197 315 294 361 197 b 782 407 735 197 782 292 l 782 968 l 1035 968 l 1035 357 b 549 -24 1035 106 869 -24 "},"Ǘ":{"ha":1099,"x_min":0,"x_max":0,"o":"m 472 1336 l 629 1535 l 854 1535 l 624 1336 m 286 1063 l 286 1251 l 514 1251 l 514 1063 m 583 1063 l 583 1251 l 811 1251 l 811 1063 m 549 -24 b 64 350 228 -24 64 103 l 64 968 l 315 968 l 315 408 b 549 197 315 294 361 197 b 782 407 735 197 782 292 l 782 968 l 1035 968 l 1035 357 b 549 -24 1035 106 869 -24 "},"Ǚ":{"ha":1099,"x_min":0,"x_max":0,"o":"m 549 1297 l 326 1535 l 486 1535 l 549 1465 l 613 1535 l 771 1535 m 286 1063 l 286 1251 l 514 1251 l 514 1063 m 583 1063 l 583 1251 l 811 1251 l 811 1063 m 549 -24 b 64 350 228 -24 64 103 l 64 968 l 315 968 l 315 408 b 549 197 315 294 361 197 b 782 407 735 197 782 292 l 782 968 l 1035 968 l 1035 357 b 549 -24 1035 106 869 -24 "},"Ǜ":{"ha":1099,"x_min":0,"x_max":0,"o":"m 471 1336 l 258 1535 l 481 1535 l 625 1336 m 286 1063 l 286 1251 l 514 1251 l 514 1063 m 583 1063 l 583 1251 l 811 1251 l 811 1063 m 549 -24 b 64 350 228 -24 64 103 l 64 968 l 315 968 l 315 408 b 549 197 315 294 361 197 b 782 407 735 197 782 292 l 782 968 l 1035 968 l 1035 357 b 549 -24 1035 106 869 -24 "},"Ǖ":{"ha":1099,"x_min":0,"x_max":0,"o":"m 356 1325 l 356 1446 l 742 1446 l 742 1325 m 286 1063 l 286 1251 l 514 1251 l 514 1063 m 583 1063 l 583 1251 l 811 1251 l 811 1063 m 549 -24 b 64 350 228 -24 64 103 l 64 968 l 315 968 l 315 408 b 549 197 315 294 361 197 b 782 407 735 197 782 292 l 782 968 l 1035 968 l 1035 357 b 549 -24 1035 106 869 -24 "},"Ụ":{"ha":1099,"x_min":0,"x_max":0,"o":"m 549 -24 b 64 350 228 -24 64 103 l 64 968 l 315 968 l 315 408 b 549 197 315 294 361 197 b 782 407 735 197 782 292 l 782 968 l 1035 968 l 1035 357 b 549 -24 1035 106 869 -24 m 408 -267 l 408 -78 l 689 -78 l 689 -267 "},"Ù":{"ha":1099,"x_min":0,"x_max":0,"o":"m 471 1053 l 258 1251 l 481 1251 l 625 1053 m 549 -24 b 64 350 228 -24 64 103 l 64 968 l 315 968 l 315 408 b 549 197 315 294 361 197 b 782 407 735 197 782 292 l 782 968 l 1035 968 l 1035 357 b 549 -24 1035 106 869 -24 "},"Ủ":{"ha":1099,"x_min":0,"x_max":0,"o":"m 488 1076 b 564 1117 526 1082 564 1083 b 465 1153 564 1153 517 1153 l 443 1153 l 443 1281 l 465 1281 b 710 1132 613 1281 710 1228 b 511 992 710 1022 592 1003 m 549 -24 b 64 350 228 -24 64 103 l 64 968 l 315 968 l 315 408 b 549 197 315 294 361 197 b 782 407 735 197 782 292 l 782 968 l 1035 968 l 1035 357 b 549 -24 1035 106 869 -24 "},"Ư":{"ha":1099,"x_min":0,"x_max":0,"o":"m 1092 968 l 1236 968 l 1236 921 b 1035 683 1236 806 1181 696 l 1035 357 b 549 -24 1035 106 869 -24 b 64 350 228 -24 64 103 l 64 968 l 315 968 l 315 408 b 549 197 315 294 361 197 b 782 407 735 197 782 292 l 782 968 l 1035 968 l 1035 822 b 1092 933 1078 833 1092 874 "},"Ứ":{"ha":1099,"x_min":0,"x_max":0,"o":"m 854 1251 l 624 1053 l 472 1053 l 629 1251 m 1092 968 l 1236 968 l 1236 921 b 1035 683 1236 806 1181 696 l 1035 357 b 549 -24 1035 106 869 -24 b 64 350 228 -24 64 103 l 64 968 l 315 968 l 315 408 b 549 197 315 294 361 197 b 782 407 735 197 782 292 l 782 968 l 1035 968 l 1035 822 b 1092 933 1078 833 1092 874 "},"Ự":{"ha":1099,"x_min":0,"x_max":0,"o":"m 1092 968 l 1236 968 l 1236 921 b 1035 683 1236 806 1181 696 l 1035 357 b 549 -24 1035 106 869 -24 b 64 350 228 -24 64 103 l 64 968 l 315 968 l 315 408 b 549 197 315 294 361 197 b 782 407 735 197 782 292 l 782 968 l 1035 968 l 1035 822 b 1092 933 1078 833 1092 874 m 408 -267 l 408 -78 l 689 -78 l 689 -267 "},"Ừ":{"ha":1099,"x_min":0,"x_max":0,"o":"m 625 1053 l 471 1053 l 258 1251 l 481 1251 m 1092 968 l 1236 968 l 1236 921 b 1035 683 1236 806 1181 696 l 1035 357 b 549 -24 1035 106 869 -24 b 64 350 228 -24 64 103 l 64 968 l 315 968 l 315 408 b 549 197 315 294 361 197 b 782 407 735 197 782 292 l 782 968 l 1035 968 l 1035 822 b 1092 933 1078 833 1092 874 "},"Ử":{"ha":1099,"x_min":0,"x_max":0,"o":"m 564 1117 b 465 1153 564 1153 517 1153 l 443 1153 l 443 1281 l 465 1281 b 710 1132 613 1281 710 1228 b 511 992 710 1022 592 1003 l 488 1076 b 564 1117 526 1082 564 1083 m 1092 968 l 1236 968 l 1236 921 b 1035 683 1236 806 1181 696 l 1035 357 b 549 -24 1035 106 869 -24 b 64 350 228 -24 64 103 l 64 968 l 315 968 l 315 408 b 549 197 315 294 361 197 b 782 407 735 197 782 292 l 782 968 l 1035 968 l 1035 822 b 1092 933 1078 833 1092 874 "},"Ữ":{"ha":1099,"x_min":0,"x_max":0,"o":"m 458 1126 b 429 1057 440 1126 429 1099 l 310 1057 b 468 1254 310 1178 371 1254 b 633 1171 558 1254 600 1171 b 661 1251 649 1171 661 1197 l 786 1251 b 631 1044 786 1115 726 1044 b 458 1126 526 1044 496 1126 m 1092 968 l 1236 968 l 1236 921 b 1035 683 1236 806 1181 696 l 1035 357 b 549 -24 1035 106 869 -24 b 64 350 228 -24 64 103 l 64 968 l 315 968 l 315 408 b 549 197 315 294 361 197 b 782 407 735 197 782 292 l 782 968 l 1035 968 l 1035 822 b 1092 933 1078 833 1092 874 "},"Ű":{"ha":1099,"x_min":0,"x_max":0,"o":"m 331 1015 l 488 1251 l 675 1251 l 482 1015 m 615 1015 l 772 1251 l 994 1251 l 767 1015 m 549 -24 b 64 350 228 -24 64 103 l 64 968 l 315 968 l 315 408 b 549 197 315 294 361 197 b 782 407 735 197 782 292 l 782 968 l 1035 968 l 1035 357 b 549 -24 1035 106 869 -24 "},"Ū":{"ha":1099,"x_min":0,"x_max":0,"o":"m 356 1042 l 356 1163 l 742 1163 l 742 1042 m 549 -24 b 64 350 228 -24 64 103 l 64 968 l 315 968 l 315 408 b 549 197 315 294 361 197 b 782 407 735 197 782 292 l 782 968 l 1035 968 l 1035 357 b 549 -24 1035 106 869 -24 "},"Ų":{"ha":1099,"x_min":0,"x_max":0,"o":"m 782 968 l 1035 968 l 1035 357 b 729 -7 1035 158 931 36 b 601 -139 686 -25 601 -76 b 646 -187 601 -178 622 -187 b 706 -149 675 -187 693 -172 l 814 -219 b 651 -315 782 -271 735 -315 b 478 -161 551 -315 478 -253 b 547 -24 478 -94 514 -50 b 64 350 228 -24 64 103 l 64 968 l 315 968 l 315 408 b 549 197 315 294 361 197 b 782 407 735 197 782 292 "},"Ů":{"ha":1099,"x_min":0,"x_max":0,"o":"m 549 879 b 364 1064 444 879 364 967 b 549 1249 364 1165 446 1249 b 733 1064 647 1249 733 1168 b 549 879 733 961 650 879 m 549 1003 b 610 1067 586 1003 610 1029 b 549 1125 610 1101 589 1125 b 489 1067 510 1125 489 1100 b 549 1003 489 1029 514 1003 m 549 -24 b 64 350 228 -24 64 103 l 64 968 l 315 968 l 315 408 b 549 197 315 294 361 197 b 782 407 735 197 782 292 l 782 968 l 1035 968 l 1035 357 b 549 -24 1035 106 869 -24 "},"Ũ":{"ha":1099,"x_min":0,"x_max":0,"o":"m 631 1044 b 458 1126 526 1044 496 1126 b 429 1057 440 1126 429 1099 l 310 1057 b 468 1254 310 1178 371 1254 b 633 1171 558 1254 600 1171 b 661 1251 649 1171 661 1197 l 786 1251 b 631 1044 786 1115 726 1044 m 549 -24 b 64 350 228 -24 64 103 l 64 968 l 315 968 l 315 408 b 549 197 315 294 361 197 b 782 407 735 197 782 292 l 782 968 l 1035 968 l 1035 357 b 549 -24 1035 106 869 -24 "},"V":{"ha":1100,"x_min":0,"x_max":0,"o":"m 822 968 l 1097 968 l 682 0 l 417 0 l 0 968 l 274 968 l 550 257 "},"W":{"ha":1597,"x_min":0,"x_max":0,"o":"m 1314 968 l 1594 968 l 1231 0 l 999 0 l 797 563 l 597 0 l 364 0 l 3 968 l 279 968 l 496 343 l 688 910 l 907 910 l 1101 342 "},"Ẃ":{"ha":1597,"x_min":0,"x_max":0,"o":"m 1104 1251 l 874 1053 l 722 1053 l 879 1251 m 1314 968 l 1594 968 l 1231 0 l 999 0 l 797 563 l 597 0 l 364 0 l 3 968 l 279 968 l 496 343 l 688 910 l 907 910 l 1101 342 "},"Ŵ":{"ha":1597,"x_min":0,"x_max":0,"o":"m 799 1107 l 735 1029 l 576 1029 l 799 1283 l 1021 1029 l 863 1029 m 1314 968 l 1594 968 l 1231 0 l 999 0 l 797 563 l 597 0 l 364 0 l 3 968 l 279 968 l 496 343 l 688 910 l 907 910 l 1101 342 "},"Ẅ":{"ha":1597,"x_min":0,"x_max":0,"o":"m 764 1251 l 764 1063 l 536 1063 l 536 1251 m 1061 1251 l 1061 1063 l 833 1063 l 833 1251 m 1314 968 l 1594 968 l 1231 0 l 999 0 l 797 563 l 597 0 l 364 0 l 3 968 l 279 968 l 496 343 l 688 910 l 907 910 l 1101 342 "},"Ẁ":{"ha":1597,"x_min":0,"x_max":0,"o":"m 875 1053 l 721 1053 l 508 1251 l 731 1251 m 1314 968 l 1594 968 l 1231 0 l 999 0 l 797 563 l 597 0 l 364 0 l 3 968 l 279 968 l 496 343 l 688 910 l 907 910 l 1101 342 "},"X":{"ha":1119,"x_min":0,"x_max":0,"o":"m 3 0 l 403 481 l 4 968 l 315 968 l 558 638 l 803 968 l 1113 968 l 714 481 l 1115 0 l 804 0 l 557 333 l 313 0 "},"Y":{"ha":1121,"x_min":0,"x_max":0,"o":"m 438 0 l 438 396 l -7 968 l 300 968 l 558 582 l 821 968 l 1126 968 l 689 396 l 689 0 "},"Ý":{"ha":1121,"x_min":0,"x_max":0,"o":"m 485 1053 l 642 1251 l 867 1251 l 636 1053 m 438 0 l 438 396 l -7 968 l 300 968 l 558 582 l 821 968 l 1126 968 l 689 396 l 689 0 "},"Ŷ":{"ha":1121,"x_min":0,"x_max":0,"o":"m 339 1029 l 561 1283 l 783 1029 l 625 1029 l 561 1107 l 497 1029 m 438 0 l 438 396 l -7 968 l 300 968 l 558 582 l 821 968 l 1126 968 l 689 396 l 689 0 "},"Ÿ":{"ha":1121,"x_min":0,"x_max":0,"o":"m 299 1063 l 299 1251 l 526 1251 l 526 1063 m 596 1063 l 596 1251 l 824 1251 l 824 1063 m 438 0 l 438 396 l -7 968 l 300 968 l 558 582 l 821 968 l 1126 968 l 689 396 l 689 0 "},"Ỵ":{"ha":1121,"x_min":0,"x_max":0,"o":"m 438 0 l 438 396 l -7 968 l 300 968 l 558 582 l 821 968 l 1126 968 l 689 396 l 689 0 m 421 -267 l 421 -78 l 701 -78 l 701 -267 "},"Ỳ":{"ha":1121,"x_min":0,"x_max":0,"o":"m 483 1053 l 271 1251 l 493 1251 l 638 1053 m 438 0 l 438 396 l -7 968 l 300 968 l 558 582 l 821 968 l 1126 968 l 689 396 l 689 0 "},"Ỷ":{"ha":1121,"x_min":0,"x_max":0,"o":"m 500 1076 b 576 1117 539 1082 576 1083 b 478 1153 576 1153 529 1153 l 456 1153 l 456 1281 l 478 1281 b 722 1132 625 1281 722 1228 b 524 992 722 1022 604 1003 m 438 0 l 438 396 l -7 968 l 300 968 l 558 582 l 821 968 l 1126 968 l 689 396 l 689 0 "},"Ỹ":{"ha":1121,"x_min":0,"x_max":0,"o":"m 643 1044 b 471 1126 539 1044 508 1126 b 442 1057 453 1126 442 1099 l 322 1057 b 481 1254 322 1178 383 1254 b 646 1171 571 1254 613 1171 b 674 1251 661 1171 674 1197 l 799 1251 b 643 1044 799 1115 739 1044 m 438 0 l 438 396 l -7 968 l 300 968 l 558 582 l 821 968 l 1126 968 l 689 396 l 689 0 "},"Z":{"ha":1044,"x_min":0,"x_max":0,"o":"m 388 183 l 1004 183 l 1004 0 l 32 0 l 32 161 l 656 785 l 72 785 l 72 968 l 1001 968 l 1001 800 "},"Ź":{"ha":1044,"x_min":0,"x_max":0,"o":"m 831 1251 l 600 1053 l 449 1053 l 606 1251 m 388 183 l 1004 183 l 1004 0 l 32 0 l 32 161 l 656 785 l 72 785 l 72 968 l 1001 968 l 1001 800 "},"Ž":{"ha":1044,"x_min":0,"x_max":0,"o":"m 747 1251 l 525 1014 l 303 1251 l 463 1251 l 525 1182 l 589 1251 m 388 183 l 1004 183 l 1004 0 l 32 0 l 32 161 l 656 785 l 72 785 l 72 968 l 1001 968 l 1001 800 "},"Ż":{"ha":1044,"x_min":0,"x_max":0,"o":"m 665 1251 l 665 1063 l 385 1063 l 385 1251 m 388 183 l 1004 183 l 1004 0 l 32 0 l 32 161 l 656 785 l 72 785 l 72 968 l 1001 968 l 1001 800 "},"a":{"ha":882,"x_min":0,"x_max":0,"o":"m 446 699 b 822 422 697 699 822 608 l 822 0 l 638 0 l 610 96 b 358 -14 553 18 460 -14 b 38 213 153 -14 38 67 b 318 421 38 349 139 421 l 576 421 b 429 538 576 482 565 538 b 150 467 340 538 247 519 l 71 625 b 446 699 192 676 314 699 m 400 135 b 574 272 511 135 563 189 l 386 272 b 283 208 325 272 283 256 b 400 135 283 161 328 135 "},"á":{"ha":882,"x_min":0,"x_max":0,"o":"m 753 968 l 522 769 l 371 769 l 528 968 m 446 699 b 822 422 697 699 822 608 l 822 0 l 638 0 l 610 96 b 358 -14 553 18 460 -14 b 38 213 153 -14 38 67 b 318 421 38 349 139 421 l 576 421 b 429 538 576 482 565 538 b 150 467 340 538 247 519 l 71 625 b 446 699 192 676 314 699 m 400 135 b 574 272 511 135 563 189 l 386 272 b 283 208 325 272 283 256 b 400 135 283 161 328 135 "},"ă":{"ha":882,"x_min":0,"x_max":0,"o":"m 447 754 b 193 968 268 754 193 831 l 363 968 b 447 874 363 889 406 874 b 532 968 492 874 532 889 l 701 968 b 447 754 701 821 617 754 m 446 699 b 822 422 697 699 822 608 l 822 0 l 638 0 l 610 96 b 358 -14 553 18 460 -14 b 38 213 153 -14 38 67 b 318 421 38 349 139 421 l 576 421 b 429 538 576 482 565 538 b 150 467 340 538 247 519 l 71 625 b 446 699 192 676 314 699 m 400 135 b 574 272 511 135 563 189 l 386 272 b 283 208 325 272 283 256 b 400 135 283 161 328 135 "},"ắ":{"ha":882,"x_min":0,"x_max":0,"o":"m 753 1251 l 522 1053 l 371 1053 l 528 1251 m 447 754 b 193 968 268 754 193 831 l 363 968 b 447 874 363 889 406 874 b 532 968 492 874 532 889 l 701 968 b 447 754 701 821 617 754 m 446 699 b 822 422 697 699 822 608 l 822 0 l 638 0 l 610 96 b 358 -14 553 18 460 -14 b 38 213 153 -14 38 67 b 318 421 38 349 139 421 l 576 421 b 429 538 576 482 565 538 b 150 467 340 538 247 519 l 71 625 b 446 699 192 676 314 699 m 400 135 b 574 272 511 135 563 189 l 386 272 b 283 208 325 272 283 256 b 400 135 283 161 328 135 "},"ặ":{"ha":882,"x_min":0,"x_max":0,"o":"m 447 754 b 193 968 268 754 193 831 l 363 968 b 447 874 363 889 406 874 b 532 968 492 874 532 889 l 701 968 b 447 754 701 821 617 754 m 446 699 b 822 422 697 699 822 608 l 822 0 l 638 0 l 610 96 b 358 -14 553 18 460 -14 b 38 213 153 -14 38 67 b 318 421 38 349 139 421 l 576 421 b 429 538 576 482 565 538 b 150 467 340 538 247 519 l 71 625 b 446 699 192 676 314 699 m 400 135 b 574 272 511 135 563 189 l 386 272 b 283 208 325 272 283 256 b 400 135 283 161 328 135 m 307 -267 l 307 -78 l 588 -78 l 588 -267 "},"ằ":{"ha":882,"x_min":0,"x_max":0,"o":"m 524 1053 l 369 1053 l 157 1251 l 379 1251 m 447 874 b 532 968 492 874 532 889 l 701 968 b 447 754 701 821 617 754 b 193 968 268 754 193 831 l 363 968 b 447 874 363 889 406 874 m 446 699 b 822 422 697 699 822 608 l 822 0 l 638 0 l 610 96 b 358 -14 553 18 460 -14 b 38 213 153 -14 38 67 b 318 421 38 349 139 421 l 576 421 b 429 538 576 482 565 538 b 150 467 340 538 247 519 l 71 625 b 446 699 192 676 314 699 m 400 135 b 574 272 511 135 563 189 l 386 272 b 283 208 325 272 283 256 b 400 135 283 161 328 135 "},"ẳ":{"ha":882,"x_min":0,"x_max":0,"o":"m 463 1117 b 364 1153 463 1153 415 1153 l 342 1153 l 342 1281 l 364 1281 b 608 1132 511 1281 608 1228 b 410 992 608 1022 490 1003 l 386 1076 b 463 1117 425 1082 463 1083 m 447 754 b 193 968 268 754 193 831 l 363 968 b 447 874 363 889 406 874 b 532 968 492 874 532 889 l 701 968 b 447 754 701 821 617 754 m 446 699 b 822 422 697 699 822 608 l 822 0 l 638 0 l 610 96 b 358 -14 553 18 460 -14 b 38 213 153 -14 38 67 b 318 421 38 349 139 421 l 576 421 b 429 538 576 482 565 538 b 150 467 340 538 247 519 l 71 625 b 446 699 192 676 314 699 m 400 135 b 574 272 511 135 563 189 l 386 272 b 283 208 325 272 283 256 b 400 135 283 161 328 135 "},"ẵ":{"ha":882,"x_min":0,"x_max":0,"o":"m 357 1126 b 328 1057 339 1126 328 1099 l 208 1057 b 367 1254 208 1178 269 1254 b 532 1171 457 1254 499 1171 b 560 1251 547 1171 560 1197 l 685 1251 b 529 1044 685 1115 625 1044 b 357 1126 425 1044 394 1126 m 447 754 b 193 968 268 754 193 831 l 363 968 b 447 874 363 889 406 874 b 532 968 492 874 532 889 l 701 968 b 447 754 701 821 617 754 m 446 699 b 822 422 697 699 822 608 l 822 0 l 638 0 l 610 96 b 358 -14 553 18 460 -14 b 38 213 153 -14 38 67 b 318 421 38 349 139 421 l 576 421 b 429 538 576 482 565 538 b 150 467 340 538 247 519 l 71 625 b 446 699 192 676 314 699 m 400 135 b 574 272 511 135 563 189 l 386 272 b 283 208 325 272 283 256 b 400 135 283 161 328 135 "},"ǎ":{"ha":882,"x_min":0,"x_max":0,"o":"m 669 968 l 447 731 l 225 968 l 385 968 l 447 899 l 511 968 m 446 699 b 822 422 697 699 822 608 l 822 0 l 638 0 l 610 96 b 358 -14 553 18 460 -14 b 38 213 153 -14 38 67 b 318 421 38 349 139 421 l 576 421 b 429 538 576 482 565 538 b 150 467 340 538 247 519 l 71 625 b 446 699 192 676 314 699 m 400 135 b 574 272 511 135 563 189 l 386 272 b 283 208 325 272 283 256 b 400 135 283 161 328 135 "},"â":{"ha":882,"x_min":0,"x_max":0,"o":"m 447 824 l 383 746 l 225 746 l 447 1000 l 669 746 l 511 746 m 446 699 b 822 422 697 699 822 608 l 822 0 l 638 0 l 610 96 b 358 -14 553 18 460 -14 b 38 213 153 -14 38 67 b 318 421 38 349 139 421 l 576 421 b 429 538 576 482 565 538 b 150 467 340 538 247 519 l 71 625 b 446 699 192 676 314 699 m 400 135 b 574 272 511 135 563 189 l 386 272 b 283 208 325 272 283 256 b 400 135 283 161 328 135 "},"ấ":{"ha":882,"x_min":0,"x_max":0,"o":"m 753 1228 l 522 1029 l 371 1029 l 528 1228 m 447 824 l 383 746 l 225 746 l 447 1000 l 669 746 l 511 746 m 446 699 b 822 422 697 699 822 608 l 822 0 l 638 0 l 610 96 b 358 -14 553 18 460 -14 b 38 213 153 -14 38 67 b 318 421 38 349 139 421 l 576 421 b 429 538 576 482 565 538 b 150 467 340 538 247 519 l 71 625 b 446 699 192 676 314 699 m 400 135 b 574 272 511 135 563 189 l 386 272 b 283 208 325 272 283 256 b 400 135 283 161 328 135 "},"ậ":{"ha":882,"x_min":0,"x_max":0,"o":"m 447 824 l 383 746 l 225 746 l 447 1000 l 669 746 l 511 746 m 446 699 b 822 422 697 699 822 608 l 822 0 l 638 0 l 610 96 b 358 -14 553 18 460 -14 b 38 213 153 -14 38 67 b 318 421 38 349 139 421 l 576 421 b 429 538 576 482 565 538 b 150 467 340 538 247 519 l 71 625 b 446 699 192 676 314 699 m 400 135 b 574 272 511 135 563 189 l 386 272 b 283 208 325 272 283 256 b 400 135 283 161 328 135 m 307 -267 l 307 -78 l 588 -78 l 588 -267 "},"ầ":{"ha":882,"x_min":0,"x_max":0,"o":"m 524 1029 l 369 1029 l 157 1228 l 379 1228 m 225 746 l 447 1000 l 669 746 l 511 746 l 447 824 l 383 746 m 446 699 b 822 422 697 699 822 608 l 822 0 l 638 0 l 610 96 b 358 -14 553 18 460 -14 b 38 213 153 -14 38 67 b 318 421 38 349 139 421 l 576 421 b 429 538 576 482 565 538 b 150 467 340 538 247 519 l 71 625 b 446 699 192 676 314 699 m 400 135 b 574 272 511 135 563 189 l 386 272 b 283 208 325 272 283 256 b 400 135 283 161 328 135 "},"ẩ":{"ha":882,"x_min":0,"x_max":0,"o":"m 383 746 l 225 746 l 421 969 b 410 968 417 969 414 968 l 386 1053 b 463 1093 425 1058 463 1060 b 364 1129 463 1129 415 1129 l 342 1129 l 342 1257 l 364 1257 b 608 1108 511 1257 608 1204 b 467 978 608 1022 536 992 l 669 746 l 511 746 l 447 824 m 446 699 b 822 422 697 699 822 608 l 822 0 l 638 0 l 610 96 b 358 -14 553 18 460 -14 b 38 213 153 -14 38 67 b 318 421 38 349 139 421 l 576 421 b 429 538 576 482 565 538 b 150 467 340 538 247 519 l 71 625 b 446 699 192 676 314 699 m 400 135 b 574 272 511 135 563 189 l 386 272 b 283 208 325 272 283 256 b 400 135 283 161 328 135 "},"ẫ":{"ha":882,"x_min":0,"x_max":0,"o":"m 357 1103 b 328 1033 339 1103 328 1075 l 208 1033 b 367 1231 208 1154 269 1231 b 532 1147 457 1231 499 1147 b 560 1228 547 1147 560 1174 l 685 1228 b 529 1021 685 1092 625 1021 b 357 1103 425 1021 394 1103 m 225 746 l 447 1000 l 669 746 l 511 746 l 447 824 l 383 746 m 446 699 b 822 422 697 699 822 608 l 822 0 l 638 0 l 610 96 b 358 -14 553 18 460 -14 b 38 213 153 -14 38 67 b 318 421 38 349 139 421 l 576 421 b 429 538 576 482 565 538 b 150 467 340 538 247 519 l 71 625 b 446 699 192 676 314 699 m 400 135 b 574 272 511 135 563 189 l 386 272 b 283 208 325 272 283 256 b 400 135 283 161 328 135 "},"ä":{"ha":882,"x_min":0,"x_max":0,"o":"m 413 968 l 413 779 l 185 779 l 185 968 m 710 968 l 710 779 l 482 779 l 482 968 m 446 699 b 822 422 697 699 822 608 l 822 0 l 638 0 l 610 96 b 358 -14 553 18 460 -14 b 38 213 153 -14 38 67 b 318 421 38 349 139 421 l 576 421 b 429 538 576 482 565 538 b 150 467 340 538 247 519 l 71 625 b 446 699 192 676 314 699 m 400 135 b 574 272 511 135 563 189 l 386 272 b 283 208 325 272 283 256 b 400 135 283 161 328 135 "},"ạ":{"ha":882,"x_min":0,"x_max":0,"o":"m 446 699 b 822 422 697 699 822 608 l 822 0 l 638 0 l 610 96 b 358 -14 553 18 460 -14 b 38 213 153 -14 38 67 b 318 421 38 349 139 421 l 576 421 b 429 538 576 482 565 538 b 150 467 340 538 247 519 l 71 625 b 446 699 192 676 314 699 m 400 135 b 574 272 511 135 563 189 l 386 272 b 283 208 325 272 283 256 b 400 135 283 161 328 135 m 307 -267 l 307 -78 l 588 -78 l 588 -267 "},"à":{"ha":882,"x_min":0,"x_max":0,"o":"m 524 769 l 369 769 l 157 968 l 379 968 m 446 699 b 822 422 697 699 822 608 l 822 0 l 638 0 l 610 96 b 358 -14 553 18 460 -14 b 38 213 153 -14 38 67 b 318 421 38 349 139 421 l 576 421 b 429 538 576 482 565 538 b 150 467 340 538 247 519 l 71 625 b 446 699 192 676 314 699 m 400 135 b 574 272 511 135 563 189 l 386 272 b 283 208 325 272 283 256 b 400 135 283 161 328 135 "},"ả":{"ha":882,"x_min":0,"x_max":0,"o":"m 463 833 b 364 869 463 869 415 869 l 342 869 l 342 997 l 364 997 b 608 849 511 997 608 944 b 410 708 608 739 490 719 l 386 793 b 463 833 425 799 463 800 m 446 699 b 822 422 697 699 822 608 l 822 0 l 638 0 l 610 96 b 358 -14 553 18 460 -14 b 38 213 153 -14 38 67 b 318 421 38 349 139 421 l 576 421 b 429 538 576 482 565 538 b 150 467 340 538 247 519 l 71 625 b 446 699 192 676 314 699 m 400 135 b 574 272 511 135 563 189 l 386 272 b 283 208 325 272 283 256 b 400 135 283 161 328 135 "},"ā":{"ha":882,"x_min":0,"x_max":0,"o":"m 640 879 l 640 758 l 254 758 l 254 879 m 446 699 b 822 422 697 699 822 608 l 822 0 l 638 0 l 610 96 b 358 -14 553 18 460 -14 b 38 213 153 -14 38 67 b 318 421 38 349 139 421 l 576 421 b 429 538 576 482 565 538 b 150 467 340 538 247 519 l 71 625 b 446 699 192 676 314 699 m 400 135 b 574 272 511 135 563 189 l 386 272 b 283 208 325 272 283 256 b 400 135 283 161 328 135 "},"ą":{"ha":882,"x_min":0,"x_max":0,"o":"m 889 -219 b 726 -315 857 -271 810 -315 b 553 -161 626 -315 553 -253 b 658 0 553 -68 622 -19 l 638 0 l 610 96 b 358 -14 553 18 460 -14 b 38 213 153 -14 38 67 b 318 421 38 349 139 421 l 576 421 b 429 538 576 482 565 538 b 150 467 340 538 247 519 l 71 625 b 446 699 192 676 314 699 b 822 422 697 699 822 608 l 822 0 b 676 -139 796 -7 676 -64 b 721 -187 676 -178 697 -187 b 781 -149 750 -187 768 -172 m 400 135 b 574 272 511 135 563 189 l 386 272 b 283 208 325 272 283 256 b 400 135 283 161 328 135 "},"å":{"ha":882,"x_min":0,"x_max":0,"o":"m 447 722 b 275 894 350 722 275 804 b 447 1067 275 989 351 1067 b 619 894 539 1067 619 992 b 447 722 619 799 542 722 m 447 956 b 388 897 408 956 388 931 b 447 833 388 860 413 833 b 508 897 485 833 508 860 b 447 956 508 932 488 956 m 446 699 b 822 422 697 699 822 608 l 822 0 l 638 0 l 610 96 b 358 -14 553 18 460 -14 b 38 213 153 -14 38 67 b 318 421 38 349 139 421 l 576 421 b 429 538 576 482 565 538 b 150 467 340 538 247 519 l 71 625 b 446 699 192 676 314 699 m 400 135 b 574 272 511 135 563 189 l 386 272 b 283 208 325 272 283 256 b 400 135 283 161 328 135 "},"ã":{"ha":882,"x_min":0,"x_max":0,"o":"m 357 843 b 328 774 339 843 328 815 l 208 774 b 367 971 208 894 269 971 b 532 888 457 971 499 888 b 560 968 547 888 560 914 l 685 968 b 529 761 685 832 625 761 b 357 843 425 761 394 843 m 446 699 b 822 422 697 699 822 608 l 822 0 l 638 0 l 610 96 b 358 -14 553 18 460 -14 b 38 213 153 -14 38 67 b 318 421 38 349 139 421 l 576 421 b 429 538 576 482 565 538 b 150 467 340 538 247 519 l 71 625 b 446 699 192 676 314 699 m 400 135 b 574 272 511 135 563 189 l 386 272 b 283 208 325 272 283 256 b 400 135 283 161 328 135 "},"æ":{"ha":1431,"x_min":0,"x_max":0,"o":"m 1392 339 b 1388 272 1392 324 1390 301 l 825 272 b 1024 172 839 211 906 172 b 1271 217 1104 172 1204 189 l 1354 53 b 1024 -14 1244 8 1139 -14 b 674 113 871 -14 749 32 b 386 -14 606 22 504 -14 b 38 213 153 -14 38 67 b 318 421 38 349 139 421 l 576 421 b 429 538 576 482 565 538 b 150 467 340 538 247 519 l 71 625 b 446 699 192 676 314 699 b 735 625 576 699 672 674 b 994 699 804 672 893 699 b 1392 339 1244 699 1392 556 m 1160 421 b 1000 538 1158 492 1097 538 b 824 421 910 538 838 493 m 400 135 b 574 272 511 135 563 189 l 386 272 b 283 208 325 272 283 256 b 400 135 283 161 328 135 "},"b":{"ha":968,"x_min":0,"x_max":0,"o":"m 533 699 b 928 346 768 699 928 558 b 524 -14 928 126 767 -14 b 293 72 435 -14 354 15 l 293 0 l 68 0 l 68 968 l 293 968 l 293 610 b 533 699 340 663 428 699 m 499 158 b 703 344 618 158 703 235 b 499 529 703 454 618 529 b 293 344 378 529 293 456 b 499 158 293 232 378 158 "},"c":{"ha":899,"x_min":0,"x_max":0,"o":"m 468 -14 b 36 340 201 -14 36 133 b 467 699 36 547 196 699 b 868 493 671 699 792 628 l 660 415 b 467 513 629 471 564 513 b 260 340 336 513 260 439 b 467 172 260 242 339 172 b 657 271 561 172 633 208 l 860 193 b 468 -14 800 60 660 -14 "},"ć":{"ha":899,"x_min":0,"x_max":0,"o":"m 346 769 l 503 968 l 728 968 l 497 769 m 468 -14 b 36 340 201 -14 36 133 b 467 699 36 547 196 699 b 868 493 671 699 792 628 l 660 415 b 467 513 629 471 564 513 b 260 340 336 513 260 439 b 467 172 260 242 339 172 b 657 271 561 172 633 208 l 860 193 b 468 -14 800 60 660 -14 "},"č":{"ha":899,"x_min":0,"x_max":0,"o":"m 422 731 l 200 968 l 360 968 l 422 899 l 486 968 l 644 968 m 468 -14 b 36 340 201 -14 36 133 b 467 699 36 547 196 699 b 868 493 671 699 792 628 l 660 415 b 467 513 629 471 564 513 b 260 340 336 513 260 439 b 467 172 260 242 339 172 b 657 271 561 172 633 208 l 860 193 b 468 -14 800 60 660 -14 "},"ç":{"ha":899,"x_min":0,"x_max":0,"o":"m 467 172 b 657 271 561 172 633 208 l 860 193 b 469 -14 800 60 660 -14 l 431 -56 b 496 -85 457 -61 479 -72 b 543 -192 529 -111 543 -150 b 371 -361 543 -286 474 -361 b 261 -329 351 -361 307 -358 l 325 -228 b 376 -243 343 -237 361 -243 b 422 -200 403 -243 422 -229 b 371 -143 422 -168 401 -151 b 272 -135 342 -135 310 -135 l 357 -4 b 36 340 156 31 36 164 b 467 699 36 547 196 699 b 868 493 671 699 792 628 l 660 415 b 467 513 629 471 564 513 b 260 340 336 513 260 439 b 467 172 260 242 339 172 "},"ċ":{"ha":899,"x_min":0,"x_max":0,"o":"m 282 779 l 282 968 l 563 968 l 563 779 m 468 -14 b 36 340 201 -14 36 133 b 467 699 36 547 196 699 b 868 493 671 699 792 628 l 660 415 b 467 513 629 471 564 513 b 260 340 336 513 260 439 b 467 172 260 242 339 172 b 657 271 561 172 633 208 l 860 193 b 468 -14 800 60 660 -14 "},"d":{"ha":968,"x_min":0,"x_max":0,"o":"m 672 968 l 897 968 l 897 0 l 672 0 l 672 72 b 442 -14 611 15 531 -14 b 38 346 199 -14 38 126 b 432 699 38 558 197 699 b 672 610 538 699 625 663 m 467 158 b 672 344 588 158 672 232 b 467 529 672 456 588 529 b 263 344 347 529 263 454 b 467 158 263 235 347 158 "},"ð":{"ha":1001,"x_min":0,"x_max":0,"o":"m 964 854 l 860 833 b 947 526 922 751 947 649 b 440 -8 947 188 753 -8 b 38 310 188 -8 38 128 b 513 685 38 532 257 685 b 742 615 597 685 676 664 b 667 794 738 688 714 749 l 351 732 l 328 814 l 563 860 b 357 896 508 881 439 893 l 376 1031 b 790 904 567 1017 700 974 l 943 933 m 467 153 b 711 365 644 153 711 254 b 510 532 711 457 639 532 b 264 321 346 532 264 432 b 467 153 264 226 318 153 "},"ď":{"ha":1094,"x_min":0,"x_max":0,"o":"m 672 968 l 897 968 l 897 0 l 672 0 l 672 72 b 442 -14 611 15 531 -14 b 38 346 199 -14 38 126 b 432 699 38 558 197 699 b 672 610 538 699 625 663 m 1032 968 l 1251 968 l 1076 643 l 956 643 m 467 158 b 672 344 588 158 672 232 b 467 529 672 456 588 529 b 263 344 347 529 263 454 b 467 158 263 235 347 158 "},"đ":{"ha":968,"x_min":0,"x_max":0,"o":"m 1075 899 l 1075 760 l 897 760 l 897 0 l 672 0 l 672 72 b 442 -14 611 15 531 -14 b 38 346 199 -14 38 126 b 432 699 38 558 197 699 b 672 610 538 699 625 663 l 672 760 l 497 760 l 497 899 l 672 899 l 672 968 l 897 968 l 897 899 m 467 158 b 672 344 588 158 672 232 b 467 529 672 456 588 529 b 263 344 347 529 263 454 b 467 158 263 235 347 158 "},"e":{"ha":881,"x_min":0,"x_max":0,"o":"m 842 339 b 838 272 842 324 840 301 l 275 272 b 474 172 289 211 356 172 b 721 217 554 172 654 189 l 804 53 b 474 -14 694 8 589 -14 b 36 339 208 -14 36 126 b 444 699 36 550 206 699 b 842 339 694 699 842 556 m 610 421 b 450 518 606 481 546 518 b 275 421 361 518 290 481 "},"é":{"ha":881,"x_min":0,"x_max":0,"o":"m 751 968 l 521 769 l 369 769 l 526 968 m 842 339 b 838 272 842 324 840 301 l 275 272 b 474 172 289 211 356 172 b 721 217 554 172 654 189 l 804 53 b 474 -14 694 8 589 -14 b 36 339 208 -14 36 126 b 444 699 36 550 206 699 b 842 339 694 699 842 556 m 610 421 b 450 518 606 481 546 518 b 275 421 361 518 290 481 "},"ě":{"ha":881,"x_min":0,"x_max":0,"o":"m 668 968 l 446 731 l 224 968 l 383 968 l 446 899 l 510 968 m 842 339 b 838 272 842 324 840 301 l 275 272 b 474 172 289 211 356 172 b 721 217 554 172 654 189 l 804 53 b 474 -14 694 8 589 -14 b 36 339 208 -14 36 126 b 444 699 36 550 206 699 b 842 339 694 699 842 556 m 610 421 b 450 518 606 481 546 518 b 275 421 361 518 290 481 "},"ê":{"ha":881,"x_min":0,"x_max":0,"o":"m 446 824 l 382 746 l 224 746 l 446 1000 l 668 746 l 510 746 m 842 339 b 838 272 842 324 840 301 l 275 272 b 474 172 289 211 356 172 b 721 217 554 172 654 189 l 804 53 b 474 -14 694 8 589 -14 b 36 339 208 -14 36 126 b 444 699 36 550 206 699 b 842 339 694 699 842 556 m 610 421 b 450 518 606 481 546 518 b 275 421 361 518 290 481 "},"ế":{"ha":881,"x_min":0,"x_max":0,"o":"m 751 1228 l 521 1029 l 369 1029 l 526 1228 m 446 824 l 382 746 l 224 746 l 446 1000 l 668 746 l 510 746 m 842 339 b 838 272 842 324 840 301 l 275 272 b 474 172 289 211 356 172 b 721 217 554 172 654 189 l 804 53 b 474 -14 694 8 589 -14 b 36 339 208 -14 36 126 b 444 699 36 550 206 699 b 842 339 694 699 842 556 m 610 421 b 450 518 606 481 546 518 b 275 421 361 518 290 481 "},"ệ":{"ha":881,"x_min":0,"x_max":0,"o":"m 446 824 l 382 746 l 224 746 l 446 1000 l 668 746 l 510 746 m 842 339 b 838 272 842 324 840 301 l 275 272 b 474 172 289 211 356 172 b 721 217 554 172 654 189 l 804 53 b 474 -14 694 8 589 -14 b 36 339 208 -14 36 126 b 444 699 36 550 206 699 b 842 339 694 699 842 556 m 610 421 b 450 518 606 481 546 518 b 275 421 361 518 290 481 m 318 -267 l 318 -78 l 599 -78 l 599 -267 "},"ề":{"ha":881,"x_min":0,"x_max":0,"o":"m 522 1029 l 368 1029 l 156 1228 l 378 1228 m 224 746 l 446 1000 l 668 746 l 510 746 l 446 824 l 382 746 m 842 339 b 838 272 842 324 840 301 l 275 272 b 474 172 289 211 356 172 b 721 217 554 172 654 189 l 804 53 b 474 -14 694 8 589 -14 b 36 339 208 -14 36 126 b 444 699 36 550 206 699 b 842 339 694 699 842 556 m 610 421 b 450 518 606 481 546 518 b 275 421 361 518 290 481 "},"ể":{"ha":881,"x_min":0,"x_max":0,"o":"m 382 746 l 224 746 l 419 969 b 408 968 415 969 413 968 l 385 1053 b 461 1093 424 1058 461 1060 b 363 1129 461 1129 414 1129 l 340 1129 l 340 1257 l 363 1257 b 607 1108 510 1257 607 1204 b 465 978 607 1022 535 992 l 668 746 l 510 746 l 446 824 m 842 339 b 838 272 842 324 840 301 l 275 272 b 474 172 289 211 356 172 b 721 217 554 172 654 189 l 804 53 b 474 -14 694 8 589 -14 b 36 339 208 -14 36 126 b 444 699 36 550 206 699 b 842 339 694 699 842 556 m 610 421 b 450 518 606 481 546 518 b 275 421 361 518 290 481 "},"ễ":{"ha":881,"x_min":0,"x_max":0,"o":"m 356 1103 b 326 1033 338 1103 326 1075 l 207 1033 b 365 1231 207 1154 268 1231 b 531 1147 456 1231 497 1147 b 558 1228 546 1147 558 1174 l 683 1228 b 528 1021 683 1092 624 1021 b 356 1103 424 1021 393 1103 m 224 746 l 446 1000 l 668 746 l 510 746 l 446 824 l 382 746 m 842 339 b 838 272 842 324 840 301 l 275 272 b 474 172 289 211 356 172 b 721 217 554 172 654 189 l 804 53 b 474 -14 694 8 589 -14 b 36 339 208 -14 36 126 b 444 699 36 550 206 699 b 842 339 694 699 842 556 m 610 421 b 450 518 606 481 546 518 b 275 421 361 518 290 481 "},"ë":{"ha":881,"x_min":0,"x_max":0,"o":"m 411 968 l 411 779 l 183 779 l 183 968 m 708 968 l 708 779 l 481 779 l 481 968 m 842 339 b 838 272 842 324 840 301 l 275 272 b 474 172 289 211 356 172 b 721 217 554 172 654 189 l 804 53 b 474 -14 694 8 589 -14 b 36 339 208 -14 36 126 b 444 699 36 550 206 699 b 842 339 694 699 842 556 m 610 421 b 450 518 606 481 546 518 b 275 421 361 518 290 481 "},"ė":{"ha":881,"x_min":0,"x_max":0,"o":"m 586 968 l 586 779 l 306 779 l 306 968 m 842 339 b 838 272 842 324 840 301 l 275 272 b 474 172 289 211 356 172 b 721 217 554 172 654 189 l 804 53 b 474 -14 694 8 589 -14 b 36 339 208 -14 36 126 b 444 699 36 550 206 699 b 842 339 694 699 842 556 m 610 421 b 450 518 606 481 546 518 b 275 421 361 518 290 481 "},"ẹ":{"ha":881,"x_min":0,"x_max":0,"o":"m 842 339 b 838 272 842 324 840 301 l 275 272 b 474 172 289 211 356 172 b 721 217 554 172 654 189 l 804 53 b 474 -14 694 8 589 -14 b 36 339 208 -14 36 126 b 444 699 36 550 206 699 b 842 339 694 699 842 556 m 610 421 b 450 518 606 481 546 518 b 275 421 361 518 290 481 m 318 -267 l 318 -78 l 599 -78 l 599 -267 "},"è":{"ha":881,"x_min":0,"x_max":0,"o":"m 522 769 l 368 769 l 156 968 l 378 968 m 842 339 b 838 272 842 324 840 301 l 275 272 b 474 172 289 211 356 172 b 721 217 554 172 654 189 l 804 53 b 474 -14 694 8 589 -14 b 36 339 208 -14 36 126 b 444 699 36 550 206 699 b 842 339 694 699 842 556 m 610 421 b 450 518 606 481 546 518 b 275 421 361 518 290 481 "},"ẻ":{"ha":881,"x_min":0,"x_max":0,"o":"m 461 833 b 363 869 461 869 414 869 l 340 869 l 340 997 l 363 997 b 607 849 510 997 607 944 b 408 708 607 739 489 719 l 385 793 b 461 833 424 799 461 800 m 842 339 b 838 272 842 324 840 301 l 275 272 b 474 172 289 211 356 172 b 721 217 554 172 654 189 l 804 53 b 474 -14 694 8 589 -14 b 36 339 208 -14 36 126 b 444 699 36 550 206 699 b 842 339 694 699 842 556 m 610 421 b 450 518 606 481 546 518 b 275 421 361 518 290 481 "},"ē":{"ha":881,"x_min":0,"x_max":0,"o":"m 639 879 l 639 758 l 253 758 l 253 879 m 842 339 b 838 272 842 324 840 301 l 275 272 b 474 172 289 211 356 172 b 721 217 554 172 654 189 l 804 53 b 474 -14 694 8 589 -14 b 36 339 208 -14 36 126 b 444 699 36 550 206 699 b 842 339 694 699 842 556 m 610 421 b 450 518 606 481 546 518 b 275 421 361 518 290 481 "},"ę":{"ha":881,"x_min":0,"x_max":0,"o":"m 842 339 b 838 272 842 324 840 301 l 275 272 b 474 172 289 211 356 172 b 721 217 554 172 654 189 l 804 53 b 619 -1 742 28 681 10 b 478 -139 586 -12 478 -68 b 522 -187 478 -178 499 -187 b 582 -149 551 -187 569 -172 l 690 -219 b 528 -315 658 -271 611 -315 b 354 -161 428 -315 354 -253 b 438 -12 354 -85 401 -37 b 36 339 193 -1 36 136 b 444 699 36 550 206 699 b 842 339 694 699 842 556 m 610 421 b 450 518 606 481 546 518 b 275 421 361 518 290 481 "},"ẽ":{"ha":881,"x_min":0,"x_max":0,"o":"m 356 843 b 326 774 338 843 326 815 l 207 774 b 365 971 207 894 268 971 b 531 888 456 971 497 888 b 558 968 546 888 558 914 l 683 968 b 528 761 683 832 624 761 b 356 843 424 761 393 843 m 842 339 b 838 272 842 324 840 301 l 275 272 b 474 172 289 211 356 172 b 721 217 554 172 654 189 l 804 53 b 474 -14 694 8 589 -14 b 36 339 208 -14 36 126 b 444 699 36 550 206 699 b 842 339 694 699 842 556 m 610 421 b 450 518 606 481 546 518 b 275 421 361 518 290 481 "},"f":{"ha":617,"x_min":0,"x_max":0,"o":"m 182 0 l 182 528 l 24 528 l 24 685 l 183 685 l 183 736 b 451 982 183 874 240 982 b 624 953 517 982 563 974 l 551 799 b 478 817 521 811 490 817 b 407 731 432 817 407 788 l 407 685 l 596 685 l 596 528 l 407 528 l 407 0 "},"g":{"ha":854,"x_min":0,"x_max":0,"o":"m 558 93 b 825 -83 735 79 825 31 b 433 -312 825 -226 676 -312 b 22 -93 189 -312 22 -225 b 28 -50 22 -79 28 -53 l 121 11 b 46 143 71 43 46 85 b 119 283 46 197 69 244 b 56 438 79 325 56 378 b 407 699 56 588 208 699 b 600 658 479 699 544 685 l 735 757 l 831 615 l 732 547 b 764 432 753 513 764 474 b 417 179 764 282 625 179 b 243 207 353 179 294 189 b 228 175 233 197 228 186 b 558 93 228 129 269 115 m 410 544 b 282 442 335 544 282 503 b 413 333 282 378 335 333 b 540 442 486 333 540 378 b 410 544 540 503 488 544 m 442 -162 b 600 -114 549 -162 600 -149 b 371 -53 600 -78 551 -71 b 276 -40 336 -50 306 -46 l 240 -85 b 239 -93 239 -87 239 -92 b 442 -162 239 -146 350 -162 "},"ğ":{"ha":854,"x_min":0,"x_max":0,"o":"m 417 754 b 163 968 238 754 163 831 l 332 968 b 417 874 332 889 375 874 b 501 968 461 874 501 889 l 671 968 b 417 754 671 821 586 754 m 558 93 b 825 -83 735 79 825 31 b 433 -312 825 -226 676 -312 b 22 -93 189 -312 22 -225 b 28 -50 22 -79 28 -53 l 121 11 b 46 143 71 43 46 85 b 119 283 46 197 69 244 b 56 438 79 325 56 378 b 407 699 56 588 208 699 b 600 658 479 699 544 685 l 735 757 l 831 615 l 732 547 b 764 432 753 513 764 474 b 417 179 764 282 625 179 b 243 207 353 179 294 189 b 228 175 233 197 228 186 b 558 93 228 129 269 115 m 410 544 b 282 442 335 544 282 503 b 413 333 282 378 335 333 b 540 442 486 333 540 378 b 410 544 540 503 488 544 m 442 -162 b 600 -114 549 -162 600 -149 b 371 -53 600 -78 551 -71 b 276 -40 336 -50 306 -46 l 240 -85 b 239 -93 239 -87 239 -92 b 442 -162 239 -146 350 -162 "},"ģ":{"ha":854,"x_min":0,"x_max":0,"o":"m 564 986 l 488 764 l 271 764 l 444 986 m 558 93 b 825 -83 735 79 825 31 b 433 -312 825 -226 676 -312 b 22 -93 189 -312 22 -225 b 28 -50 22 -79 28 -53 l 121 11 b 46 143 71 43 46 85 b 119 283 46 197 69 244 b 56 438 79 325 56 378 b 407 699 56 588 208 699 b 600 658 479 699 544 685 l 735 757 l 831 615 l 732 547 b 764 432 753 513 764 474 b 417 179 764 282 625 179 b 243 207 353 179 294 189 b 228 175 233 197 228 186 b 558 93 228 129 269 115 m 410 544 b 282 442 335 544 282 503 b 413 333 282 378 335 333 b 540 442 486 333 540 378 b 410 544 540 503 488 544 m 442 -162 b 600 -114 549 -162 600 -149 b 371 -53 600 -78 551 -71 b 276 -40 336 -50 306 -46 l 240 -85 b 239 -93 239 -87 239 -92 b 442 -162 239 -146 350 -162 "},"ġ":{"ha":854,"x_min":0,"x_max":0,"o":"m 557 968 l 557 779 l 276 779 l 276 968 m 558 93 b 825 -83 735 79 825 31 b 433 -312 825 -226 676 -312 b 22 -93 189 -312 22 -225 b 28 -50 22 -79 28 -53 l 121 11 b 46 143 71 43 46 85 b 119 283 46 197 69 244 b 56 438 79 325 56 378 b 407 699 56 588 208 699 b 600 658 479 699 544 685 l 735 757 l 831 615 l 732 547 b 764 432 753 513 764 474 b 417 179 764 282 625 179 b 243 207 353 179 294 189 b 228 175 233 197 228 186 b 558 93 228 129 269 115 m 410 544 b 282 442 335 544 282 503 b 413 333 282 378 335 333 b 540 442 486 333 540 378 b 410 544 540 503 488 544 m 442 -162 b 600 -114 549 -162 600 -149 b 371 -53 600 -78 551 -71 b 276 -40 336 -50 306 -46 l 240 -85 b 239 -93 239 -87 239 -92 b 442 -162 239 -146 350 -162 "},"h":{"ha":913,"x_min":0,"x_max":0,"o":"m 543 699 b 851 454 729 699 851 607 l 851 0 l 625 0 l 625 365 b 475 526 625 472 574 526 b 294 321 360 526 294 456 l 294 0 l 68 0 l 68 968 l 294 968 l 294 594 b 543 699 347 661 429 699 "},"ħ":{"ha":913,"x_min":0,"x_max":0,"o":"m 543 699 b 851 454 729 699 851 607 l 851 0 l 625 0 l 625 365 b 475 526 625 472 574 526 b 294 321 360 526 294 456 l 294 0 l 68 0 l 68 750 l -10 750 l -10 889 l 68 889 l 68 968 l 294 968 l 294 889 l 568 889 l 568 750 l 294 750 l 294 594 b 543 699 347 661 429 699 "},"i":{"ha":367,"x_min":0,"x_max":0,"o":"m 43 779 l 43 968 l 324 968 l 324 779 m 68 0 l 68 685 l 297 685 l 297 0 "},"ı":{"ha":367,"x_min":0,"x_max":0,"o":"m 68 0 l 68 685 l 297 685 l 297 0 "},"í":{"ha":367,"x_min":0,"x_max":0,"o":"m 107 769 l 264 968 l 489 968 l 258 769 m 68 0 l 68 685 l 297 685 l 297 0 "},"ǐ":{"ha":367,"x_min":0,"x_max":0,"o":"m 183 731 l -39 968 l 121 968 l 183 899 l 247 968 l 406 968 m 68 0 l 68 685 l 297 685 l 297 0 "},"î":{"ha":367,"x_min":0,"x_max":0,"o":"m -39 746 l 183 1000 l 406 746 l 247 746 l 183 824 l 119 746 m 68 0 l 68 685 l 297 685 l 297 0 "},"ï":{"ha":367,"x_min":0,"x_max":0,"o":"m -79 779 l -79 968 l 149 968 l 149 779 m 218 779 l 218 968 l 446 968 l 446 779 m 68 0 l 68 685 l 297 685 l 297 0 "},"ị":{"ha":367,"x_min":0,"x_max":0,"o":"m 43 779 l 43 968 l 324 968 l 324 779 m 68 0 l 68 685 l 297 685 l 297 0 m 43 -267 l 43 -78 l 324 -78 l 324 -267 "},"ì":{"ha":367,"x_min":0,"x_max":0,"o":"m 106 769 l -107 968 l 115 968 l 260 769 m 68 0 l 68 685 l 297 685 l 297 0 "},"ỉ":{"ha":367,"x_min":0,"x_max":0,"o":"m 122 793 b 199 833 161 799 199 800 b 100 869 199 869 151 869 l 78 869 l 78 997 l 100 997 b 344 849 247 997 344 944 b 146 708 344 739 226 719 m 68 0 l 68 685 l 297 685 l 297 0 "},"ī":{"ha":367,"x_min":0,"x_max":0,"o":"m -10 758 l -10 879 l 376 879 l 376 758 m 68 0 l 68 685 l 297 685 l 297 0 "},"į":{"ha":367,"x_min":0,"x_max":0,"o":"m 324 968 l 324 779 l 43 779 l 43 968 m 364 -219 b 201 -315 332 -271 285 -315 b 28 -161 101 -315 28 -253 b 133 0 28 -68 97 -19 l 68 0 l 68 685 l 297 685 l 297 0 b 151 -139 271 -7 151 -64 b 196 -187 151 -178 172 -187 b 256 -149 225 -187 243 -172 "},"ĩ":{"ha":367,"x_min":0,"x_max":0,"o":"m 265 761 b 93 843 161 761 131 843 b 64 774 75 843 64 815 l -56 774 b 103 971 -56 894 6 971 b 268 888 193 971 235 888 b 296 968 283 888 296 914 l 421 968 b 265 761 421 832 361 761 m 68 0 l 68 685 l 297 685 l 297 0 "},"j":{"ha":369,"x_min":0,"x_max":0,"o":"m 46 779 l 46 968 l 326 968 l 326 779 m 101 -299 b -40 -276 54 -299 -1 -289 l -40 -104 b 19 -111 -19 -108 3 -111 b 72 -51 54 -111 72 -89 l 72 685 l 300 685 l 300 -107 b 101 -299 300 -226 238 -299 "},"ȷ":{"ha":369,"x_min":0,"x_max":0,"o":"m 101 -299 b -40 -276 54 -299 -1 -289 l -40 -104 b 19 -111 -19 -108 3 -111 b 72 -51 54 -111 72 -89 l 72 685 l 300 685 l 300 -107 b 101 -299 300 -226 238 -299 "},"k":{"ha":932,"x_min":0,"x_max":0,"o":"m 68 0 l 68 968 l 294 968 l 294 424 l 568 685 l 885 685 l 572 428 l 917 0 l 639 0 l 410 304 l 294 200 l 294 0 "},"ķ":{"ha":932,"x_min":0,"x_max":0,"o":"m 68 0 l 68 968 l 294 968 l 294 424 l 568 685 l 885 685 l 572 428 l 917 0 l 639 0 l 410 304 l 294 200 l 294 0 m 288 -318 l 363 -71 l 581 -71 l 407 -318 "},"ĸ":{"ha":932,"x_min":0,"x_max":0,"o":"m 68 0 l 68 685 l 294 685 l 294 424 l 568 685 l 885 685 l 572 428 l 917 0 l 639 0 l 410 304 l 294 200 l 294 0 "},"l":{"ha":432,"x_min":0,"x_max":0,"o":"m 261 -15 b 63 176 125 -15 63 57 l 63 968 l 290 968 l 290 232 b 343 172 290 194 308 172 b 403 179 360 172 382 175 l 403 7 b 261 -15 364 -6 308 -15 "},"ĺ":{"ha":432,"x_min":0,"x_max":0,"o":"m 93 1053 l 250 1251 l 475 1251 l 244 1053 m 261 -15 b 63 176 125 -15 63 57 l 63 968 l 290 968 l 290 232 b 343 172 290 194 308 172 b 403 179 360 172 382 175 l 403 7 b 261 -15 364 -6 308 -15 "},"ľ":{"ha":511,"x_min":0,"x_max":0,"o":"m 261 -15 b 63 176 125 -15 63 57 l 63 968 l 290 968 l 290 232 b 343 172 290 194 308 172 b 403 179 360 172 382 175 l 403 7 b 261 -15 364 -6 308 -15 m 372 643 l 449 968 l 668 968 l 493 643 "},"ļ":{"ha":432,"x_min":0,"x_max":0,"o":"m 261 -15 b 63 176 125 -15 63 57 l 63 968 l 290 968 l 290 232 b 343 172 290 194 308 172 b 403 179 360 172 382 175 l 403 7 b 261 -15 364 -6 308 -15 m 8 -318 l 83 -71 l 301 -71 l 128 -318 "},"ł":{"ha":432,"x_min":0,"x_max":0,"o":"m 343 172 b 403 179 360 172 382 175 l 403 7 b 261 -15 364 -6 308 -15 b 63 176 125 -15 63 57 l 63 285 l -8 228 l -8 443 l 63 499 l 63 968 l 290 968 l 290 679 l 356 731 l 356 518 l 290 467 l 290 232 b 343 172 290 194 308 172 "},"m":{"ha":1392,"x_min":0,"x_max":0,"o":"m 1036 699 b 1332 440 1235 699 1332 564 l 1332 0 l 1103 0 l 1103 376 b 968 526 1103 465 1056 526 b 813 324 807 526 813 396 l 813 0 l 588 0 l 588 382 b 456 526 588 472 536 526 b 296 324 296 526 296 390 l 296 0 l 68 0 l 68 685 l 285 685 l 285 590 b 514 699 340 675 432 699 b 763 560 615 699 711 665 b 1036 699 835 676 942 699 "},"n":{"ha":913,"x_min":0,"x_max":0,"o":"m 543 699 b 851 454 729 699 851 607 l 851 0 l 625 0 l 625 365 b 475 526 625 472 574 526 b 294 321 360 526 294 456 l 294 0 l 68 0 l 68 685 l 294 685 l 294 594 b 543 699 347 661 429 699 "},"ń":{"ha":913,"x_min":0,"x_max":0,"o":"m 750 968 l 519 769 l 368 769 l 525 968 m 543 699 b 851 454 729 699 851 607 l 851 0 l 625 0 l 625 365 b 475 526 625 472 574 526 b 294 321 360 526 294 456 l 294 0 l 68 0 l 68 685 l 294 685 l 294 594 b 543 699 347 661 429 699 "},"ŉ":{"ha":1133,"x_min":0,"x_max":0,"o":"m 101 968 l 335 968 l 163 585 l 32 585 m 765 699 b 1074 454 951 699 1074 607 l 1074 0 l 847 0 l 847 365 b 697 526 847 472 796 526 b 517 321 582 526 517 456 l 517 0 l 290 0 l 290 685 l 517 685 l 517 594 b 765 699 569 661 651 699 "},"ň":{"ha":913,"x_min":0,"x_max":0,"o":"m 667 968 l 444 731 l 222 968 l 382 968 l 444 899 l 508 968 m 543 699 b 851 454 729 699 851 607 l 851 0 l 625 0 l 625 365 b 475 526 625 472 574 526 b 294 321 360 526 294 456 l 294 0 l 68 0 l 68 685 l 294 685 l 294 594 b 543 699 347 661 429 699 "},"ņ":{"ha":913,"x_min":0,"x_max":0,"o":"m 543 699 b 851 454 729 699 851 607 l 851 0 l 625 0 l 625 365 b 475 526 625 472 574 526 b 294 321 360 526 294 456 l 294 0 l 68 0 l 68 685 l 294 685 l 294 594 b 543 699 347 661 429 699 m 260 -318 l 335 -71 l 553 -71 l 379 -318 "},"ŋ":{"ha":914,"x_min":0,"x_max":0,"o":"m 546 699 b 853 456 736 699 853 608 l 853 -110 b 647 -297 853 -228 779 -297 b 508 -276 604 -297 563 -292 l 508 -117 b 572 -125 531 -121 553 -125 b 625 -64 617 -125 625 -96 l 625 388 b 469 526 625 472 582 526 b 297 331 351 526 297 447 l 297 0 l 68 0 l 68 685 l 297 685 l 297 604 b 546 699 351 669 431 699 "},"ñ":{"ha":913,"x_min":0,"x_max":0,"o":"m 354 843 b 325 774 336 843 325 815 l 206 774 b 364 971 206 894 267 971 b 529 888 454 971 496 888 b 557 968 544 888 557 914 l 682 968 b 526 761 682 832 622 761 b 354 843 422 761 392 843 m 543 699 b 851 454 729 699 851 607 l 851 0 l 625 0 l 625 365 b 475 526 625 472 574 526 b 294 321 360 526 294 456 l 294 0 l 68 0 l 68 685 l 294 685 l 294 594 b 543 699 347 661 429 699 "},"o":{"ha":931,"x_min":0,"x_max":0,"o":"m 465 -14 b 36 343 208 -14 36 126 b 465 699 36 558 206 699 b 894 343 728 699 894 560 b 465 -14 894 128 724 -14 m 465 172 b 671 343 589 172 671 238 b 465 513 671 449 590 513 b 260 343 340 513 260 449 b 465 172 260 239 342 172 "},"ó":{"ha":931,"x_min":0,"x_max":0,"o":"m 389 769 l 546 968 l 771 968 l 540 769 m 465 -14 b 36 343 208 -14 36 126 b 465 699 36 558 206 699 b 894 343 728 699 894 560 b 465 -14 894 128 724 -14 m 465 172 b 671 343 589 172 671 238 b 465 513 671 449 590 513 b 260 343 340 513 260 449 b 465 172 260 239 342 172 "},"ǒ":{"ha":931,"x_min":0,"x_max":0,"o":"m 465 731 l 243 968 l 403 968 l 465 899 l 529 968 l 688 968 m 465 -14 b 36 343 208 -14 36 126 b 465 699 36 558 206 699 b 894 343 728 699 894 560 b 465 -14 894 128 724 -14 m 465 172 b 671 343 589 172 671 238 b 465 513 671 449 590 513 b 260 343 340 513 260 449 b 465 172 260 239 342 172 "},"ô":{"ha":931,"x_min":0,"x_max":0,"o":"m 243 746 l 465 1000 l 688 746 l 529 746 l 465 824 l 401 746 m 465 -14 b 36 343 208 -14 36 126 b 465 699 36 558 206 699 b 894 343 728 699 894 560 b 465 -14 894 128 724 -14 m 465 172 b 671 343 589 172 671 238 b 465 513 671 449 590 513 b 260 343 340 513 260 449 b 465 172 260 239 342 172 "},"ố":{"ha":931,"x_min":0,"x_max":0,"o":"m 389 1029 l 546 1228 l 771 1228 l 540 1029 m 243 746 l 465 1000 l 688 746 l 529 746 l 465 824 l 401 746 m 465 -14 b 36 343 208 -14 36 126 b 465 699 36 558 206 699 b 894 343 728 699 894 560 b 465 -14 894 128 724 -14 m 465 172 b 671 343 589 172 671 238 b 465 513 671 449 590 513 b 260 343 340 513 260 449 b 465 172 260 239 342 172 "},"ộ":{"ha":931,"x_min":0,"x_max":0,"o":"m 243 746 l 465 1000 l 688 746 l 529 746 l 465 824 l 401 746 m 465 -14 b 36 343 208 -14 36 126 b 465 699 36 558 206 699 b 894 343 728 699 894 560 b 465 -14 894 128 724 -14 m 465 172 b 671 343 589 172 671 238 b 465 513 671 449 590 513 b 260 343 340 513 260 449 b 465 172 260 239 342 172 m 325 -267 l 325 -78 l 606 -78 l 606 -267 "},"ồ":{"ha":931,"x_min":0,"x_max":0,"o":"m 388 1029 l 175 1228 l 397 1228 l 542 1029 m 243 746 l 465 1000 l 688 746 l 529 746 l 465 824 l 401 746 m 465 -14 b 36 343 208 -14 36 126 b 465 699 36 558 206 699 b 894 343 728 699 894 560 b 465 -14 894 128 724 -14 m 465 172 b 671 343 589 172 671 238 b 465 513 671 449 590 513 b 260 343 340 513 260 449 b 465 172 260 239 342 172 "},"ổ":{"ha":931,"x_min":0,"x_max":0,"o":"m 401 746 l 243 746 l 439 969 b 428 968 435 969 432 968 l 404 1053 b 481 1093 443 1058 481 1060 b 382 1129 481 1129 433 1129 l 360 1129 l 360 1257 l 382 1257 b 626 1108 529 1257 626 1204 b 485 978 626 1022 554 992 l 688 746 l 529 746 l 465 824 m 465 699 b 894 343 728 699 894 560 b 465 -14 894 128 724 -14 b 36 343 208 -14 36 126 b 465 699 36 558 206 699 m 465 172 b 671 343 589 172 671 238 b 465 513 671 449 590 513 b 260 343 340 513 260 449 b 465 172 260 239 342 172 "},"ỗ":{"ha":931,"x_min":0,"x_max":0,"o":"m 547 1021 b 375 1103 443 1021 413 1103 b 346 1033 357 1103 346 1075 l 226 1033 b 385 1231 226 1154 288 1231 b 550 1147 475 1231 517 1147 b 578 1228 565 1147 578 1174 l 703 1228 b 547 1021 703 1092 643 1021 m 243 746 l 465 1000 l 688 746 l 529 746 l 465 824 l 401 746 m 465 -14 b 36 343 208 -14 36 126 b 465 699 36 558 206 699 b 894 343 728 699 894 560 b 465 -14 894 128 724 -14 m 465 172 b 671 343 589 172 671 238 b 465 513 671 449 590 513 b 260 343 340 513 260 449 b 465 172 260 239 342 172 "},"ö":{"ha":931,"x_min":0,"x_max":0,"o":"m 203 779 l 203 968 l 431 968 l 431 779 m 500 779 l 500 968 l 728 968 l 728 779 m 465 -14 b 36 343 208 -14 36 126 b 465 699 36 558 206 699 b 894 343 728 699 894 560 b 465 -14 894 128 724 -14 m 465 172 b 671 343 589 172 671 238 b 465 513 671 449 590 513 b 260 343 340 513 260 449 b 465 172 260 239 342 172 "},"ọ":{"ha":931,"x_min":0,"x_max":0,"o":"m 465 -14 b 36 343 208 -14 36 126 b 465 699 36 558 206 699 b 894 343 728 699 894 560 b 465 -14 894 128 724 -14 m 465 172 b 671 343 589 172 671 238 b 465 513 671 449 590 513 b 260 343 340 513 260 449 b 465 172 260 239 342 172 m 325 -267 l 325 -78 l 606 -78 l 606 -267 "},"ò":{"ha":931,"x_min":0,"x_max":0,"o":"m 388 769 l 175 968 l 397 968 l 542 769 m 465 -14 b 36 343 208 -14 36 126 b 465 699 36 558 206 699 b 894 343 728 699 894 560 b 465 -14 894 128 724 -14 m 465 172 b 671 343 589 172 671 238 b 465 513 671 449 590 513 b 260 343 340 513 260 449 b 465 172 260 239 342 172 "},"ỏ":{"ha":931,"x_min":0,"x_max":0,"o":"m 404 793 b 481 833 443 799 481 800 b 382 869 481 869 433 869 l 360 869 l 360 997 l 382 997 b 626 849 529 997 626 944 b 428 708 626 739 508 719 m 465 -14 b 36 343 208 -14 36 126 b 465 699 36 558 206 699 b 894 343 728 699 894 560 b 465 -14 894 128 724 -14 m 465 172 b 671 343 589 172 671 238 b 465 513 671 449 590 513 b 260 343 340 513 260 449 b 465 172 260 239 342 172 "},"ơ":{"ha":931,"x_min":0,"x_max":0,"o":"m 886 739 l 1031 739 l 1031 692 b 875 463 1031 589 986 492 b 894 343 888 426 894 386 b 465 -14 894 128 724 -14 b 36 343 208 -14 36 126 b 465 699 36 558 206 699 b 799 583 608 699 724 657 l 799 589 b 886 704 867 589 886 632 m 465 172 b 671 343 589 172 671 238 b 465 513 671 449 590 513 b 260 343 340 513 260 449 b 465 172 260 239 342 172 "},"ớ":{"ha":931,"x_min":0,"x_max":0,"o":"m 771 968 l 540 769 l 389 769 l 546 968 m 886 739 l 1031 739 l 1031 692 b 875 463 1031 589 986 492 b 894 343 888 426 894 386 b 465 -14 894 128 724 -14 b 36 343 208 -14 36 126 b 465 699 36 558 206 699 b 799 583 608 699 724 657 l 799 589 b 886 704 867 589 886 632 m 465 172 b 671 343 589 172 671 238 b 465 513 671 449 590 513 b 260 343 340 513 260 449 b 465 172 260 239 342 172 "},"ợ":{"ha":931,"x_min":0,"x_max":0,"o":"m 886 739 l 1031 739 l 1031 692 b 875 463 1031 589 986 492 b 894 343 888 426 894 386 b 465 -14 894 128 724 -14 b 36 343 208 -14 36 126 b 465 699 36 558 206 699 b 799 583 608 699 724 657 l 799 589 b 886 704 867 589 886 632 m 465 172 b 671 343 589 172 671 238 b 465 513 671 449 590 513 b 260 343 340 513 260 449 b 465 172 260 239 342 172 m 325 -267 l 325 -78 l 606 -78 l 606 -267 "},"ờ":{"ha":931,"x_min":0,"x_max":0,"o":"m 542 769 l 388 769 l 175 968 l 397 968 m 886 739 l 1031 739 l 1031 692 b 875 463 1031 589 986 492 b 894 343 888 426 894 386 b 465 -14 894 128 724 -14 b 36 343 208 -14 36 126 b 465 699 36 558 206 699 b 799 583 608 699 724 657 l 799 589 b 886 704 867 589 886 632 m 465 172 b 671 343 589 172 671 238 b 465 513 671 449 590 513 b 260 343 340 513 260 449 b 465 172 260 239 342 172 "},"ở":{"ha":931,"x_min":0,"x_max":0,"o":"m 481 833 b 382 869 481 869 433 869 l 360 869 l 360 997 l 382 997 b 626 849 529 997 626 944 b 428 708 626 739 508 719 l 404 793 b 481 833 443 799 481 800 m 886 739 l 1031 739 l 1031 692 b 875 463 1031 589 986 492 b 894 343 888 426 894 386 b 465 -14 894 128 724 -14 b 36 343 208 -14 36 126 b 465 699 36 558 206 699 b 799 583 608 699 724 657 l 799 589 b 886 704 867 589 886 632 m 465 172 b 671 343 589 172 671 238 b 465 513 671 449 590 513 b 260 343 340 513 260 449 b 465 172 260 239 342 172 "},"ỡ":{"ha":931,"x_min":0,"x_max":0,"o":"m 375 843 b 346 774 357 843 346 815 l 226 774 b 385 971 226 894 288 971 b 550 888 475 971 517 888 b 578 968 565 888 578 914 l 703 968 b 547 761 703 832 643 761 b 375 843 443 761 413 843 m 886 739 l 1031 739 l 1031 692 b 875 463 1031 589 986 492 b 894 343 888 426 894 386 b 465 -14 894 128 724 -14 b 36 343 208 -14 36 126 b 465 699 36 558 206 699 b 799 583 608 699 724 657 l 799 589 b 886 704 867 589 886 632 m 465 172 b 671 343 589 172 671 238 b 465 513 671 449 590 513 b 260 343 340 513 260 449 b 465 172 260 239 342 172 "},"ő":{"ha":931,"x_min":0,"x_max":0,"o":"m 247 732 l 404 968 l 592 968 l 399 732 m 532 732 l 689 968 l 911 968 l 683 732 m 465 -14 b 36 343 208 -14 36 126 b 465 699 36 558 206 699 b 894 343 728 699 894 560 b 465 -14 894 128 724 -14 m 465 172 b 671 343 589 172 671 238 b 465 513 671 449 590 513 b 260 343 340 513 260 449 b 465 172 260 239 342 172 "},"ō":{"ha":931,"x_min":0,"x_max":0,"o":"m 272 758 l 272 879 l 658 879 l 658 758 m 465 -14 b 36 343 208 -14 36 126 b 465 699 36 558 206 699 b 894 343 728 699 894 560 b 465 -14 894 128 724 -14 m 465 172 b 671 343 589 172 671 238 b 465 513 671 449 590 513 b 260 343 340 513 260 449 b 465 172 260 239 342 172 "},"ø":{"ha":931,"x_min":0,"x_max":0,"o":"m 700 651 b 894 343 822 593 894 485 b 465 -14 894 128 724 -14 b 313 4 410 -14 360 -7 l 278 -54 l 178 -54 l 231 35 b 36 343 110 93 36 201 b 465 699 36 558 206 699 b 617 681 519 699 571 693 l 651 740 l 753 740 m 260 343 b 333 207 260 283 286 236 l 514 510 b 465 513 499 511 482 513 b 260 343 340 513 260 449 m 465 172 b 671 343 589 172 671 238 b 597 481 671 404 644 451 l 415 176 b 465 172 431 174 447 172 "},"õ":{"ha":931,"x_min":0,"x_max":0,"o":"m 547 761 b 375 843 443 761 413 843 b 346 774 357 843 346 815 l 226 774 b 385 971 226 894 288 971 b 550 888 475 971 517 888 b 578 968 565 888 578 914 l 703 968 b 547 761 703 832 643 761 m 465 -14 b 36 343 208 -14 36 126 b 465 699 36 558 206 699 b 894 343 728 699 894 560 b 465 -14 894 128 724 -14 m 465 172 b 671 343 589 172 671 238 b 465 513 671 449 590 513 b 260 343 340 513 260 449 b 465 172 260 239 342 172 "},"œ":{"ha":1517,"x_min":0,"x_max":0,"o":"m 1478 339 b 1474 272 1478 324 1476 301 l 911 272 b 1110 172 925 211 992 172 b 1357 217 1190 172 1290 189 l 1440 53 b 1110 -14 1331 8 1225 -14 b 783 89 972 -14 860 24 b 465 -14 708 24 599 -14 b 36 343 208 -14 36 126 b 465 699 36 558 206 699 b 785 596 600 699 710 661 b 1081 699 857 661 960 699 b 1478 339 1331 699 1478 556 m 1246 421 b 1086 518 1242 481 1182 518 b 911 421 997 518 926 481 m 465 172 b 671 343 589 172 671 238 b 465 513 671 449 590 513 b 260 343 340 513 260 449 b 465 172 260 239 342 172 "},"p":{"ha":968,"x_min":0,"x_max":0,"o":"m 524 699 b 928 339 767 699 928 558 b 533 -14 928 126 768 -14 b 293 75 428 -14 340 22 l 293 -283 l 68 -283 l 68 685 l 293 685 l 293 613 b 524 699 354 669 435 699 m 499 156 b 703 340 618 156 703 231 b 499 526 703 450 618 526 b 293 340 378 526 293 453 b 499 156 293 229 378 156 "},"þ":{"ha":953,"x_min":0,"x_max":0,"o":"m 556 699 b 918 339 767 699 918 549 b 567 -14 918 136 769 -14 b 326 92 474 -14 371 31 l 326 -283 l 100 -283 l 100 968 l 326 968 l 326 613 b 556 699 385 667 464 699 m 510 156 b 692 340 614 156 692 235 b 510 526 692 446 614 526 b 326 340 406 526 326 446 b 510 156 326 235 407 156 "},"q":{"ha":968,"x_min":0,"x_max":0,"o":"m 675 685 l 900 685 l 900 -283 l 675 -283 l 675 75 b 435 -14 628 22 540 -14 b 40 339 200 -14 40 126 b 444 699 40 558 201 699 b 675 613 533 699 614 669 m 469 156 b 675 340 590 156 675 229 b 469 526 675 453 590 526 b 265 340 350 526 265 450 b 469 156 265 231 350 156 "},"r":{"ha":699,"x_min":0,"x_max":0,"o":"m 508 699 b 685 656 575 699 626 688 l 575 479 b 467 504 549 494 499 504 b 294 333 364 504 294 449 l 294 0 l 68 0 l 68 685 l 297 685 l 297 604 b 508 699 344 661 425 699 "},"ŕ":{"ha":699,"x_min":0,"x_max":0,"o":"m 613 968 l 382 769 l 231 769 l 388 968 m 508 699 b 685 656 575 699 626 688 l 575 479 b 467 504 549 494 499 504 b 294 333 364 504 294 449 l 294 0 l 68 0 l 68 685 l 297 685 l 297 604 b 508 699 344 661 425 699 "},"ř":{"ha":699,"x_min":0,"x_max":0,"o":"m 529 968 l 307 731 l 85 968 l 244 968 l 307 899 l 371 968 m 508 699 b 685 656 575 699 626 688 l 575 479 b 467 504 549 494 499 504 b 294 333 364 504 294 449 l 294 0 l 68 0 l 68 685 l 297 685 l 297 604 b 508 699 344 661 425 699 "},"ŗ":{"ha":699,"x_min":0,"x_max":0,"o":"m 508 699 b 685 656 575 699 626 688 l 575 479 b 467 504 549 494 499 504 b 294 333 364 504 294 449 l 294 0 l 68 0 l 68 685 l 297 685 l 297 604 b 508 699 344 661 425 699 m -3 -318 l 72 -71 l 290 -71 l 117 -318 "},"s":{"ha":801,"x_min":0,"x_max":0,"o":"m 407 -14 b 14 128 222 -14 86 54 l 164 242 b 419 154 229 189 311 154 b 551 206 515 154 551 178 b 69 468 551 292 69 165 b 406 699 69 629 240 699 b 754 593 569 699 689 639 l 626 468 b 390 531 549 506 472 531 b 281 492 331 531 281 519 b 774 239 281 417 774 535 b 407 -14 774 92 631 -14 "},"ś":{"ha":801,"x_min":0,"x_max":0,"o":"m 339 769 l 496 968 l 721 968 l 490 769 m 407 -14 b 14 128 222 -14 86 54 l 164 242 b 419 154 229 189 311 154 b 551 206 515 154 551 178 b 69 468 551 292 69 165 b 406 699 69 629 240 699 b 754 593 569 699 689 639 l 626 468 b 390 531 549 506 472 531 b 281 492 331 531 281 519 b 774 239 281 417 774 535 b 407 -14 774 92 631 -14 "},"š":{"ha":801,"x_min":0,"x_max":0,"o":"m 415 731 l 193 968 l 353 968 l 415 899 l 479 968 l 638 968 m 407 -14 b 14 128 222 -14 86 54 l 164 242 b 419 154 229 189 311 154 b 551 206 515 154 551 178 b 69 468 551 292 69 165 b 406 699 69 629 240 699 b 754 593 569 699 689 639 l 626 468 b 390 531 549 506 472 531 b 281 492 331 531 281 519 b 774 239 281 417 774 535 b 407 -14 774 92 631 -14 "},"ş":{"ha":801,"x_min":0,"x_max":0,"o":"m 774 239 b 464 -11 774 104 654 6 l 424 -56 b 489 -85 450 -61 472 -72 b 536 -192 522 -111 536 -150 b 364 -361 536 -286 467 -361 b 254 -329 344 -361 300 -358 l 318 -228 b 369 -243 336 -237 354 -243 b 415 -200 396 -243 415 -229 b 364 -143 415 -168 394 -151 b 265 -135 335 -135 303 -135 l 346 -11 b 14 128 192 1 78 63 l 164 242 b 419 154 229 189 311 154 b 551 206 515 154 551 178 b 69 468 551 292 69 165 b 406 699 69 629 240 699 b 754 593 569 699 689 639 l 626 468 b 390 531 549 506 472 531 b 281 492 331 531 281 519 b 774 239 281 417 774 535 "},"ș":{"ha":801,"x_min":0,"x_max":0,"o":"m 407 -14 b 14 128 222 -14 86 54 l 164 242 b 419 154 229 189 311 154 b 551 206 515 154 551 178 b 69 468 551 292 69 165 b 406 699 69 629 240 699 b 754 593 569 699 689 639 l 626 468 b 390 531 549 506 472 531 b 281 492 331 531 281 519 b 774 239 281 417 774 535 b 407 -14 774 92 631 -14 m 231 -318 l 306 -71 l 524 -71 l 350 -318 "},"ß":{"ha":1113,"x_min":0,"x_max":0,"o":"m 722 -14 b 331 182 524 -14 376 82 l 510 253 b 735 146 536 211 588 146 b 864 210 822 146 864 174 b 717 275 864 256 799 265 b 382 494 579 292 382 313 b 672 701 382 642 503 697 b 733 739 715 703 733 713 b 558 807 733 782 654 807 b 300 594 300 807 300 674 l 300 0 l 63 0 l 63 594 b 542 982 63 754 110 982 b 957 750 788 982 957 907 b 696 553 957 665 893 557 b 596 494 635 551 596 538 b 749 435 596 451 663 443 b 1085 238 883 422 1085 408 b 722 -14 1085 83 942 -14 "},"t":{"ha":651,"x_min":0,"x_max":0,"o":"m 492 149 b 603 164 521 149 560 153 l 603 7 b 439 -14 550 -6 510 -14 b 161 214 260 -14 161 68 l 161 528 l 24 528 l 24 685 l 161 685 l 161 839 l 385 939 l 385 685 l 601 685 l 601 528 l 385 528 l 385 244 b 492 149 385 183 415 149 "},"ŧ":{"ha":651,"x_min":0,"x_max":0,"o":"m 604 275 l 385 275 l 385 244 b 492 149 385 183 415 149 b 603 164 521 149 560 153 l 603 7 b 439 -14 550 -6 510 -14 b 161 214 260 -14 161 68 l 161 275 l 26 275 l 26 414 l 161 414 l 161 528 l 24 528 l 24 685 l 161 685 l 161 839 l 385 939 l 385 685 l 601 685 l 601 528 l 385 528 l 385 414 l 604 414 "},"ť":{"ha":651,"x_min":0,"x_max":0,"o":"m 769 1092 l 594 767 l 474 767 l 550 1092 m 385 244 b 492 149 385 183 415 149 b 603 164 521 149 560 153 l 603 7 b 439 -14 550 -6 510 -14 b 161 214 260 -14 161 68 l 161 528 l 24 528 l 24 685 l 161 685 l 161 839 l 385 939 l 385 685 l 601 685 l 601 528 l 385 528 "},"ţ":{"ha":651,"x_min":0,"x_max":0,"o":"m 603 7 b 447 -14 551 -6 513 -14 l 408 -56 b 474 -85 435 -61 457 -72 b 521 -192 507 -111 521 -150 b 349 -361 521 -286 451 -361 b 239 -329 329 -361 285 -358 l 303 -228 b 354 -243 321 -237 339 -243 b 400 -200 381 -243 400 -229 b 349 -143 400 -168 379 -151 b 250 -135 319 -135 288 -135 l 336 -3 b 161 214 222 24 161 99 l 161 528 l 24 528 l 24 685 l 161 685 l 161 839 l 385 939 l 385 685 l 601 685 l 601 528 l 385 528 l 385 244 b 492 149 385 183 415 149 b 603 164 521 149 560 153 "},"ț":{"ha":651,"x_min":0,"x_max":0,"o":"m 492 149 b 603 164 521 149 560 153 l 603 7 b 439 -14 550 -6 510 -14 b 161 214 260 -14 161 68 l 161 528 l 24 528 l 24 685 l 161 685 l 161 839 l 385 939 l 385 685 l 601 685 l 601 528 l 385 528 l 385 244 b 492 149 385 183 415 149 m 215 -318 l 290 -71 l 508 -71 l 335 -318 "},"u":{"ha":910,"x_min":0,"x_max":0,"o":"m 614 685 l 840 685 l 840 0 l 614 0 l 614 74 b 372 -14 554 13 471 -14 b 58 263 175 -14 58 85 l 58 685 l 283 685 l 283 303 b 438 158 283 208 339 158 b 614 369 583 158 614 256 "},"ú":{"ha":910,"x_min":0,"x_max":0,"o":"m 753 968 l 522 769 l 371 769 l 528 968 m 614 685 l 840 685 l 840 0 l 614 0 l 614 74 b 372 -14 554 13 471 -14 b 58 263 175 -14 58 85 l 58 685 l 283 685 l 283 303 b 438 158 283 208 339 158 b 614 369 583 158 614 256 "},"ǔ":{"ha":910,"x_min":0,"x_max":0,"o":"m 669 968 l 447 731 l 225 968 l 385 968 l 447 899 l 511 968 m 614 685 l 840 685 l 840 0 l 614 0 l 614 74 b 372 -14 554 13 471 -14 b 58 263 175 -14 58 85 l 58 685 l 283 685 l 283 303 b 438 158 283 208 339 158 b 614 369 583 158 614 256 "},"û":{"ha":910,"x_min":0,"x_max":0,"o":"m 447 824 l 383 746 l 225 746 l 447 1000 l 669 746 l 511 746 m 614 685 l 840 685 l 840 0 l 614 0 l 614 74 b 372 -14 554 13 471 -14 b 58 263 175 -14 58 85 l 58 685 l 283 685 l 283 303 b 438 158 283 208 339 158 b 614 369 583 158 614 256 "},"ü":{"ha":910,"x_min":0,"x_max":0,"o":"m 413 968 l 413 779 l 185 779 l 185 968 m 710 968 l 710 779 l 482 779 l 482 968 m 614 685 l 840 685 l 840 0 l 614 0 l 614 74 b 372 -14 554 13 471 -14 b 58 263 175 -14 58 85 l 58 685 l 283 685 l 283 303 b 438 158 283 208 339 158 b 614 369 583 158 614 256 "},"ǘ":{"ha":910,"x_min":0,"x_max":0,"o":"m 753 1251 l 522 1053 l 371 1053 l 528 1251 m 413 968 l 413 779 l 185 779 l 185 968 m 482 779 l 482 968 l 710 968 l 710 779 m 614 685 l 840 685 l 840 0 l 614 0 l 614 74 b 372 -14 554 13 471 -14 b 58 263 175 -14 58 85 l 58 685 l 283 685 l 283 303 b 438 158 283 208 339 158 b 614 369 583 158 614 256 "},"ǚ":{"ha":910,"x_min":0,"x_max":0,"o":"m 669 1251 l 447 1014 l 225 1251 l 385 1251 l 447 1182 l 511 1251 m 413 968 l 413 779 l 185 779 l 185 968 m 482 779 l 482 968 l 710 968 l 710 779 m 614 685 l 840 685 l 840 0 l 614 0 l 614 74 b 372 -14 554 13 471 -14 b 58 263 175 -14 58 85 l 58 685 l 283 685 l 283 303 b 438 158 283 208 339 158 b 614 369 583 158 614 256 "},"ǜ":{"ha":910,"x_min":0,"x_max":0,"o":"m 524 1053 l 369 1053 l 157 1251 l 379 1251 m 185 779 l 185 968 l 413 968 l 413 779 m 482 779 l 482 968 l 710 968 l 710 779 m 614 685 l 840 685 l 840 0 l 614 0 l 614 74 b 372 -14 554 13 471 -14 b 58 263 175 -14 58 85 l 58 685 l 283 685 l 283 303 b 438 158 283 208 339 158 b 614 369 583 158 614 256 "},"ǖ":{"ha":910,"x_min":0,"x_max":0,"o":"m 640 1163 l 640 1042 l 254 1042 l 254 1163 m 413 968 l 413 779 l 185 779 l 185 968 m 482 779 l 482 968 l 710 968 l 710 779 m 614 685 l 840 685 l 840 0 l 614 0 l 614 74 b 372 -14 554 13 471 -14 b 58 263 175 -14 58 85 l 58 685 l 283 685 l 283 303 b 438 158 283 208 339 158 b 614 369 583 158 614 256 "},"ụ":{"ha":910,"x_min":0,"x_max":0,"o":"m 614 685 l 840 685 l 840 0 l 614 0 l 614 74 b 372 -14 554 13 471 -14 b 58 263 175 -14 58 85 l 58 685 l 283 685 l 283 303 b 438 158 283 208 339 158 b 614 369 583 158 614 256 m 317 -267 l 317 -78 l 597 -78 l 597 -267 "},"ù":{"ha":910,"x_min":0,"x_max":0,"o":"m 524 769 l 369 769 l 157 968 l 379 968 m 614 685 l 840 685 l 840 0 l 614 0 l 614 74 b 372 -14 554 13 471 -14 b 58 263 175 -14 58 85 l 58 685 l 283 685 l 283 303 b 438 158 283 208 339 158 b 614 369 583 158 614 256 "},"ủ":{"ha":910,"x_min":0,"x_max":0,"o":"m 463 833 b 364 869 463 869 415 869 l 342 869 l 342 997 l 364 997 b 608 849 511 997 608 944 b 410 708 608 739 490 719 l 386 793 b 463 833 425 799 463 800 m 614 685 l 840 685 l 840 0 l 614 0 l 614 74 b 372 -14 554 13 471 -14 b 58 263 175 -14 58 85 l 58 685 l 283 685 l 283 303 b 438 158 283 208 339 158 b 614 369 583 158 614 256 "},"ư":{"ha":910,"x_min":0,"x_max":0,"o":"m 879 835 l 1024 835 l 1024 788 b 840 553 1024 676 972 572 l 840 0 l 614 0 l 614 74 b 372 -14 554 13 471 -14 b 58 263 175 -14 58 85 l 58 685 l 283 685 l 283 303 b 438 158 283 208 339 158 b 614 369 583 158 614 256 l 614 685 l 792 685 b 879 800 860 685 879 728 "},"ứ":{"ha":910,"x_min":0,"x_max":0,"o":"m 753 968 l 522 769 l 371 769 l 528 968 m 879 835 l 1024 835 l 1024 788 b 840 553 1024 676 972 572 l 840 0 l 614 0 l 614 74 b 372 -14 554 13 471 -14 b 58 263 175 -14 58 85 l 58 685 l 283 685 l 283 303 b 438 158 283 208 339 158 b 614 369 583 158 614 256 l 614 685 l 792 685 b 879 800 860 685 879 728 "},"ự":{"ha":910,"x_min":0,"x_max":0,"o":"m 879 835 l 1024 835 l 1024 788 b 840 553 1024 676 972 572 l 840 0 l 614 0 l 614 74 b 372 -14 554 13 471 -14 b 58 263 175 -14 58 85 l 58 685 l 283 685 l 283 303 b 438 158 283 208 339 158 b 614 369 583 158 614 256 l 614 685 l 792 685 b 879 800 860 685 879 728 m 317 -267 l 317 -78 l 597 -78 l 597 -267 "},"ừ":{"ha":910,"x_min":0,"x_max":0,"o":"m 524 769 l 369 769 l 157 968 l 379 968 m 879 835 l 1024 835 l 1024 788 b 840 553 1024 676 972 572 l 840 0 l 614 0 l 614 74 b 372 -14 554 13 471 -14 b 58 263 175 -14 58 85 l 58 685 l 283 685 l 283 303 b 438 158 283 208 339 158 b 614 369 583 158 614 256 l 614 685 l 792 685 b 879 800 860 685 879 728 "},"ử":{"ha":910,"x_min":0,"x_max":0,"o":"m 463 833 b 364 869 463 869 415 869 l 342 869 l 342 997 l 364 997 b 608 849 511 997 608 944 b 410 708 608 739 490 719 l 386 793 b 463 833 425 799 463 800 m 879 835 l 1024 835 l 1024 788 b 840 553 1024 676 972 572 l 840 0 l 614 0 l 614 74 b 372 -14 554 13 471 -14 b 58 263 175 -14 58 85 l 58 685 l 283 685 l 283 303 b 438 158 283 208 339 158 b 614 369 583 158 614 256 l 614 685 l 792 685 b 879 800 860 685 879 728 "},"ữ":{"ha":910,"x_min":0,"x_max":0,"o":"m 357 843 b 328 774 339 843 328 815 l 208 774 b 367 971 208 894 269 971 b 532 888 457 971 499 888 b 560 968 547 888 560 914 l 685 968 b 529 761 685 832 625 761 b 357 843 425 761 394 843 m 879 835 l 1024 835 l 1024 788 b 840 553 1024 676 972 572 l 840 0 l 614 0 l 614 74 b 372 -14 554 13 471 -14 b 58 263 175 -14 58 85 l 58 685 l 283 685 l 283 303 b 438 158 283 208 339 158 b 614 369 583 158 614 256 l 614 685 l 792 685 b 879 800 860 685 879 728 "},"ű":{"ha":910,"x_min":0,"x_max":0,"o":"m 574 968 l 381 732 l 229 732 l 386 968 m 665 732 l 514 732 l 671 968 l 893 968 m 614 685 l 840 685 l 840 0 l 614 0 l 614 74 b 372 -14 554 13 471 -14 b 58 263 175 -14 58 85 l 58 685 l 283 685 l 283 303 b 438 158 283 208 339 158 b 614 369 583 158 614 256 "},"ū":{"ha":910,"x_min":0,"x_max":0,"o":"m 640 879 l 640 758 l 254 758 l 254 879 m 614 685 l 840 685 l 840 0 l 614 0 l 614 74 b 372 -14 554 13 471 -14 b 58 263 175 -14 58 85 l 58 685 l 283 685 l 283 303 b 438 158 283 208 339 158 b 614 369 583 158 614 256 "},"ų":{"ha":910,"x_min":0,"x_max":0,"o":"m 907 -219 b 744 -315 875 -271 828 -315 b 571 -161 644 -315 571 -253 b 676 0 571 -68 640 -19 l 614 0 l 614 74 b 372 -14 554 13 471 -14 b 58 263 175 -14 58 85 l 58 685 l 283 685 l 283 303 b 438 158 283 208 339 158 b 614 369 583 158 614 256 l 614 685 l 840 685 l 840 0 b 694 -139 814 -7 694 -64 b 739 -187 694 -178 715 -187 b 799 -149 768 -187 786 -172 "},"ů":{"ha":910,"x_min":0,"x_max":0,"o":"m 447 722 b 275 894 350 722 275 804 b 447 1067 275 989 351 1067 b 619 894 539 1067 619 992 b 447 722 619 799 542 722 m 447 956 b 388 897 408 956 388 931 b 447 833 388 860 413 833 b 508 897 485 833 508 860 b 447 956 508 932 488 956 m 614 685 l 840 685 l 840 0 l 614 0 l 614 74 b 372 -14 554 13 471 -14 b 58 263 175 -14 58 85 l 58 685 l 283 685 l 283 303 b 438 158 283 208 339 158 b 614 369 583 158 614 256 "},"ũ":{"ha":910,"x_min":0,"x_max":0,"o":"m 357 843 b 328 774 339 843 328 815 l 208 774 b 367 971 208 894 269 971 b 532 888 457 971 499 888 b 560 968 547 888 560 914 l 685 968 b 529 761 685 832 625 761 b 357 843 425 761 394 843 m 614 685 l 840 685 l 840 0 l 614 0 l 614 74 b 372 -14 554 13 471 -14 b 58 263 175 -14 58 85 l 58 685 l 283 685 l 283 303 b 438 158 283 208 339 158 b 614 369 583 158 614 256 "},"v":{"ha":896,"x_min":0,"x_max":0,"o":"m 356 0 l 8 685 l 272 685 l 449 261 l 628 685 l 888 685 l 543 0 "},"w":{"ha":1265,"x_min":0,"x_max":0,"o":"m 276 0 l 11 685 l 254 685 l 390 297 l 535 685 l 729 685 l 875 300 l 1011 685 l 1254 685 l 989 0 l 788 0 l 632 413 l 482 0 "},"ẃ":{"ha":1265,"x_min":0,"x_max":0,"o":"m 557 769 l 714 968 l 939 968 l 708 769 m 276 0 l 11 685 l 254 685 l 390 297 l 535 685 l 729 685 l 875 300 l 1011 685 l 1254 685 l 989 0 l 788 0 l 632 413 l 482 0 "},"ŵ":{"ha":1265,"x_min":0,"x_max":0,"o":"m 411 746 l 633 1000 l 856 746 l 697 746 l 633 824 l 569 746 m 276 0 l 11 685 l 254 685 l 390 297 l 535 685 l 729 685 l 875 300 l 1011 685 l 1254 685 l 989 0 l 788 0 l 632 413 l 482 0 "},"ẅ":{"ha":1265,"x_min":0,"x_max":0,"o":"m 371 779 l 371 968 l 599 968 l 599 779 m 668 779 l 668 968 l 896 968 l 896 779 m 276 0 l 11 685 l 254 685 l 390 297 l 535 685 l 729 685 l 875 300 l 1011 685 l 1254 685 l 989 0 l 788 0 l 632 413 l 482 0 "},"ẁ":{"ha":1265,"x_min":0,"x_max":0,"o":"m 556 769 l 343 968 l 565 968 l 710 769 m 276 0 l 11 685 l 254 685 l 390 297 l 535 685 l 729 685 l 875 300 l 1011 685 l 1254 685 l 989 0 l 788 0 l 632 413 l 482 0 "},"x":{"ha":908,"x_min":0,"x_max":0,"o":"m 14 0 l 301 346 l 14 685 l 296 685 l 453 481 l 613 685 l 892 685 l 603 346 l 893 0 l 613 0 l 453 210 l 294 0 "},"y":{"ha":924,"x_min":0,"x_max":0,"o":"m 183 -283 l 336 22 l 10 685 l 275 685 l 460 250 l 653 685 l 914 685 l 426 -283 "},"ý":{"ha":924,"x_min":0,"x_max":0,"o":"m 388 769 l 544 968 l 769 968 l 539 769 m 183 -283 l 336 22 l 10 685 l 275 685 l 460 250 l 653 685 l 914 685 l 426 -283 "},"ŷ":{"ha":924,"x_min":0,"x_max":0,"o":"m 242 746 l 464 1000 l 686 746 l 528 746 l 464 824 l 400 746 m 183 -283 l 336 22 l 10 685 l 275 685 l 460 250 l 653 685 l 914 685 l 426 -283 "},"ÿ":{"ha":924,"x_min":0,"x_max":0,"o":"m 201 779 l 201 968 l 429 968 l 429 779 m 499 779 l 499 968 l 726 968 l 726 779 m 183 -283 l 336 22 l 10 685 l 275 685 l 460 250 l 653 685 l 914 685 l 426 -283 "},"ỵ":{"ha":924,"x_min":0,"x_max":0,"o":"m 183 -283 l 336 22 l 10 685 l 275 685 l 460 250 l 653 685 l 914 685 l 426 -283 m 593 -267 l 593 -78 l 874 -78 l 874 -267 "},"ỳ":{"ha":924,"x_min":0,"x_max":0,"o":"m 386 769 l 174 968 l 396 968 l 540 769 m 183 -283 l 336 22 l 10 685 l 275 685 l 460 250 l 653 685 l 914 685 l 426 -283 "},"ỷ":{"ha":924,"x_min":0,"x_max":0,"o":"m 403 793 b 479 833 442 799 479 800 b 381 869 479 869 432 869 l 358 869 l 358 997 l 381 997 b 625 849 528 997 625 944 b 426 708 625 739 507 719 m 183 -283 l 336 22 l 10 685 l 275 685 l 460 250 l 653 685 l 914 685 l 426 -283 "},"ỹ":{"ha":924,"x_min":0,"x_max":0,"o":"m 546 761 b 374 843 442 761 411 843 b 344 774 356 843 344 815 l 225 774 b 383 971 225 894 286 971 b 549 888 474 971 515 888 b 576 968 564 888 576 914 l 701 968 b 546 761 701 832 642 761 m 183 -283 l 336 22 l 10 685 l 275 685 l 460 250 l 653 685 l 914 685 l 426 -283 "},"z":{"ha":839,"x_min":0,"x_max":0,"o":"m 788 685 l 788 532 l 375 168 l 788 168 l 788 0 l 43 0 l 43 143 l 474 517 l 63 517 l 63 685 "},"ź":{"ha":839,"x_min":0,"x_max":0,"o":"m 726 968 l 496 769 l 344 769 l 501 968 m 788 685 l 788 532 l 375 168 l 788 168 l 788 0 l 43 0 l 43 143 l 474 517 l 63 517 l 63 685 "},"ž":{"ha":839,"x_min":0,"x_max":0,"o":"m 643 968 l 421 731 l 199 968 l 358 968 l 421 899 l 485 968 m 788 685 l 788 532 l 375 168 l 788 168 l 788 0 l 43 0 l 43 143 l 474 517 l 63 517 l 63 685 "},"ż":{"ha":839,"x_min":0,"x_max":0,"o":"m 561 968 l 561 779 l 281 779 l 281 968 m 788 685 l 788 532 l 375 168 l 788 168 l 788 0 l 43 0 l 43 143 l 474 517 l 63 517 l 63 685 "},"ﬁ":{"ha":922,"x_min":0,"x_max":0,"o":"m 874 685 l 874 0 l 649 0 l 649 528 l 389 528 l 389 0 l 161 0 l 161 528 l 24 528 l 24 685 l 161 685 l 161 729 b 536 982 161 885 342 982 b 879 911 689 982 788 956 l 775 767 b 547 821 710 801 638 821 b 389 714 440 821 389 774 l 389 685 "},"ﬂ":{"ha":1107,"x_min":0,"x_max":0,"o":"m 936 -15 b 719 176 801 -15 719 56 l 719 807 b 565 821 672 815 619 821 b 410 711 461 821 410 774 l 410 685 l 576 685 l 576 514 l 410 514 l 410 0 l 164 0 l 164 514 l 24 514 l 24 685 l 164 685 l 164 728 b 553 983 164 881 350 983 b 965 910 690 983 789 979 l 965 232 b 1019 172 965 193 985 172 b 1078 179 1033 172 1058 175 l 1078 7 b 936 -15 1040 -6 983 -15 "},"ª":{"ha":567,"x_min":0,"x_max":0,"o":"m 231 485 b 54 640 131 485 54 546 b 243 789 54 743 139 789 l 375 789 b 369 825 375 804 374 814 b 279 882 358 861 328 882 b 154 811 218 882 181 849 l 68 869 b 275 982 125 950 189 982 b 481 788 404 982 481 903 l 481 497 l 382 497 l 379 547 b 231 485 338 506 286 485 m 256 586 b 356 633 303 586 333 601 b 375 690 364 646 372 668 l 250 690 b 174 638 200 690 174 669 b 256 586 174 610 200 586 "},"º":{"ha":593,"x_min":0,"x_max":0,"o":"m 296 488 b 50 735 149 488 50 601 b 296 982 50 869 151 982 b 543 735 442 982 543 869 b 296 488 543 599 442 488 m 296 593 b 418 735 386 593 418 658 b 296 876 418 811 388 876 b 175 735 207 876 175 814 b 296 593 175 658 206 593 "},"Δ":{"ha":793,"x_min":0,"x_max":0,"o":"m -8 0 l 383 968 l 429 968 l 822 0 m 225 157 l 592 157 l 407 643 "},"Ω":{"ha":1110,"x_min":0,"x_max":0,"o":"m 1076 182 l 1076 0 l 622 0 l 622 144 b 869 483 758 188 869 283 b 551 810 869 682 740 810 b 233 485 363 810 233 682 b 481 144 233 290 339 193 l 481 0 l 26 0 l 26 182 l 168 182 b 33 510 76 265 33 381 b 551 1003 33 789 258 1003 b 1069 508 846 1003 1069 789 b 936 182 1069 378 1026 264 "},"μ":{"ha":876,"x_min":0,"x_max":0,"o":"m 85 -219 l 85 685 l 275 685 l 275 304 b 432 171 275 233 322 171 b 601 324 579 171 601 294 l 601 685 l 792 685 l 792 0 l 601 0 l 601 65 b 389 -14 554 15 474 -14 b 240 25 325 -14 272 0 l 240 -219 "},"π":{"ha":886,"x_min":0,"x_max":0,"o":"m 724 -14 b 546 146 553 -14 546 110 l 546 506 l 289 506 l 289 0 l 118 0 l 118 506 l 28 506 l 28 685 l 818 685 l 818 506 l 715 506 l 715 158 b 761 136 715 147 724 136 b 815 157 776 136 801 146 l 868 26 b 724 -14 817 -4 776 -14 "},"⁄":{"ha":231,"x_min":0,"x_max":0,"o":"m -244 0 l 346 968 l 475 968 l -117 0 "},".":{"ha":397,"x_min":0,"x_max":0,"o":"m 71 0 l 71 211 l 326 211 l 326 0 "},",":{"ha":394,"x_min":0,"x_max":0,"o":"m 54 -197 l 104 236 l 379 236 l 213 -197 "},":":{"ha":399,"x_min":0,"x_max":0,"o":"m 71 439 l 71 654 l 328 654 l 328 439 m 71 0 l 71 211 l 328 211 l 328 0 "},";":{"ha":411,"x_min":0,"x_max":0,"o":"m 99 439 l 99 654 l 354 654 l 354 439 m 54 -197 l 104 236 l 379 236 l 213 -197 "},"…":{"ha":1074,"x_min":0,"x_max":0,"o":"m 71 0 l 71 211 l 299 211 l 299 0 m 424 0 l 424 211 l 651 211 l 651 0 m 775 0 l 775 211 l 1003 211 l 1003 0 "},"!":{"ha":399,"x_min":0,"x_max":0,"o":"m 107 314 l 76 968 l 321 968 l 290 314 m 71 0 l 71 211 l 328 211 l 328 0 "},"¡":{"ha":399,"x_min":0,"x_max":0,"o":"m 328 685 l 328 474 l 71 474 l 71 685 m 292 371 l 322 -283 l 78 -283 l 108 371 "},"?":{"ha":776,"x_min":0,"x_max":0,"o":"m 282 311 l 282 343 b 549 701 282 604 549 557 b 399 794 549 761 489 794 b 226 649 276 794 226 735 l 8 649 b 403 983 8 864 171 983 b 761 711 589 983 761 913 b 489 338 761 438 489 492 l 489 311 m 261 0 l 261 211 l 517 211 l 517 0 "},"¿":{"ha":790,"x_min":0,"x_max":0,"o":"m 561 685 l 561 474 l 306 474 l 306 685 m 540 374 l 540 342 b 274 -17 540 81 274 128 b 424 -110 274 -76 333 -110 b 596 36 546 -110 596 -50 l 814 36 b 419 -299 814 -179 651 -299 b 61 -26 233 -299 61 -228 b 333 347 61 247 333 193 l 333 374 "},"·":{"ha":361,"x_min":0,"x_max":0,"o":"m 179 365 b 38 511 100 365 38 431 b 179 649 38 586 103 649 b 322 511 257 649 322 589 b 179 365 322 432 260 365 "},"•":{"ha":554,"x_min":0,"x_max":0,"o":"m 278 82 b 31 329 140 82 31 196 b 278 578 31 464 140 578 b 524 329 408 578 524 465 b 278 82 524 200 414 82 "},"*":{"ha":517,"x_min":0,"x_max":0,"o":"m 217 503 l 217 663 l 78 583 l 36 654 l 175 736 l 36 817 l 78 888 l 217 808 l 217 968 l 300 968 l 300 808 l 439 888 l 481 817 l 342 736 l 481 654 l 439 583 l 300 663 l 300 503 "},"#":{"ha":881,"x_min":0,"x_max":0,"o":"m 110 0 l 171 279 l 15 279 l 15 421 l 200 421 l 229 560 l 71 560 l 71 708 l 260 708 l 322 968 l 482 968 l 419 703 l 557 703 l 615 968 l 774 968 l 711 703 l 865 703 l 865 560 l 682 560 l 650 421 l 808 421 l 808 279 l 619 279 l 558 0 l 403 0 l 465 279 l 324 279 l 265 0 m 358 421 l 497 421 l 524 560 l 385 560 "},"/":{"ha":617,"x_min":0,"x_max":0,"o":"m -19 -294 l 486 968 l 636 968 l 131 -294 "},"\\":{"ha":638,"x_min":0,"x_max":0,"o":"m 657 -294 l 507 -294 l 1 968 l 151 968 "},"‣":{"ha":561,"x_min":0,"x_max":0,"o":"m 72 88 l 72 654 l 556 372 "},"‥":{"ha":726,"x_min":0,"x_max":0,"o":"m 71 0 l 71 207 l 303 207 l 303 0 m 424 0 l 424 207 l 656 207 l 656 0 "},"(":{"ha":368,"x_min":0,"x_max":0,"o":"m 194 -110 b 25 481 100 -8 25 185 b 193 1071 25 772 99 968 l 375 1071 b 183 481 246 910 183 731 b 374 -110 183 244 240 57 "},")":{"ha":368,"x_min":0,"x_max":0,"o":"m -6 -110 b 185 481 128 57 185 244 b -7 1071 185 731 122 910 l 175 1071 b 343 481 269 968 343 772 b 174 -110 343 185 268 -8 "},"{":{"ha":378,"x_min":0,"x_max":0,"o":"m 250 -112 b 92 92 142 -112 92 -31 l 92 278 b -3 403 92 379 32 388 l -3 532 b 92 649 28 546 92 551 l 92 826 b 246 1029 92 953 149 1029 l 369 1029 l 369 903 l 314 903 b 263 824 279 903 263 879 l 263 644 b 160 469 263 557 232 508 l 160 461 b 263 282 222 432 263 381 l 263 94 b 318 18 263 71 263 18 l 369 18 l 369 -112 "},"}":{"ha":378,"x_min":0,"x_max":0,"o":"m 8 -112 l 8 18 l 60 18 b 117 94 93 18 117 32 l 117 282 b 219 461 117 356 135 422 l 219 469 b 117 644 147 506 117 557 l 117 824 b 64 903 117 867 103 903 l 8 903 l 8 1029 l 132 1029 b 286 826 231 1029 286 951 l 286 649 b 381 532 286 561 340 547 l 381 403 b 286 278 338 386 286 372 l 286 92 b 129 -112 286 -32 235 -112 "},"[":{"ha":383,"x_min":0,"x_max":0,"o":"m 64 -125 l 64 1090 l 376 1090 l 376 957 l 226 957 l 226 10 l 376 10 l 376 -125 "},"]":{"ha":383,"x_min":0,"x_max":0,"o":"m 7 -125 l 7 10 l 158 10 l 158 957 l 7 957 l 7 1090 l 319 1090 l 319 -125 "},"-":{"ha":513,"x_min":0,"x_max":0,"o":"m 49 329 l 49 479 l 464 479 l 464 329 "},"­":{"ha":608,"x_min":0,"x_max":0,"o":"m 49 329 l 49 479 l 560 479 l 560 329 "},"–":{"ha":689,"x_min":0,"x_max":0,"o":"m -3 329 l -3 479 l 692 479 l 692 329 "},"—":{"ha":1397,"x_min":0,"x_max":0,"o":"m -3 329 l -3 479 l 1400 479 l 1400 329 "},"―":{"ha":969,"x_min":0,"x_max":0,"o":"m 49 336 l 49 478 l 921 478 l 921 336 "},"_":{"ha":693,"x_min":0,"x_max":0,"o":"m 49 -153 l 49 0 l 644 0 l 644 -153 "},"‚":{"ha":340,"x_min":0,"x_max":0,"o":"m 32 -203 l 101 182 l 335 182 l 163 -203 "},"„":{"ha":663,"x_min":0,"x_max":0,"o":"m 32 -203 l 101 182 l 335 182 l 163 -203 m 356 -203 l 424 182 l 657 182 l 486 -203 "},"“":{"ha":647,"x_min":0,"x_max":0,"o":"m 6 583 l 176 968 l 308 968 l 239 583 m 313 583 l 481 968 l 613 968 l 546 583 "},"”":{"ha":644,"x_min":0,"x_max":0,"o":"m 32 585 l 101 968 l 335 968 l 163 585 m 339 585 l 408 968 l 639 968 l 469 585 "},"‘":{"ha":342,"x_min":0,"x_max":0,"o":"m 6 583 l 176 968 l 308 968 l 239 583 "},"’":{"ha":340,"x_min":0,"x_max":0,"o":"m 32 585 l 101 968 l 335 968 l 163 585 "},"«":{"ha":742,"x_min":0,"x_max":0,"o":"m 364 0 l -7 350 l 364 700 l 364 486 l 206 350 l 364 214 m 701 0 l 331 350 l 701 700 l 701 486 l 544 350 l 701 214 "},"»":{"ha":782,"x_min":0,"x_max":0,"o":"m 81 0 l 81 214 l 238 350 l 81 486 l 81 700 l 451 350 m 418 0 l 418 214 l 576 350 l 418 486 l 418 700 l 789 350 "},"‹":{"ha":404,"x_min":0,"x_max":0,"o":"m 364 0 l -7 350 l 364 700 l 364 486 l 207 350 l 364 214 "},"›":{"ha":404,"x_min":0,"x_max":0,"o":"m 40 0 l 40 214 l 199 350 l 40 486 l 40 700 l 411 350 "},"\"":{"ha":578,"x_min":0,"x_max":0,"o":"m 63 496 l 63 968 l 229 968 l 229 496 m 347 496 l 347 968 l 515 968 l 515 496 "},"'":{"ha":293,"x_min":0,"x_max":0,"o":"m 63 496 l 63 968 l 231 968 l 231 496 "}," ":{"ha":386,"x_min":0,"x_max":0,"o":""},"¢":{"ha":899,"x_min":0,"x_max":0,"o":"m 467 172 b 657 271 561 172 633 208 l 860 193 b 554 -8 810 81 701 11 l 554 -157 l 385 -157 l 385 -8 b 36 340 168 19 36 156 b 385 693 36 525 164 667 l 385 835 l 554 835 l 554 693 b 868 493 707 675 803 607 l 660 415 b 467 513 629 471 564 513 b 260 340 336 513 260 439 b 467 172 260 242 339 172 "},"¤":{"ha":793,"x_min":0,"x_max":0,"o":"m 146 74 l 42 185 l 117 258 b 117 603 51 367 56 507 l 43 675 l 149 788 l 225 710 b 569 711 335 778 471 775 l 644 786 l 753 679 l 678 604 b 678 257 743 497 743 363 l 753 185 l 646 74 l 569 150 b 222 150 463 85 326 86 m 267 306 b 522 306 340 233 457 236 b 522 556 593 379 594 485 b 269 556 449 628 339 625 b 267 306 203 489 203 369 "},"$":{"ha":1011,"x_min":0,"x_max":0,"o":"m 1010 296 b 600 -24 1010 114 881 -15 l 600 -164 l 431 -164 l 431 -15 b 19 281 181 15 78 129 l 267 331 b 575 167 318 218 432 167 b 758 271 692 167 758 197 b 515 386 758 333 703 357 b 96 693 300 419 96 461 b 429 988 96 863 222 967 l 429 1122 l 600 1122 l 600 988 b 963 824 746 974 860 922 l 797 688 b 492 801 722 760 608 801 b 347 717 396 801 347 774 b 579 611 347 665 399 643 b 1010 296 753 581 1010 535 "},"€":{"ha":893,"x_min":0,"x_max":0,"o":"m 575 183 b 761 247 665 183 721 215 l 869 74 b 575 -14 799 17 699 -14 b 117 319 342 -14 174 118 l 36 319 l 36 453 l 94 453 l 94 481 b 96 524 94 494 94 510 l 36 524 l 36 658 l 119 658 b 572 982 179 854 343 982 b 872 892 701 982 800 950 l 764 717 b 572 785 719 757 657 785 b 343 658 467 785 388 736 l 675 658 l 675 524 l 303 524 b 300 481 301 510 300 496 b 301 453 300 471 300 463 l 675 453 l 675 319 l 338 319 b 575 183 382 238 464 183 "},"ƒ":{"ha":617,"x_min":0,"x_max":0,"o":"m 211 -299 b 69 -276 164 -299 108 -289 l 69 -104 b 129 -111 90 -108 113 -111 b 182 -51 164 -111 182 -89 l 182 528 l 24 528 l 24 685 l 183 685 l 183 736 b 451 982 183 874 240 982 b 624 953 517 982 563 974 l 551 799 b 478 817 521 811 490 817 b 407 731 432 817 407 788 l 407 685 l 596 685 l 596 528 l 407 528 l 407 -107 b 211 -299 407 -226 347 -299 "},"£":{"ha":771,"x_min":0,"x_max":0,"o":"m 374 297 b 292 183 361 247 332 208 l 726 183 l 726 0 l 39 0 l 39 179 b 189 310 81 201 158 242 b 199 379 199 331 200 354 l 40 379 l 40 563 l 160 563 b 131 711 140 617 131 667 b 440 979 131 869 247 979 b 747 774 590 979 699 913 l 565 696 b 432 794 533 765 488 794 b 315 683 353 794 315 747 b 350 563 315 650 328 604 l 607 563 l 607 379 l 378 379 b 374 297 381 344 379 321 "},"₸":{"ha":865,"x_min":0,"x_max":0,"o":"m 42 810 l 42 968 l 824 968 l 824 810 m 335 0 l 335 560 l 42 560 l 42 719 l 824 719 l 824 560 l 532 560 l 532 0 "},"¥":{"ha":1093,"x_min":0,"x_max":0,"o":"m 417 0 l 417 140 l 111 140 l 111 303 l 417 303 l 417 374 l 111 374 l 111 536 l 300 536 l -7 968 l 297 968 l 544 582 l 792 968 l 1099 968 l 792 536 l 982 536 l 982 374 l 679 374 l 679 303 l 982 303 l 982 140 l 679 140 l 679 0 "},"+":{"ha":801,"x_min":0,"x_max":0,"o":"m 317 71 l 317 344 l 43 344 l 43 514 l 317 514 l 317 783 l 483 783 l 483 514 l 757 514 l 757 344 l 483 344 l 483 71 "},"−":{"ha":758,"x_min":0,"x_max":0,"o":"m 76 347 l 76 515 l 682 515 l 682 347 "},"×":{"ha":658,"x_min":0,"x_max":0,"o":"m 135 90 l 18 204 l 211 401 l 18 594 l 135 711 l 328 518 l 524 711 l 640 593 l 446 401 l 640 204 l 524 90 l 328 282 "},"÷":{"ha":701,"x_min":0,"x_max":0,"o":"m 239 622 l 239 817 l 457 817 l 457 622 m 36 347 l 36 515 l 661 515 l 661 347 m 239 51 l 239 247 l 457 247 l 457 51 "},"=":{"ha":706,"x_min":0,"x_max":0,"o":"m 61 542 l 61 708 l 644 708 l 644 542 m 61 217 l 61 383 l 644 383 l 644 217 "},"≠":{"ha":817,"x_min":0,"x_max":0,"o":"m 36 0 l 174 217 l 49 217 l 49 383 l 274 383 l 372 542 l 49 542 l 49 708 l 475 708 l 638 968 l 779 968 l 614 708 l 765 708 l 765 542 l 514 542 l 415 383 l 765 383 l 765 217 l 314 217 l 178 0 "},">":{"ha":908,"x_min":0,"x_max":0,"o":"m 117 -43 l 42 90 l 586 400 l 42 710 l 117 842 l 892 400 "},"<":{"ha":908,"x_min":0,"x_max":0,"o":"m 793 -43 l 17 400 l 793 842 l 867 710 l 325 400 l 867 90 "},"≥":{"ha":900,"x_min":0,"x_max":0,"o":"m 107 83 l 32 217 l 576 526 l 32 836 l 107 968 l 883 526 m 43 -153 l 43 0 l 860 0 l 860 -153 "},"≤":{"ha":899,"x_min":0,"x_max":0,"o":"m 793 83 l 17 526 l 793 968 l 867 836 l 325 526 l 867 217 m 42 -153 l 42 0 l 858 0 l 858 -153 "},"±":{"ha":838,"x_min":0,"x_max":0,"o":"m 342 129 l 342 408 l 35 408 l 35 560 l 342 560 l 342 839 l 493 839 l 493 560 l 800 560 l 800 408 l 493 408 l 493 129 m 35 -153 l 35 0 l 803 0 l 803 -153 "},"≈":{"ha":729,"x_min":0,"x_max":0,"o":"m 485 476 b 240 629 311 476 328 629 b 193 521 210 629 193 585 l 40 521 b 240 763 40 665 121 763 b 485 613 418 763 406 613 b 536 736 514 613 536 668 l 688 736 b 485 476 688 585 607 476 m 485 124 b 240 274 311 124 328 274 b 193 167 210 274 193 231 l 40 167 b 240 408 40 308 119 408 b 485 260 418 408 406 260 b 536 383 514 260 536 314 l 688 383 b 485 124 688 233 607 124 "},"~":{"ha":738,"x_min":0,"x_max":0,"o":"m 489 215 b 244 365 315 215 332 365 b 197 257 214 365 197 321 l 44 257 b 244 501 44 400 124 501 b 489 349 422 501 410 349 b 540 472 518 349 540 404 l 692 472 b 489 215 692 322 613 215 "},"¬":{"ha":789,"x_min":0,"x_max":0,"o":"m 517 199 l 517 367 l 47 367 l 47 546 l 710 546 l 710 199 "},"^":{"ha":860,"x_min":0,"x_max":0,"o":"m 8 276 l 428 1035 l 851 276 l 639 276 l 428 660 l 222 276 "},"∞":{"ha":1160,"x_min":0,"x_max":0,"o":"m 314 242 b 38 504 136 242 38 350 b 314 769 38 661 136 769 b 582 642 397 769 504 732 b 844 769 654 732 758 769 b 1122 504 1022 769 1122 660 b 844 242 1122 351 1022 242 b 582 369 760 242 653 279 b 314 242 504 279 396 242 m 340 404 b 492 504 375 404 450 435 b 340 608 450 574 381 608 b 217 504 261 608 217 574 b 340 404 217 435 263 404 m 817 404 b 943 504 894 404 943 435 b 817 608 943 574 896 608 b 671 504 782 608 713 579 b 817 404 713 431 781 404 "},"∫":{"ha":567,"x_min":0,"x_max":0,"o":"m 151 -299 b 10 -276 104 -299 49 -289 l 10 -104 b 69 -111 31 -108 53 -111 b 122 -51 104 -111 122 -89 l 122 736 b 392 982 122 874 181 982 b 564 953 457 982 503 974 l 492 799 b 418 817 461 811 431 817 b 347 731 372 817 347 788 l 347 -107 b 151 -299 347 -226 288 -299 "},"Ω":{"ha":1139,"x_min":0,"x_max":0,"o":"m 1094 182 l 1094 0 l 640 0 l 640 144 b 888 483 776 188 888 283 b 569 810 888 682 758 810 b 251 485 381 810 251 682 b 499 144 251 290 357 193 l 499 0 l 44 0 l 44 182 l 186 182 b 51 510 94 265 51 381 b 569 1003 51 789 276 1003 b 1088 508 864 1003 1088 789 b 954 182 1088 378 1044 264 "},"∆":{"ha":850,"x_min":0,"x_max":0,"o":"m 10 0 l 401 968 l 447 968 l 840 0 m 243 157 l 610 157 l 425 643 "},"∏":{"ha":806,"x_min":0,"x_max":0,"o":"m 89 0 l 89 800 l 42 800 l 42 968 l 765 968 l 765 800 l 715 800 l 715 0 l 546 0 l 546 800 l 258 800 l 258 0 "},"∑":{"ha":828,"x_min":0,"x_max":0,"o":"m 789 968 l 789 778 l 379 778 l 682 483 l 379 190 l 789 190 l 789 0 l 24 0 l 24 85 l 408 483 l 24 883 l 24 968 "},"√":{"ha":794,"x_min":0,"x_max":0,"o":"m 321 -197 l 125 365 l 15 365 l 15 535 l 249 535 l 332 235 l 607 968 l 788 968 "},"µ":{"ha":790,"x_min":0,"x_max":0,"o":"m 79 -219 l 79 685 l 279 685 l 279 304 b 400 171 279 233 314 171 b 528 324 528 171 528 300 l 528 685 l 729 685 l 729 0 l 528 0 l 528 65 b 360 -14 469 4 428 -14 b 242 19 308 -14 268 -4 l 242 -219 "},"∂":{"ha":797,"x_min":0,"x_max":0,"o":"m 347 -8 b 24 311 144 -8 24 129 b 393 685 24 533 203 685 b 593 596 479 685 553 649 b 572 700 590 635 583 668 b 408 833 543 786 486 833 b 254 738 364 833 289 819 l 107 783 b 413 979 158 913 276 979 b 763 522 631 979 763 813 b 347 -8 763 207 603 -8 m 364 165 b 569 390 499 165 576 289 b 414 519 564 471 501 519 b 213 311 265 519 213 396 b 364 165 213 213 283 165 "},"%":{"ha":971,"x_min":0,"x_max":0,"o":"m 260 531 b 50 757 143 531 50 619 b 256 982 50 894 142 982 b 463 757 372 982 463 885 b 260 531 463 633 375 531 m 117 0 l 717 968 l 858 968 l 257 0 m 260 667 b 326 757 296 667 326 706 b 256 849 326 815 294 849 b 185 757 217 849 185 822 b 260 667 185 694 218 667 m 717 -14 b 510 211 601 -14 510 74 b 713 438 510 349 599 438 b 921 210 831 438 921 338 b 717 -14 921 88 833 -14 m 717 119 b 788 210 757 119 788 158 b 713 301 788 268 754 301 b 644 211 676 301 644 272 b 717 119 644 147 678 119 "},"‱":{"ha":1811,"x_min":0,"x_max":0,"o":"m 226 532 b 19 757 108 532 19 624 b 222 982 19 892 107 982 b 425 757 338 982 425 885 b 226 532 425 635 342 532 m 92 0 l 686 968 l 819 968 l 225 0 m 226 660 b 299 757 267 660 299 701 b 222 856 299 818 265 856 b 146 757 178 856 146 824 b 226 660 146 693 179 660 m 688 -14 b 483 211 571 -14 483 76 b 683 436 483 344 568 436 b 889 210 800 436 889 338 b 688 -14 889 86 803 -14 m 1139 -14 b 935 211 1022 -14 935 76 b 1135 436 935 344 1022 436 b 1339 210 1251 436 1339 336 b 1139 -14 1339 83 1253 -14 m 1593 -14 b 1386 211 1474 -14 1386 76 b 1589 436 1386 344 1472 436 b 1792 210 1703 436 1792 336 b 1593 -14 1792 86 1706 -14 m 688 113 b 763 210 731 113 763 153 b 683 308 763 271 729 308 b 610 211 642 308 610 275 b 688 113 610 144 644 113 m 1139 113 b 1214 210 1182 113 1214 153 b 1135 308 1214 272 1179 308 b 1061 211 1094 308 1061 276 b 1139 113 1061 144 1096 113 m 1593 113 b 1665 210 1633 113 1665 154 b 1589 308 1665 272 1631 308 b 1513 211 1544 308 1513 276 b 1593 113 1513 146 1547 113 "},"‰":{"ha":1364,"x_min":0,"x_max":0,"o":"m 231 531 b 21 757 114 531 21 619 b 226 982 21 894 113 982 b 433 757 343 982 433 885 b 231 531 433 633 346 531 m 88 0 l 688 968 l 829 968 l 228 0 m 231 667 b 297 757 267 667 297 706 b 226 849 297 815 265 849 b 156 757 188 849 156 822 b 231 667 156 694 189 667 m 688 -14 b 481 211 572 -14 481 74 b 683 438 481 349 569 438 b 892 210 801 438 892 338 b 688 -14 892 88 804 -14 m 1142 -14 b 935 211 1026 -14 935 74 b 1138 438 935 349 1026 438 b 1346 210 1257 438 1346 336 b 1142 -14 1346 83 1256 -14 m 688 119 b 758 210 728 119 758 158 b 683 301 758 268 725 301 b 615 211 647 301 615 272 b 688 119 615 147 649 119 m 1142 119 b 1211 210 1182 119 1211 157 b 1138 301 1211 269 1178 301 b 1069 211 1103 301 1069 275 b 1142 119 1069 147 1104 119 "},"→":{"ha":1531,"x_min":0,"x_max":0,"o":"m 765 -22 l 701 103 l 1113 329 l 0 329 l 0 479 l 1113 479 l 701 706 l 765 831 l 1528 404 "},"←":{"ha":1531,"x_min":0,"x_max":0,"o":"m 765 -22 l 3 404 l 765 831 l 829 706 l 418 479 l 1531 479 l 1531 329 l 418 329 l 829 103 "},"◊":{"ha":811,"x_min":0,"x_max":0,"o":"m 275 0 l 11 483 l 275 968 l 538 968 l 800 483 l 538 0 m 399 104 l 413 104 l 601 483 l 413 864 l 399 864 l 207 483 "},"":{"ha":1122,"x_min":0,"x_max":0,"o":"m 560 -14 b 35 511 269 -14 35 222 b 560 1036 35 800 269 1036 b 1085 511 850 1036 1085 800 b 560 -14 1085 222 850 -14 m 560 36 b 1035 511 822 36 1035 251 b 560 986 1035 772 822 986 b 85 511 297 986 85 772 b 560 36 85 250 300 36 m 260 301 b 235 326 247 301 235 313 l 235 694 b 260 719 235 708 249 719 b 285 694 272 719 285 708 l 285 326 b 260 301 285 313 274 301 m 560 301 b 535 326 546 301 535 313 l 535 694 b 560 719 535 708 546 719 b 585 694 574 719 585 708 l 585 326 b 560 301 585 313 572 301 m 863 301 b 844 308 857 301 847 306 l 643 494 b 636 511 639 499 636 504 b 643 528 636 517 639 524 l 842 710 b 861 719 847 715 856 719 b 885 696 868 719 885 713 b 878 679 885 690 883 685 l 694 511 l 878 342 b 885 325 882 338 885 332 b 863 301 885 317 875 301 m 360 486 b 335 511 346 486 335 497 b 360 536 335 525 347 536 l 460 536 b 485 511 474 536 485 524 b 460 486 485 497 472 486 "},"@":{"ha":1368,"x_min":0,"x_max":0,"o":"m 678 -239 b 60 350 340 -239 60 -33 b 690 981 60 714 311 981 b 1311 401 1079 981 1311 708 b 967 -15 1311 158 1192 -15 b 813 124 874 -15 810 36 b 819 171 814 143 815 156 b 613 25 778 78 711 25 b 367 314 447 25 367 158 b 708 731 367 506 489 731 b 846 607 776 731 846 697 l 882 697 l 1014 697 b 922 233 951 443 925 314 b 1001 132 919 168 943 132 b 1156 386 1104 132 1156 229 b 693 825 1156 640 982 825 b 217 351 401 825 217 626 b 671 -89 217 56 432 -89 b 838 -51 738 -89 788 -78 l 893 -199 b 678 -239 828 -225 758 -239 m 632 186 b 793 424 726 186 793 304 b 690 569 793 513 754 569 b 519 336 590 569 519 456 b 632 186 519 244 563 186 "},"&":{"ha":978,"x_min":0,"x_max":0,"o":"m 936 74 l 793 -56 l 675 79 b 383 -18 593 13 496 -18 b 50 233 199 -18 50 67 b 267 529 50 375 157 461 b 160 744 228 568 160 646 b 439 979 160 894 306 979 b 701 743 578 979 701 883 b 550 500 701 636 632 561 l 674 364 b 731 529 694 411 714 467 l 908 500 b 799 225 879 390 843 299 m 353 746 b 418 621 353 704 389 653 b 515 749 475 660 515 699 b 435 822 515 793 482 822 b 353 746 388 822 353 792 m 397 142 b 563 206 460 142 515 164 l 394 397 b 265 243 322 349 265 303 b 397 142 265 188 301 142 "},"¶":{"ha":785,"x_min":0,"x_max":0,"o":"m 328 -168 l 328 426 b 17 697 167 426 17 526 b 328 968 17 868 167 968 l 438 968 l 438 -168 m 589 -168 l 589 968 l 704 968 l 704 -168 "},"§":{"ha":763,"x_min":0,"x_max":0,"o":"m 369 -312 b 65 -136 254 -312 132 -258 l 240 -29 b 375 -126 269 -89 324 -126 b 474 -46 432 -126 474 -94 b 294 88 474 25 382 54 b 19 383 179 132 19 196 b 106 590 19 471 51 538 b 79 708 89 625 79 661 b 394 982 79 888 228 982 b 697 808 522 982 635 922 l 522 701 b 388 797 494 760 436 797 b 289 718 331 797 289 765 b 464 586 289 653 372 621 b 744 289 590 538 744 475 b 658 82 744 208 713 132 b 683 -36 672 53 683 14 b 369 -312 683 -214 539 -312 m 517 217 b 535 271 531 235 535 254 b 361 414 535 343 456 375 b 246 454 335 425 299 435 b 229 403 233 440 229 417 b 403 258 229 326 315 294 b 517 217 428 249 465 239 "},"©":{"ha":1175,"x_min":0,"x_max":0,"o":"m 589 -22 b 57 483 296 -22 57 176 b 589 990 57 790 296 990 b 1117 483 881 990 1117 790 b 589 -22 1117 176 879 -22 m 589 103 b 993 483 813 103 993 249 b 589 865 993 719 813 865 b 182 483 364 865 182 719 b 589 103 182 249 364 103 m 603 203 b 333 482 417 203 333 347 b 601 764 333 622 419 764 b 843 599 715 764 801 710 l 690 543 b 601 615 679 581 650 615 b 500 482 528 615 500 544 b 601 353 500 418 528 353 b 692 422 642 353 676 383 l 836 369 b 603 203 800 265 714 203 "},"®":{"ha":1175,"x_min":0,"x_max":0,"o":"m 589 990 b 1117 483 894 990 1117 776 b 589 -22 1117 190 894 -22 b 57 483 281 -22 57 190 b 589 990 57 776 281 990 m 589 103 b 993 483 825 103 993 261 b 589 865 993 706 826 865 b 182 483 350 865 182 707 b 589 103 182 261 350 103 m 801 593 b 700 447 801 531 758 474 l 854 203 l 704 203 l 569 435 l 538 435 l 538 203 l 406 203 l 406 765 l 600 765 b 801 593 719 765 801 697 m 608 540 b 665 593 643 540 665 563 b 607 647 665 626 643 647 l 538 647 l 538 540 "},"™":{"ha":878,"x_min":0,"x_max":0,"o":"m 139 600 l 139 876 l 38 876 l 38 968 l 338 968 l 338 876 l 239 876 l 239 600 m 389 600 l 389 968 l 551 968 l 606 747 l 660 968 l 819 968 l 819 600 l 719 600 l 719 864 l 639 607 l 575 607 l 489 865 l 489 600 "},"°":{"ha":483,"x_min":0,"x_max":0,"o":"m 239 581 b 39 782 131 581 39 671 b 239 982 39 892 131 982 b 444 782 351 982 444 892 b 239 581 444 671 351 581 m 239 714 b 308 782 279 714 308 744 b 239 849 308 818 279 849 b 174 782 203 849 174 818 b 239 714 174 744 204 714 "},"|":{"ha":310,"x_min":0,"x_max":0,"o":"m 81 -353 l 81 1036 l 229 1036 l 229 -353 "},"¦":{"ha":326,"x_min":0,"x_max":0,"o":"m 81 458 l 81 1036 l 246 1036 l 246 458 m 81 -353 l 81 215 l 246 215 l 246 -353 "},"†":{"ha":504,"x_min":0,"x_max":0,"o":"m 158 -140 l 158 529 l 17 529 l 17 713 l 158 713 l 158 968 l 342 968 l 342 713 l 488 713 l 488 529 l 342 529 l 342 -140 "},"‡":{"ha":538,"x_min":0,"x_max":0,"o":"m 176 -140 l 176 115 l 35 115 l 35 299 l 176 299 l 176 529 l 35 529 l 35 713 l 176 713 l 176 968 l 360 968 l 360 713 l 503 713 l 503 529 l 360 529 l 360 299 l 503 299 l 503 115 l 360 115 l 360 -140 "},"˶":{"ha":719,"x_min":0,"x_max":0,"o":"m 19 444 l 172 685 l 404 685 l 178 444 m 315 444 l 471 685 l 704 685 l 474 444 "},"˵":{"ha":719,"x_min":0,"x_max":0,"o":"m 249 444 l 15 685 l 250 685 l 406 444 m 543 444 l 317 685 l 549 685 l 700 444 "},"̈":{"ha":0,"x_min":0,"x_max":0,"o":"m -600 779 l -600 968 l -372 968 l -372 779 m -303 779 l -303 968 l -75 968 l -75 779 "},"̇":{"ha":0,"x_min":0,"x_max":0,"o":"m -356 779 l -356 968 l -75 968 l -75 779 "},"̀":{"ha":0,"x_min":0,"x_max":0,"o":"m -229 769 l -442 968 l -219 968 l -75 769 "},"́":{"ha":0,"x_min":0,"x_max":0,"o":"m -457 769 l -300 968 l -75 968 l -306 769 "},"̋":{"ha":0,"x_min":0,"x_max":0,"o":"m -739 732 l -582 968 l -394 968 l -587 732 m -454 732 l -297 968 l -75 968 l -303 732 "},"̂":{"ha":0,"x_min":0,"x_max":0,"o":"m -519 746 l -297 1000 l -75 746 l -233 746 l -297 824 l -361 746 "},"̌":{"ha":0,"x_min":0,"x_max":0,"o":"m -297 731 l -519 968 l -360 968 l -297 899 l -233 968 l -75 968 "},"̆":{"ha":0,"x_min":0,"x_max":0,"o":"m -329 754 b -583 968 -508 754 -583 831 l -414 968 b -329 874 -414 889 -371 874 b -244 968 -285 874 -244 889 l -75 968 b -329 754 -75 821 -160 754 "},"̊":{"ha":0,"x_min":0,"x_max":0,"o":"m -247 722 b -419 894 -344 722 -419 804 b -247 1067 -419 989 -343 1067 b -75 894 -156 1067 -75 992 b -247 722 -75 799 -153 722 m -247 833 b -186 897 -210 833 -186 860 b -247 956 -186 932 -207 956 b -307 897 -286 956 -307 931 b -247 833 -307 860 -282 833 "},"̃":{"ha":0,"x_min":0,"x_max":0,"o":"m -231 761 b -403 843 -335 761 -365 843 b -432 774 -421 843 -432 815 l -551 774 b -393 971 -551 894 -490 971 b -228 888 -303 971 -261 888 b -200 968 -212 888 -200 914 l -75 968 b -231 761 -75 832 -135 761 "},"̄":{"ha":0,"x_min":0,"x_max":0,"o":"m -461 758 l -461 879 l -75 879 l -75 758 "},"̉":{"ha":0,"x_min":0,"x_max":0,"o":"m -297 793 b -221 833 -258 799 -221 800 b -319 869 -221 869 -268 869 l -342 869 l -342 997 l -319 997 b -75 849 -172 997 -75 944 b -274 708 -75 739 -193 719 "},"̏":{"ha":0,"x_min":0,"x_max":0,"o":"m -511 732 l -739 968 l -517 968 l -360 732 m -226 732 l -418 968 l -231 968 l -75 732 "},"̒":{"ha":0,"x_min":0,"x_max":0,"o":"m -368 764 l -194 986 l -75 986 l -151 764 "},"̛":{"ha":0,"x_min":0,"x_max":0,"o":"m -307 818 b -219 933 -239 818 -219 861 l -219 968 l -75 968 l -75 921 b -307 682 -75 797 -139 682 "},"̣":{"ha":0,"x_min":0,"x_max":0,"o":"m -356 -267 l -356 -78 l -75 -78 l -75 -267 "},"̦":{"ha":0,"x_min":0,"x_max":0,"o":"m -368 -318 l -293 -71 l -75 -71 l -249 -318 "},"̧":{"ha":0,"x_min":0,"x_max":0,"o":"m -247 -361 b -357 -329 -267 -361 -311 -358 l -293 -228 b -242 -243 -275 -237 -257 -243 b -196 -200 -215 -243 -196 -229 b -247 -143 -196 -168 -217 -151 b -346 -135 -276 -135 -308 -135 l -258 0 l -136 0 l -187 -56 b -122 -85 -161 -61 -139 -72 b -75 -192 -89 -111 -75 -150 b -247 -361 -75 -286 -144 -361 "},"̨":{"ha":0,"x_min":0,"x_max":0,"o":"m -237 -315 b -411 -161 -337 -315 -411 -253 b -306 0 -411 -68 -342 -19 l -142 0 b -287 -139 -168 -7 -287 -64 b -243 -187 -287 -178 -267 -187 b -183 -149 -214 -187 -196 -172 l -75 -219 b -237 -315 -107 -271 -154 -315 "},"̵":{"ha":0,"x_min":0,"x_max":0,"o":"m -653 336 l -653 475 l -75 475 l -75 336 "},"̶":{"ha":0,"x_min":0,"x_max":0,"o":"m -1187 328 l -1187 450 l -75 450 l -75 328 "},"̷":{"ha":0,"x_min":0,"x_max":0,"o":"m -439 219 l -439 435 l -75 722 l -75 510 "},"̸":{"ha":0,"x_min":0,"x_max":0,"o":"m -650 0 l -176 794 l -75 794 l -550 0 "},"¨":{"ha":674,"x_min":0,"x_max":0,"o":"m 74 779 l 74 968 l 301 968 l 301 779 m 371 779 l 371 968 l 599 968 l 599 779 "},"˙":{"ha":429,"x_min":0,"x_max":0,"o":"m 74 779 l 74 968 l 354 968 l 354 779 "},"`":{"ha":515,"x_min":0,"x_max":0,"o":"m 286 769 l 74 968 l 296 968 l 440 769 "},"´":{"ha":531,"x_min":0,"x_max":0,"o":"m 74 769 l 231 968 l 456 968 l 225 769 "},"˝":{"ha":813,"x_min":0,"x_max":0,"o":"m 74 732 l 231 968 l 418 968 l 225 732 m 358 732 l 515 968 l 738 968 l 510 732 "},"ˆ":{"ha":593,"x_min":0,"x_max":0,"o":"m 74 746 l 296 1000 l 518 746 l 360 746 l 296 824 l 232 746 "},"ˇ":{"ha":593,"x_min":0,"x_max":0,"o":"m 296 731 l 74 968 l 233 968 l 296 899 l 360 968 l 518 968 "},"˘":{"ha":657,"x_min":0,"x_max":0,"o":"m 328 754 b 74 968 149 754 74 831 l 243 968 b 328 874 243 889 286 874 b 413 968 372 874 413 889 l 582 968 b 328 754 582 821 497 754 "},"˚":{"ha":493,"x_min":0,"x_max":0,"o":"m 246 722 b 74 894 149 722 74 804 b 246 1067 74 989 150 1067 b 418 894 338 1067 418 992 b 246 722 418 799 340 722 m 246 833 b 307 897 283 833 307 860 b 246 956 307 932 286 956 b 186 897 207 956 186 931 b 246 833 186 860 211 833 "},"˜":{"ha":625,"x_min":0,"x_max":0,"o":"m 394 761 b 222 843 290 761 260 843 b 193 774 204 843 193 815 l 74 774 b 232 971 74 894 135 971 b 397 888 322 971 364 888 b 425 968 413 888 425 914 l 550 968 b 394 761 550 832 490 761 "},"¯":{"ha":535,"x_min":0,"x_max":0,"o":"m 74 758 l 74 879 l 460 879 l 460 758 "},"¸":{"ha":431,"x_min":0,"x_max":0,"o":"m 183 -361 b 74 -329 164 -361 119 -358 l 138 -228 b 189 -243 156 -237 174 -243 b 235 -200 215 -243 235 -229 b 183 -143 235 -168 214 -151 b 85 -135 154 -135 122 -135 l 172 0 l 294 0 l 243 -56 b 308 -85 269 -61 292 -72 b 356 -192 342 -111 356 -150 b 183 -361 356 -286 286 -361 "},"˛":{"ha":485,"x_min":0,"x_max":0,"o":"m 247 -315 b 74 -161 147 -315 74 -253 b 179 0 74 -68 143 -19 l 343 0 b 197 -139 317 -7 197 -64 b 242 -187 197 -178 218 -187 b 301 -149 271 -187 289 -172 l 410 -219 b 247 -315 378 -271 331 -315 "},"΄":{"ha":447,"x_min":0,"x_max":0,"o":"m 74 769 l 175 968 l 372 968 l 225 769 "},"΅":{"ha":743,"x_min":0,"x_max":0,"o":"m 403 789 l 300 811 l 347 1128 l 508 1094 m 74 779 l 74 968 l 232 968 l 232 779 m 510 779 l 510 968 l 668 968 l 668 779 "}}}
